<?xml version="1.0" standalone="no"?>
<!DOCTYPE svg PUBLIC "-//W3C//DTD SVG 20010904//EN"
 "http://www.w3.org/TR/2001/REC-SVG-20010904/DTD/svg10.dtd">
<svg version="1.0" xmlns="http://www.w3.org/2000/svg"
 width="13504.000000pt" height="3343.000000pt" viewBox="0 0 13504.000000 3343.000000"
 preserveAspectRatio="xMidYMid meet">

<g transform="translate(0.000000,3343.000000) scale(0.100000,-0.100000)"
fill="#000000" stroke="none">
<path d="M49730 33414 c-6179 -8 -9426 -16 -9565 -23 -2031 -101 -3721 -1561
-4129 -3568 -50 -246 -86 -566 -86 -775 l0 -118 11243 -2 c6183 -2 11294 0
11357 4 839 55 1701 385 2380 912 216 168 457 395 643 606 677 771 1082 1784
1114 2788 l6 192 -1804 -2 c-992 0 -6014 -7 -11159 -14z"/>
<path d="M11353 33393 l-11173 -3 0 -118 c0 -141 13 -306 41 -505 159 -1166
786 -2232 1736 -2949 690 -522 1492 -821 2383 -889 106 -8 2587 -9 9163 -4
l9017 7 0 -2238 0 -2237 163 7 c1014 43 1938 397 2712 1041 805 669 1362 1632
1539 2660 49 289 60 426 60 765 0 339 -11 476 -60 765 -158 917 -610 1772
-1285 2430 -800 779 -1886 1244 -2964 1268 -88 2 -5188 2 -11332 0z"/>
<path d="M75845 33394 c-1437 -99 -2688 -817 -3472 -1994 -387 -580 -618
-1204 -715 -1927 l-23 -168 0 -2625 0 -2625 23 -168 c117 -872 429 -1602 975
-2280 662 -823 1657 -1404 2709 -1582 356 -60 -417 -55 9540 -55 l9098 0 -2
-2227 -3 -2228 -11172 -3 -11173 -2 0 -123 c0 -131 20 -371 45 -540 247 -1653
1417 -3042 3010 -3572 405 -135 762 -201 1210 -225 262 -14 18028 -14 18290 0
228 12 412 33 595 66 1176 216 2221 897 2889 1884 447 661 698 1383 761 2189
7 91 10 1631 10 4688 l0 4553 -11170 0 -11170 0 0 2251 0 2251 9108 -4 c8629
-3 9114 -2 9247 15 565 70 1015 200 1480 427 864 421 1570 1113 2016 1975 296
572 466 1221 486 1853 l6 192 -4670 0 c-2568 0 -7639 2 -11269 4 -3629 2
-6626 2 -6659 0z"/>
<path d="M111655 33383 c-1049 -54 -2063 -488 -2827 -1210 -612 -579 -1048
-1313 -1258 -2118 -87 -332 -127 -611 -146 -1002 l-6 -133 5566 0 5566 0 0
-8940 0 -8940 2233 2 2232 3 3 8937 2 8938 3528 3 c3882 3 3558 -2 3942 63
1148 194 2205 866 2885 1835 476 678 771 1527 800 2309 3 74 7 163 10 198 l4
62 -11237 -2 c-6180 -1 -11264 -3 -11297 -5z"/>
<path d="M40110 24443 c-1004 -61 -1949 -454 -2705 -1124 -905 -802 -1451
-1958 -1492 -3156 l-6 -183 8931 0 8932 0 0 2235 0 2235 -6802 -2 c-3742 -1
-6828 -3 -6858 -5z"/>
<path d="M4644 24074 c3 -203 11 -2137 17 -4299 10 -3939 16 -4552 44 -4785
147 -1223 775 -2313 1757 -3050 664 -499 1384 -780 2250 -877 143 -16 604 -18
6958 -21 4817 -2 6872 0 7035 8 453 21 810 86 1225 222 581 190 1120 505 1603
936 411 366 779 860 1028 1377 220 459 350 912 416 1456 16 133 18 336 21
2589 3 2490 2 2635 -34 2909 -132 1009 -588 1918 -1320 2631 -721 703 -1636
1133 -2644 1245 -129 14 -425 16 -2710 16 -2650 0 -2629 0 -2910 -42 -1573
-235 -2924 -1318 -3505 -2808 -162 -416 -270 -905 -290 -1316 -3 -66 -8 -159
-11 -207 l-6 -88 4476 0 4476 0 -2 -2227 -3 -2228 -6705 0 -6705 0 5 1705 c8
2767 7 3030 -13 3208 -87 763 -324 1417 -739 2034 -799 1188 -2116 1922 -3541
1975 l-179 6 6 -369z"/>
<path d="M35950 15401 c0 -418 98 -955 256 -1398 128 -361 277 -654 499 -988
442 -661 1015 -1164 1730 -1515 492 -242 933 -368 1530 -438 128 -14 905 -16
9185 -19 6196 -3 9113 -1 9260 7 434 21 763 77 1150 197 377 116 793 315 1125
536 1076 718 1787 1859 1955 3139 21 160 40 405 40 521 l0 67 -13365 0 -13365
0 0 -109z"/>
<path d="M19360 5063 c-96 -8 -273 -44 -375 -78 -490 -160 -863 -547 -1040
-1078 -81 -243 -115 -465 -115 -752 0 -372 61 -663 199 -950 99 -205 204 -350
359 -495 650 -609 1790 -528 2349 167 215 267 341 578 400 978 24 170 24 556
0 715 -63 409 -207 737 -435 993 -324 365 -803 543 -1342 500z m359 -399 c497
-101 849 -563 931 -1224 15 -123 12 -391 -5 -527 -52 -399 -200 -723 -431
-943 -93 -88 -165 -138 -277 -190 -213 -100 -483 -122 -724 -59 -647 169
-1017 1004 -838 1895 139 690 588 1098 1175 1067 52 -2 128 -11 169 -19z"/>
<path d="M62971 5059 c-204 -25 -428 -105 -582 -210 -139 -94 -273 -258 -334
-408 -96 -235 -92 -518 10 -737 47 -102 107 -184 201 -274 148 -141 325 -243
632 -364 387 -153 547 -255 654 -421 61 -94 83 -178 82 -320 0 -105 -4 -130
-27 -199 -52 -150 -154 -263 -301 -335 -301 -149 -788 -110 -1189 96 -48 25
-89 44 -91 42 -2 -2 -29 -89 -60 -193 -67 -220 -73 -194 59 -256 273 -128 676
-192 1006 -160 571 56 947 338 1061 796 18 73 22 117 22 249 0 190 -19 286
-88 429 -123 260 -374 452 -826 631 -321 128 -485 220 -593 335 -250 264 -172
682 155 838 111 53 189 71 334 79 235 12 503 -44 706 -148 22 -11 41 -19 43
-17 11 13 123 373 119 380 -22 35 -276 119 -449 148 -141 25 -416 34 -544 19z"/>
<path d="M72791 5059 c-204 -25 -428 -105 -582 -210 -139 -94 -273 -258 -334
-408 -96 -235 -92 -518 10 -737 47 -102 107 -184 201 -274 148 -141 325 -243
632 -364 387 -153 547 -255 654 -421 61 -94 83 -178 82 -320 0 -105 -4 -130
-27 -199 -52 -150 -154 -263 -301 -335 -301 -149 -788 -110 -1189 96 -48 25
-89 44 -91 42 -2 -2 -29 -89 -60 -193 -67 -220 -73 -194 59 -256 273 -128 676
-192 1006 -160 571 56 947 338 1061 796 18 73 22 117 22 249 0 190 -19 286
-88 429 -123 260 -374 452 -826 631 -321 128 -485 220 -593 335 -250 264 -172
682 155 838 111 53 189 71 334 79 235 12 503 -44 706 -148 22 -11 41 -19 43
-17 11 13 123 373 119 380 -22 35 -276 119 -449 148 -141 25 -416 34 -544 19z"/>
<path d="M76040 5059 c-304 -31 -623 -137 -857 -285 -170 -108 -370 -300 -481
-461 -249 -364 -367 -829 -332 -1315 27 -397 122 -695 311 -978 84 -126 273
-315 399 -399 415 -277 925 -367 1555 -275 223 32 501 119 491 152 -3 10 -24
89 -47 177 -22 88 -44 163 -48 168 -4 4 -36 -4 -72 -18 -357 -141 -875 -157
-1227 -39 -427 143 -720 482 -826 955 -88 399 -48 854 106 1188 202 442 611
704 1150 740 275 18 569 -24 790 -114 34 -14 65 -22 69 -18 12 14 111 362 105
372 -21 33 -294 109 -486 136 -140 20 -470 27 -600 14z"/>
<path d="M86710 5059 c-304 -31 -623 -137 -857 -285 -170 -108 -370 -300 -481
-461 -249 -364 -366 -826 -333 -1311 28 -400 122 -698 312 -982 84 -126 273
-315 399 -399 421 -280 951 -371 1580 -270 149 23 278 57 389 99 64 25 81 35
77 48 -3 10 -24 89 -47 177 -22 88 -44 163 -48 168 -4 4 -36 -4 -72 -18 -357
-141 -875 -157 -1227 -39 -427 143 -720 482 -826 955 -88 399 -48 854 106
1188 202 442 611 704 1150 740 275 18 569 -24 790 -114 34 -14 65 -22 69 -18
12 14 111 362 105 372 -21 34 -299 111 -491 136 -147 20 -466 27 -595 14z"/>
<path d="M110430 5059 c-304 -31 -623 -137 -857 -285 -170 -108 -370 -300
-481 -461 -249 -364 -366 -826 -333 -1311 28 -400 122 -698 312 -982 84 -126
273 -315 399 -399 421 -280 951 -371 1580 -270 149 23 278 57 389 99 64 25 81
35 77 48 -3 10 -24 89 -47 177 -22 88 -44 163 -48 168 -4 4 -36 -4 -72 -18
-357 -141 -875 -157 -1227 -39 -427 143 -720 482 -826 955 -88 399 -48 854
106 1188 202 442 611 704 1150 740 275 18 569 -24 790 -114 34 -14 65 -22 69
-18 12 14 111 362 105 372 -21 34 -299 111 -491 136 -147 20 -466 27 -595 14z"/>
<path d="M120530 5063 c-96 -8 -273 -44 -375 -78 -491 -160 -863 -546 -1040
-1078 -81 -243 -115 -465 -115 -752 0 -372 62 -667 199 -950 99 -206 204 -350
359 -495 650 -609 1790 -528 2349 167 215 267 341 578 400 978 24 170 24 556
0 715 -63 406 -205 733 -432 991 -320 363 -806 545 -1345 502z m359 -399 c497
-101 849 -563 931 -1224 15 -123 12 -391 -5 -527 -52 -399 -200 -723 -431
-943 -93 -88 -165 -138 -277 -190 -213 -100 -483 -122 -724 -59 -647 169
-1017 1004 -838 1895 139 690 588 1098 1175 1067 52 -2 128 -11 169 -19z"/>
<path d="M126610 5063 c-96 -8 -273 -44 -375 -78 -491 -160 -863 -546 -1040
-1078 -81 -243 -115 -465 -115 -752 0 -372 62 -667 199 -950 99 -206 204 -350
359 -495 650 -609 1790 -528 2349 167 215 267 341 578 400 978 24 170 24 556
0 715 -63 406 -205 733 -432 991 -320 363 -806 545 -1345 502z m359 -399 c497
-101 849 -563 931 -1224 15 -123 12 -391 -5 -527 -52 -399 -200 -723 -431
-943 -93 -88 -165 -138 -277 -190 -213 -100 -483 -122 -724 -59 -647 169
-1017 1004 -838 1895 139 690 588 1098 1175 1067 52 -2 128 -11 169 -19z"/>
<path d="M10470 5040 c-969 -92 -1610 -690 -1731 -1615 -15 -115 -15 -423 0
-540 30 -227 98 -468 185 -649 215 -448 630 -759 1152 -865 176 -36 284 -45
524 -45 365 0 679 50 1013 160 l107 36 0 879 0 879 -600 0 -600 0 0 -190 0
-190 370 0 370 0 0 -549 0 -548 -77 -26 c-141 -46 -274 -62 -528 -62 -313 0
-477 32 -692 135 -500 238 -766 748 -740 1415 28 697 396 1179 1022 1339 240
61 609 65 890 10 86 -17 282 -77 328 -101 16 -8 31 -13 33 -10 2 2 29 87 59
188 49 163 54 185 40 195 -24 18 -219 81 -321 103 -217 48 -584 71 -804 51z"/>
<path d="M130550 5040 c-867 -82 -1477 -571 -1680 -1346 -92 -354 -86 -789 18
-1149 201 -697 697 -1106 1462 -1207 123 -16 536 -16 665 0 241 30 479 82 678
148 l107 36 0 879 0 879 -600 0 -600 0 0 -190 0 -190 370 0 370 0 0 -549 0
-548 -77 -26 c-141 -46 -274 -62 -528 -62 -174 0 -252 4 -320 17 -514 97 -867
396 -1026 868 -77 232 -106 524 -79 790 65 628 430 1064 1015 1214 240 61 609
65 890 10 86 -17 282 -77 328 -101 16 -8 31 -13 33 -10 2 2 29 87 59 188 49
163 54 185 40 195 -24 18 -219 81 -321 103 -217 48 -584 71 -804 51z"/>
<path d="M930 5030 c-147 -11 -264 -24 -412 -46 l-108 -16 0 -1798 0 -1797
102 -12 c325 -35 827 -39 1073 -7 492 64 778 212 965 497 112 171 154 318 154
549 0 171 -17 260 -74 386 -106 234 -342 433 -607 511 -67 19 -76 28 -40 38
45 14 184 88 242 130 79 56 192 175 238 252 193 317 139 766 -121 1004 -172
158 -387 252 -672 294 -127 19 -558 28 -740 15z m523 -360 c426 -41 647 -239
647 -580 0 -171 -49 -290 -166 -407 -57 -56 -92 -81 -166 -117 -165 -80 -216
-88 -576 -93 l-312 -5 2 588 3 588 40 8 c110 24 379 32 528 18z m7 -1570 c487
-60 750 -304 750 -695 0 -359 -207 -588 -611 -677 -94 -20 -131 -23 -374 -23
-148 0 -287 4 -307 8 l-38 8 0 694 0 695 248 0 c136 0 286 -5 332 -10z"/>
<path d="M6570 5029 c-152 -9 -392 -35 -490 -52 l-65 -12 -3 -1803 -2 -1802
235 0 235 0 0 791 0 791 303 -5 c274 -3 309 -6 375 -26 281 -83 407 -262 512
-726 80 -357 170 -687 210 -778 l21 -47 244 0 244 0 -25 56 c-41 93 -91 271
-195 694 -56 227 -116 444 -136 495 -86 219 -216 376 -376 455 -79 39 -105 60
-76 60 20 0 196 87 256 127 78 52 196 165 249 240 60 83 117 209 145 318 30
118 33 336 6 465 -20 93 -67 211 -119 297 -134 222 -402 381 -738 437 -212 35
-495 44 -810 25z m520 -359 c372 -40 600 -201 676 -480 13 -46 18 -101 18
-190 0 -208 -50 -337 -184 -471 -83 -83 -166 -135 -281 -174 -132 -45 -228
-55 -547 -55 l-292 0 2 667 3 668 59 13 c125 27 391 38 546 22z"/>
<path d="M15670 5029 c-152 -9 -392 -35 -490 -52 l-65 -12 -3 -1803 -2 -1802
235 0 235 0 0 791 0 791 303 -5 c274 -3 309 -6 375 -26 281 -83 407 -262 512
-726 80 -357 170 -687 210 -778 l21 -47 244 0 244 0 -25 56 c-41 93 -91 271
-195 694 -56 227 -116 444 -136 495 -86 219 -216 376 -376 455 -79 39 -105 60
-76 60 20 0 196 87 256 127 78 52 196 165 249 240 60 83 117 209 145 318 30
118 33 336 6 465 -20 93 -67 211 -119 297 -134 222 -402 381 -738 437 -212 35
-495 44 -810 25z m520 -359 c372 -40 600 -201 676 -480 25 -90 25 -290 0 -380
-43 -157 -167 -315 -307 -394 -172 -95 -296 -116 -687 -116 l-292 0 2 667 3
668 59 13 c125 27 391 38 546 22z"/>
<path d="M35960 5029 c-152 -9 -392 -35 -490 -52 l-65 -12 -3 -1803 -2 -1802
235 0 235 0 0 791 0 791 303 -5 c274 -3 309 -6 375 -26 281 -83 407 -262 512
-726 80 -357 170 -687 210 -778 l21 -47 244 0 244 0 -25 56 c-41 93 -91 271
-195 694 -56 227 -116 444 -136 495 -86 219 -216 376 -376 455 -79 39 -105 60
-76 60 20 0 196 87 256 127 78 52 196 165 249 240 60 83 117 209 145 318 30
118 33 336 6 465 -20 93 -67 211 -119 297 -134 222 -402 381 -738 437 -212 35
-495 44 -810 25z m520 -359 c372 -40 600 -201 676 -480 13 -46 18 -101 18
-190 0 -208 -50 -337 -184 -471 -83 -83 -166 -135 -281 -174 -132 -45 -228
-55 -547 -55 l-292 0 2 667 3 668 59 13 c125 27 391 38 546 22z"/>
<path d="M41520 5030 c-148 -10 -379 -35 -477 -51 l-63 -11 0 -1804 0 -1804
235 0 235 0 0 731 0 731 37 -7 c137 -25 356 -32 538 -15 617 57 1033 352 1160
822 37 137 52 320 37 465 -52 521 -385 835 -982 928 -126 20 -520 28 -720 15z
m513 -370 c385 -38 624 -211 704 -510 26 -97 23 -318 -5 -425 -75 -277 -272
-452 -595 -528 -81 -19 -120 -21 -322 -20 -153 0 -252 5 -295 14 l-65 14 -3
711 -2 712 22 5 c117 29 402 42 561 27z"/>
<path d="M44420 5029 c-152 -9 -392 -35 -490 -52 l-65 -12 -3 -1803 -2 -1802
235 0 235 0 0 791 0 791 303 -5 c274 -3 309 -6 375 -26 281 -83 407 -262 512
-726 80 -357 170 -687 210 -778 l21 -47 244 0 244 0 -25 56 c-41 93 -91 271
-195 694 -56 227 -116 444 -136 495 -86 219 -216 376 -376 455 -79 39 -105 60
-76 60 20 0 196 87 256 127 78 52 196 165 249 240 60 83 117 209 145 318 30
118 33 336 6 465 -20 93 -67 211 -119 297 -134 222 -402 381 -738 437 -212 35
-495 44 -810 25z m520 -359 c372 -40 600 -201 676 -480 13 -46 18 -101 18
-190 0 -208 -50 -337 -184 -471 -83 -83 -166 -135 -281 -174 -132 -45 -228
-55 -547 -55 l-292 0 2 667 3 668 59 13 c125 27 391 38 546 22z"/>
<path d="M59730 5029 c-152 -9 -392 -35 -490 -52 l-65 -12 -3 -1803 -2 -1802
235 0 235 0 0 791 0 791 303 -5 c274 -3 309 -6 375 -26 281 -83 407 -262 512
-726 80 -357 170 -687 210 -778 l21 -47 244 0 244 0 -25 56 c-41 93 -91 271
-195 694 -56 227 -116 444 -136 495 -86 219 -216 376 -376 455 -79 39 -105 60
-76 60 20 0 196 87 256 127 78 52 196 165 249 240 60 83 117 209 145 318 30
118 33 336 6 465 -20 93 -67 211 -119 297 -134 222 -402 381 -738 437 -212 35
-495 44 -810 25z m520 -359 c372 -40 600 -201 676 -480 13 -46 18 -101 18
-190 0 -208 -50 -337 -184 -471 -83 -83 -166 -135 -281 -174 -132 -45 -228
-55 -547 -55 l-292 0 2 667 3 668 59 13 c125 27 391 38 546 22z"/>
<path d="M99715 5029 c-145 -8 -385 -31 -540 -52 l-90 -12 -3 -1796 -2 -1796
132 -12 c995 -89 1655 11 2128 321 123 79 322 278 406 403 164 244 261 505
311 835 24 163 24 541 -1 699 -88 560 -380 977 -841 1202 -372 181 -839 246
-1500 208z m560 -369 c352 -28 615 -115 826 -271 81 -60 202 -185 256 -265
176 -259 254 -615 225 -1022 -31 -434 -157 -748 -397 -987 -227 -228 -524
-354 -930 -396 -123 -12 -563 -7 -655 9 l-45 7 -3 1441 -2 1442 62 11 c199 34
467 47 663 31z"/>
<path d="M3350 3185 l0 -1825 1025 0 1025 0 0 195 0 195 -787 2 -788 3 -3 658
-2 657 710 0 710 0 0 195 0 195 -710 0 -710 0 2 578 3 577 748 3 747 2 0 195
0 195 -985 0 -985 0 0 -1825z"/>
<path d="M12440 3185 l0 -1825 1025 0 1025 0 0 195 0 195 -787 2 -788 3 -3
658 -2 657 710 0 710 0 0 195 0 195 -710 0 -710 0 2 578 3 577 748 3 747 2 0
195 0 195 -985 0 -985 0 0 -1825z"/>
<path d="M21770 3185 l0 -1825 220 0 220 0 0 1143 c0 1034 -5 1368 -26 1790
-8 152 0 170 35 85 26 -63 214 -422 296 -563 142 -248 326 -545 903 -1465
l618 -985 237 -3 237 -2 0 1825 0 1825 -220 0 -220 0 0 -942 c0 -967 9 -1444
35 -1813 8 -115 15 -226 15 -245 0 -29 -25 12 -138 235 -234 456 -270 516
-1105 1832 l-592 933 -257 0 -258 0 0 -1825z"/>
<path d="M26480 3185 l0 -1825 1025 0 1025 0 0 195 0 195 -787 2 -788 3 -3
658 -2 657 710 0 710 0 0 195 0 195 -710 0 -710 0 2 578 3 577 748 3 747 2 0
195 0 195 -985 0 -985 0 0 -1825z"/>
<path d="M29140 3185 l0 -1825 220 0 220 0 0 1143 c0 1034 -5 1368 -26 1790
-8 152 0 170 35 84 26 -62 202 -398 291 -554 143 -249 322 -540 908 -1473
l618 -985 237 -3 237 -2 0 1825 0 1825 -220 0 -220 0 0 -942 c0 -967 9 -1444
35 -1813 8 -115 15 -226 15 -245 0 -29 -25 12 -138 235 -234 456 -270 516
-1105 1832 l-592 933 -257 0 -258 0 0 -1825z"/>
<path d="M32290 4810 l0 -200 555 0 555 0 0 -1625 0 -1625 240 0 240 0 0 1625
0 1625 560 0 560 0 -2 198 -3 197 -1352 3 -1353 2 0 -200z"/>
<path d="M38320 3185 l0 -1825 1025 0 1025 0 0 195 0 195 -787 2 -788 3 -3
658 -2 657 710 0 710 0 0 195 0 195 -710 0 -710 0 2 578 3 577 748 3 747 2 0
195 0 195 -985 0 -985 0 0 -1825z"/>
<path d="M46780 3185 l0 -1825 1025 0 1025 0 0 195 0 195 -787 2 -788 3 -3
658 -2 657 710 0 710 0 0 195 0 195 -710 0 -710 0 2 578 3 577 748 3 747 2 0
195 0 195 -985 0 -985 0 0 -1825z"/>
<path d="M49440 3185 l0 -1825 220 0 220 0 0 1143 c0 1034 -5 1368 -26 1790
-8 152 0 170 35 84 26 -62 202 -398 291 -554 143 -249 322 -540 908 -1473
l618 -985 237 -3 237 -2 0 1825 0 1825 -220 0 -220 0 0 -942 c0 -967 9 -1444
35 -1813 8 -115 15 -226 15 -245 0 -29 -25 12 -138 235 -234 456 -270 516
-1105 1832 l-592 933 -257 0 -258 0 0 -1825z"/>
<path d="M53000 3185 l0 -1825 1025 0 1025 0 0 195 0 195 -787 2 -788 3 -3
658 -2 657 710 0 710 0 0 195 0 195 -710 0 -710 0 2 578 3 577 748 3 747 2 0
195 0 195 -985 0 -985 0 0 -1825z"/>
<path d="M55660 3928 c0 -1306 6 -1424 80 -1703 98 -370 299 -638 588 -784
377 -190 937 -187 1327 6 377 187 593 524 682 1063 15 94 17 226 20 1303 l4
1197 -241 0 -240 0 0 -1168 c0 -735 -4 -1199 -10 -1252 -59 -484 -259 -771
-606 -870 -274 -79 -582 -25 -776 134 -118 97 -203 231 -262 407 -85 256 -86
274 -86 1605 l0 1144 -240 0 -240 0 0 -1082z"/>
<path d="M65910 3185 l0 -1825 235 0 235 0 0 1825 0 1825 -235 0 -235 0 0
-1825z"/>
<path d="M67200 3185 l0 -1825 220 0 220 0 0 1143 c0 1034 -5 1368 -26 1790
-8 152 0 170 35 84 26 -62 202 -398 291 -554 143 -249 322 -540 908 -1473
l618 -985 237 -3 237 -2 0 1825 0 1825 -220 0 -220 0 0 -942 c0 -967 9 -1444
35 -1813 8 -115 15 -226 15 -245 0 -29 -25 12 -138 235 -234 456 -270 516
-1105 1832 l-592 933 -257 0 -258 0 0 -1825z"/>
<path d="M77730 3185 l0 -1825 235 0 235 0 0 1825 0 1825 -235 0 -235 0 0
-1825z"/>
<path d="M79020 3185 l0 -1825 1025 0 1025 0 0 195 0 195 -787 2 -788 3 -3
658 -2 657 710 0 710 0 0 195 0 195 -710 0 -710 0 2 578 3 577 748 3 747 2 0
195 0 195 -985 0 -985 0 0 -1825z"/>
<path d="M81690 3185 l0 -1825 220 0 220 0 0 1143 c0 1034 -5 1368 -26 1790
-8 152 0 170 35 84 26 -62 202 -398 291 -554 143 -249 322 -540 908 -1473
l618 -985 237 -3 237 -2 0 1825 0 1825 -220 0 -220 0 0 -942 c0 -967 9 -1444
35 -1813 8 -115 15 -226 15 -245 0 -29 -25 12 -138 235 -234 456 -270 516
-1105 1832 l-592 933 -257 0 -258 0 0 -1825z"/>
<path d="M88390 3185 l0 -1825 1025 0 1025 0 0 195 0 195 -787 2 -788 3 -3
658 -2 657 710 0 710 0 0 195 0 195 -710 0 -710 0 2 578 3 577 748 3 747 2 0
195 0 195 -985 0 -985 0 0 -1825z"/>
<path d="M92550 3199 c-338 -996 -616 -1817 -618 -1825 -3 -12 34 -14 239 -12
l243 3 189 572 188 573 648 0 648 0 194 -572 194 -573 252 -3 252 -2 -132 388
c-73 213 -352 1034 -622 1825 l-490 1437 -285 0 -285 0 -615 -1811z m950 1176
c53 -202 149 -500 368 -1142 l121 -353 -551 0 c-520 0 -550 1 -543 18 4 9 88
256 186 547 186 548 239 720 339 1104 6 24 15 40 19 35 5 -5 32 -99 61 -209z"/>
<path d="M95520 3185 l0 -1825 220 0 220 0 0 1143 c0 1034 -5 1368 -26 1790
-8 152 0 170 35 84 26 -62 202 -398 291 -554 143 -249 322 -540 908 -1473
l618 -985 237 -3 237 -2 0 1825 0 1825 -220 0 -220 0 0 -942 c0 -967 9 -1444
35 -1813 8 -115 15 -226 15 -245 0 -29 -25 12 -138 235 -234 456 -270 516
-1105 1832 l-592 933 -257 0 -258 0 0 -1825z"/>
<path d="M103200 4810 l0 -200 555 0 555 0 0 -1625 0 -1625 240 0 240 0 0
1625 0 1625 560 0 560 0 -2 198 -3 197 -1352 3 -1353 2 0 -200z"/>
<path d="M106310 3185 l0 -1825 1025 0 1025 0 0 195 0 195 -787 2 -788 3 -3
658 -2 657 710 0 710 0 0 195 0 195 -710 0 -710 0 2 578 3 577 748 3 747 2 0
195 0 195 -985 0 -985 0 0 -1825z"/>
<path d="M112120 3185 l0 -1825 235 0 235 0 0 855 0 855 885 0 885 0 0 -855 0
-855 240 0 240 0 0 1825 0 1825 -240 0 -240 0 0 -765 0 -765 -885 0 -885 0 0
765 0 765 -235 0 -235 0 0 -1825z"/>
<path d="M115650 3185 l0 -1825 220 0 220 0 0 1143 c0 1034 -5 1368 -26 1790
-8 152 0 170 35 84 26 -62 202 -398 291 -554 143 -249 322 -540 908 -1473
l618 -985 237 -3 237 -2 0 1825 0 1825 -220 0 -220 0 0 -942 c0 -967 9 -1444
35 -1813 8 -115 15 -226 15 -245 0 -29 -25 12 -138 235 -234 456 -270 516
-1105 1832 l-592 933 -257 0 -258 0 0 -1825z"/>
<path d="M122940 3185 l0 -1825 1015 0 1015 0 0 195 0 195 -777 2 -778 3 -3
1628 -2 1627 -235 0 -235 0 0 -1825z"/>
<path d="M132214 4948 c19 -35 278 -506 575 -1048 l541 -985 0 -777 0 -778
240 0 240 0 0 778 0 777 610 1045 611 1045 -263 3 c-144 1 -265 -1 -270 -6
-28 -28 -774 -1482 -859 -1674 -19 -43 -37 -78 -40 -78 -3 0 -36 66 -73 148
-56 121 -488 982 -748 1489 l-63 123 -268 0 -268 0 35 -62z"/>
</g>
</svg>
