<?xml version="1.0" standalone="no"?>
<!DOCTYPE svg PUBLIC "-//W3C//DTD SVG 20010904//EN"
 "http://www.w3.org/TR/2001/REC-SVG-20010904/DTD/svg10.dtd">
<svg version="1.0" xmlns="http://www.w3.org/2000/svg"
 width="569.000000pt" height="175.000000pt" viewBox="0 0 569.000000 175.000000"
 preserveAspectRatio="xMidYMid meet">

<g transform="translate(0.000000,175.000000) scale(0.100000,-0.100000)"
fill="#000000" stroke="none">
<path d="M741 1729 c-6 -13 -51 -238 -101 -499 -49 -261 -92 -485 -95 -497 -3
-12 -14 -23 -27 -25 -14 -2 -24 -13 -29 -30 -7 -25 -5 -28 18 -28 19 0 24 -4
19 -16 -3 -9 -6 -18 -6 -20 0 -2 -9 -4 -19 -4 -19 0 -31 -18 -31 -46 0 -11 6
-13 21 -9 17 6 20 3 17 -16 -2 -15 -12 -25 -28 -29 -18 -4 -26 -13 -28 -34 -3
-25 -1 -28 18 -23 20 5 21 3 15 -21 -11 -47 -27 -146 -28 -182 -2 -29 2 -36
20 -38 33 -5 47 35 72 208 5 35 10 46 27 48 21 3 20 2 -7 -159 -16 -89 -26
-166 -23 -170 10 -17 45 -9 54 14 8 19 20 92 47 282 6 40 17 55 42 55 9 0 11
-7 7 -22 -13 -45 -37 -240 -32 -254 8 -21 34 -17 50 9 7 12 19 65 26 117 19
148 20 153 24 157 2 2 89 15 192 28 396 51 502 58 944 61 235 2 426 8 428 13
2 5 -5 12 -15 16 -34 13 -625 18 -836 6 -198 -11 -541 -42 -654 -60 -51 -8
-53 -7 -53 16 0 12 6 23 13 23 6 0 85 9 175 20 377 45 836 64 1192 50 79 -3
126 -1 128 5 6 19 -65 25 -373 32 -361 7 -700 -10 -1072 -54 -48 -5 -53 -4
-53 14 0 18 10 22 93 32 418 51 832 69 1190 52 148 -7 271 -10 275 -7 21 22
-60 32 -379 46 -308 14 -668 2 -1034 -35 -71 -7 -131 -12 -133 -11 -1 2 25
205 58 452 62 468 66 504 51 504 -15 0 -16 -6 -91 -495 -42 -267 -76 -463 -83
-467 -27 -17 -38 -8 -32 25 20 116 125 830 125 851 0 34 -17 33 -24 -1 -3 -16
-38 -212 -76 -438 -39 -226 -73 -420 -75 -432 -6 -24 -45 -33 -45 -11 0 10 67
409 145 863 15 86 21 143 15 149 -5 5 -13 0 -19 -15z m-11 -1053 c0 -18 -15
-36 -31 -36 -18 0 -26 20 -12 33 7 8 43 10 43 3z m-100 -25 c0 -17 -18 -31
-41 -31 -16 0 -10 29 9 39 25 15 32 13 32 -8z m78 -83 c-2 -15 -11 -24 -25
-26 -27 -4 -30 10 -7 32 22 23 36 20 32 -6z m-98 -18 c0 -13 -7 -20 -20 -20
-13 0 -20 7 -20 20 0 13 7 20 20 20 13 0 20 -7 20 -20z"/>
<path d="M2292 1559 c-98 -19 -155 -84 -155 -174 0 -58 25 -110 64 -134 13 -7
54 -24 93 -37 82 -28 116 -56 116 -96 0 -77 -116 -104 -188 -43 l-29 24 -38
-39 c-33 -34 -36 -41 -25 -55 41 -50 162 -76 250 -55 164 39 201 252 58 326
-17 9 -51 22 -77 30 -72 22 -111 49 -111 80 0 14 5 34 10 44 22 40 127 44 169
6 16 -14 20 -13 55 23 44 45 41 56 -18 81 -53 23 -120 30 -174 19z"/>
<path d="M2813 1560 c-94 -19 -150 -74 -160 -157 -10 -92 41 -154 153 -188
110 -32 152 -89 103 -141 -42 -45 -114 -44 -168 2 l-31 26 -41 -39 -40 -38 36
-32 c92 -80 280 -64 346 29 33 46 38 150 10 196 -25 39 -69 67 -136 87 -27 8
-65 24 -82 35 -27 16 -33 26 -33 55 0 27 6 39 27 52 37 24 106 22 142 -5 l28
-21 39 40 c38 40 39 41 19 56 -51 39 -140 57 -212 43z"/>
<path d="M3402 1560 c-147 -30 -242 -149 -242 -304 0 -91 23 -156 75 -214 64
-71 127 -97 235 -97 108 0 171 26 235 97 60 67 78 127 73 237 -4 97 -26 147
-90 208 -64 62 -187 93 -286 73z m177 -127 c33 -19 49 -38 68 -80 46 -101 18
-218 -66 -278 -37 -26 -51 -30 -109 -30 -82 0 -130 26 -167 90 -76 129 -15
292 120 326 45 11 105 0 154 -28z"/>
<path d="M1040 1250 l0 -310 180 0 180 0 0 50 0 49 -122 3 -123 3 -3 258 -2
257 -55 0 -55 0 0 -310z"/>
<path d="M1581 1263 c-68 -164 -126 -304 -128 -311 -4 -10 9 -12 57 -10 l62 3
25 68 25 67 127 0 126 0 26 -67 26 -68 62 -3 c57 -3 62 -1 57 15 -3 10 -60
149 -125 308 l-119 290 -49 3 -49 3 -123 -298z m212 31 c21 -58 36 -108 34
-110 -3 -3 -40 -4 -84 -2 l-80 3 40 108 c22 59 43 107 46 107 3 0 23 -48 44
-106z"/>
<path d="M3920 1250 l0 -310 55 0 55 0 2 227 3 227 140 -224 141 -225 67 -3
67 -3 0 311 0 310 -50 0 -50 0 -2 -227 -3 -228 -140 228 -139 227 -73 0 -73 0
0 -310z"/>
<path d="M4620 1250 l0 -312 153 4 c138 3 157 6 207 29 66 32 121 85 151 148
26 53 31 177 11 248 -18 61 -69 121 -132 157 -55 31 -56 31 -222 34 l-168 4 0
-312z m327 187 c18 -9 45 -34 60 -54 26 -34 28 -43 28 -128 0 -86 -2 -94 -29
-129 -38 -50 -97 -75 -196 -83 l-80 -6 0 213 0 212 93 -4 c60 -3 103 -10 124
-21z"/>
<path d="M5292 1253 l3 -308 193 -3 192 -2 0 50 0 49 -137 3 -138 3 -3 77 -3
77 133 3 133 3 3 47 3 47 -133 3 -133 3 -3 78 -3 77 141 0 140 0 0 50 0 50
-195 0 -195 0 2 -307z"/>
<path d="M406 684 c-19 -18 -21 -54 -3 -54 21 0 34 14 39 43 6 31 -11 36 -36
11z"/>
<path d="M2521 681 c-27 -27 -16 -59 26 -76 24 -10 33 -20 31 -32 -3 -14 -12
-17 -42 -16 -33 2 -36 1 -26 -12 16 -20 64 -19 84 1 28 28 16 59 -30 79 -52
21 -39 62 15 48 24 -6 29 12 5 21 -27 10 -43 7 -63 -13z"/>
<path d="M2665 675 c-70 -69 10 -181 96 -134 30 16 13 29 -21 16 -22 -8 -35
-9 -48 -1 -63 40 -16 148 48 114 28 -15 40 -2 16 16 -29 21 -64 17 -91 -11z"/>
<path d="M2999 671 c-32 -33 -36 -58 -14 -100 16 -32 33 -41 75 -41 39 0 70
29 77 72 5 32 1 41 -25 68 -39 39 -74 39 -113 1z m89 -7 c42 -29 19 -114 -31
-114 -54 0 -79 83 -35 114 12 9 27 16 33 16 6 0 21 -7 33 -16z"/>
<path d="M3195 675 c-51 -50 -18 -145 49 -145 19 0 45 9 60 21 57 45 19 149
-54 149 -19 0 -40 -9 -55 -25z m90 -20 c14 -13 25 -33 25 -45 0 -26 -34 -60
-60 -60 -27 0 -60 35 -60 62 0 25 36 68 57 68 8 0 25 -11 38 -25z"/>
<path d="M3675 688 c-31 -18 -44 -40 -45 -76 0 -73 90 -110 140 -57 65 69 -15
179 -95 133z m75 -28 c38 -38 15 -110 -34 -110 -62 1 -83 87 -29 119 26 15 41
13 63 -9z"/>
<path d="M4475 688 c-75 -40 -50 -158 34 -158 50 0 61 9 61 51 0 37 -2 39 -31
39 -17 0 -28 -4 -24 -10 3 -5 13 -10 21 -10 19 0 18 -39 -1 -46 -44 -17 -94
31 -79 78 10 32 51 53 79 40 30 -14 44 2 16 17 -25 14 -50 13 -76 -1z"/>
<path d="M5577 680 c-33 -26 -43 -70 -23 -108 17 -33 34 -42 76 -42 49 0 60 9
60 51 0 37 -2 39 -30 39 -16 0 -30 -4 -30 -10 0 -5 9 -10 21 -10 15 0 20 -5
17 -22 -4 -30 -52 -37 -79 -12 -49 44 -1 132 57 105 32 -14 34 -14 34 3 0 31
-66 35 -103 6z"/>
<path d="M2810 609 c0 -60 3 -80 13 -76 6 2 12 19 12 38 1 32 3 34 38 37 l37
3 0 -40 c0 -23 5 -41 10 -41 6 0 10 33 10 80 0 47 -4 80 -10 80 -5 0 -10 -14
-10 -31 0 -29 -2 -30 -37 -27 -35 3 -38 5 -35 31 3 19 -1 27 -12 27 -13 0 -16
-14 -16 -81z"/>
<path d="M3370 610 l0 -80 45 0 c52 0 61 17 13 22 l-33 3 -3 68 c-4 94 -22 84
-22 -13z"/>
<path d="M3832 613 c3 -78 20 -107 26 -45 3 28 7 32 32 32 16 0 32 5 35 10 4
6 -8 10 -29 10 -32 0 -36 3 -36 25 0 22 4 25 35 25 19 0 35 5 35 10 0 6 -23
10 -50 10 l-51 0 3 -77z"/>
<path d="M4112 613 l3 -78 53 -3 c31 -2 52 1 52 7 0 6 -18 11 -40 11 -38 0
-40 2 -40 30 0 28 3 30 35 30 19 0 35 5 35 10 0 6 -16 10 -35 10 -28 0 -35 4
-35 20 0 16 7 20 34 20 19 0 38 5 41 10 4 6 -15 10 -50 10 l-56 0 3 -77z"/>
<path d="M4260 610 c0 -47 4 -80 10 -80 6 0 10 27 10 62 l0 62 43 -62 c23 -34
48 -62 55 -62 8 0 12 23 12 80 0 91 -17 109 -22 23 l-3 -58 -39 58 c-54 80
-66 76 -66 -23z"/>
<path d="M4620 610 c0 -47 4 -80 10 -80 6 0 10 33 10 80 0 47 -4 80 -10 80 -6
0 -10 -33 -10 -80z"/>
<path d="M4690 610 c0 -94 18 -108 22 -18 l3 61 43 -61 c24 -34 47 -62 53 -62
5 0 9 36 9 80 0 91 -17 109 -22 23 l-3 -57 -38 57 c-53 81 -67 76 -67 -23z"/>
<path d="M4870 610 l0 -80 49 0 c62 0 77 18 19 22 -38 3 -43 6 -43 28 0 22 5
25 38 28 46 4 39 22 -9 22 -27 0 -34 4 -34 20 0 17 7 20 40 20 22 0 40 5 40
10 0 6 -22 10 -50 10 l-50 0 0 -80z"/>
<path d="M5012 613 l3 -78 53 -3 c31 -2 52 1 52 7 0 6 -18 11 -40 11 -38 0
-40 2 -40 30 0 28 3 30 35 30 19 0 35 5 35 10 0 6 -16 10 -35 10 -28 0 -35 4
-35 20 0 16 7 20 34 20 19 0 38 5 41 10 4 6 -15 10 -50 10 l-56 0 3 -77z"/>
<path d="M5152 613 c2 -50 7 -78 16 -81 8 -2 12 8 12 32 0 45 12 46 40 1 12
-19 26 -35 31 -35 12 0 11 6 -7 41 -14 28 -14 32 0 48 35 39 12 71 -51 71
l-44 0 3 -77z m82 42 c4 -11 -3 -19 -20 -25 -34 -13 -34 -13 -34 15 0 20 5 25
24 25 13 0 27 -7 30 -15z"/>
<path d="M5300 610 c0 -47 4 -80 10 -80 6 0 10 33 10 80 0 47 -4 80 -10 80 -6
0 -10 -33 -10 -80z"/>
<path d="M5370 610 c0 -94 18 -108 22 -17 l3 62 43 -63 c24 -35 49 -61 55 -59
8 2 13 33 15 80 2 63 0 77 -12 77 -11 0 -16 -14 -18 -57 l-3 -57 -38 57 c-53
81 -67 76 -67 -23z"/>
<path d="M262 670 c-27 -11 -39 -37 -24 -52 8 -8 25 -8 53 -2 35 7 44 14 50
37 7 25 5 27 -24 26 -18 0 -42 -4 -55 -9z"/>
<path d="M394 592 c-6 -4 -15 -17 -19 -30 -6 -21 -4 -23 17 -20 17 2 24 10 26
31 3 27 -4 33 -24 19z"/>
<path d="M228 566 c-60 -13 -88 -30 -88 -52 0 -17 27 -18 106 -3 60 11 74 20
74 52 0 20 -12 20 -92 3z"/>
<path d="M366 484 c-19 -18 -21 -54 -3 -54 21 0 34 14 41 43 7 31 -12 37 -38
11z"/>
<path d="M212 465 c-57 -13 -89 -36 -78 -54 14 -22 141 -5 157 21 15 23 10 48
-8 47 -10 0 -42 -7 -71 -14z"/>
</g>
</svg>
