<?xml version="1.0" standalone="no"?>
<!DOCTYPE svg PUBLIC "-//W3C//DTD SVG 20010904//EN"
 "http://www.w3.org/TR/2001/REC-SVG-20010904/DTD/svg10.dtd">
<svg version="1.0" xmlns="http://www.w3.org/2000/svg"
 width="200.000000pt" height="200.000000pt" viewBox="0 0 200.000000 200.000000"
 preserveAspectRatio="xMidYMid meet">

<g transform="translate(0.000000,200.000000) scale(0.100000,-0.100000)"
fill="#000000" stroke="none">
<path d="M811 1760 l-184 -149 -186 -79 -186 -79 0 -124 0 -124 58 -3 c51 -3
57 -1 57 17 0 17 8 20 48 23 26 2 80 2 120 0 l72 -4 0 -86 0 -87 -258 -76
-257 -76 -3 -167 -2 -166 60 0 60 0 0 60 0 60 185 0 c102 0 185 -3 185 -8 0
-6 -64 -240 -116 -419 l-15 -53 -110 0 -110 0 3 -62 3 -63 768 -3 768 -2 -3
62 -3 63 -106 3 -107 3 -62 222 c-34 122 -64 230 -66 240 -5 16 8 17 180 17
l186 0 0 -60 0 -60 60 0 60 0 0 165 0 164 -67 20 c-38 12 -154 46 -260 78
-216 63 -200 50 -195 166 l4 67 113 0 114 0 3 -57 3 -58 63 -3 62 -3 -2 166
-3 166 -194 85 -193 86 -178 144 c-98 79 -180 144 -182 144 -2 -1 -86 -68
-187 -150z m251 -57 l61 -48 -62 -3 c-33 -2 -88 -2 -121 0 l-60 3 58 47 c31
26 59 47 60 47 2 1 31 -20 64 -46z m198 -253 l0 -80 -260 0 -260 0 0 75 0 75
163 3 c89 1 206 4 260 5 l97 2 0 -80z m242 -25 c56 -25 104 -48 107 -50 2 -3
-46 -5 -107 -5 l-112 0 0 50 c0 28 2 50 5 50 2 0 51 -20 107 -45z m-892 -10
l0 -45 -112 0 -113 1 100 43 c55 24 106 44 113 45 8 1 12 -14 12 -44z m650
-245 l0 -70 -207 0 c-115 0 -232 3 -260 6 l-53 7 0 63 0 64 260 0 260 0 0 -70z
m0 -275 l0 -75 -260 0 -260 0 0 75 0 75 260 0 260 0 0 -75z m440 -51 l75 -23
-192 0 -193 -1 0 59 0 59 118 -35 c64 -20 151 -46 192 -59z m-1090 31 l0 -55
-187 1 c-104 0 -183 2 -178 5 22 9 341 103 353 103 8 1 12 -16 12 -54z m739
-397 c34 -123 65 -231 68 -242 4 -14 -11 -7 -58 27 -248 175 -355 247 -364
243 -6 -2 -102 -67 -213 -145 -111 -77 -202 -138 -202 -135 0 4 109 398 126
457 5 16 28 17 293 17 l288 0 62 -222z m-245 -188 l100 -70 -200 1 c-190 0
-198 1 -175 17 14 9 57 40 95 69 39 28 73 52 76 52 3 1 50 -31 104 -69z"/>
</g>
</svg>
