<?xml version="1.0" standalone="no"?>
<!DOCTYPE svg PUBLIC "-//W3C//DTD SVG 20010904//EN"
 "http://www.w3.org/TR/2001/REC-SVG-20010904/DTD/svg10.dtd">
<svg version="1.0" xmlns="http://www.w3.org/2000/svg"
 width="612.000000pt" height="408.000000pt" viewBox="0 0 612.000000 408.000000"
 preserveAspectRatio="xMidYMid meet">

<g transform="translate(0.000000,408.000000) scale(0.100000,-0.100000)"
fill="#000000" stroke="none">
<path d="M1610 4076 c0 -10 70 -146 75 -146 3 0 -11 33 -31 73 -38 74 -44 85
-44 73z"/>
<path d="M1783 4073 c2 -5 64 -135 137 -291 73 -155 135 -281 137 -278 7 6
-259 576 -269 576 -5 0 -7 -3 -5 -7z"/>
<path d="M3191 3844 c0 -11 3 -14 6 -6 3 7 2 16 -1 19 -3 4 -6 -2 -5 -13z"/>
<path d="M3221 3654 c0 -11 3 -14 6 -6 3 7 2 16 -1 19 -3 4 -6 -2 -5 -13z"/>
<path d="M3251 3474 c0 -11 3 -14 6 -6 3 7 2 16 -1 19 -3 4 -6 -2 -5 -13z"/>
<path d="M2076 3447 c3 -10 9 -15 12 -12 3 3 0 11 -7 18 -10 9 -11 8 -5 -6z"/>
<path d="M2096 3407 c3 -10 9 -15 12 -12 3 3 0 11 -7 18 -10 9 -11 8 -5 -6z"/>
<path d="M4920 3220 c0 -5 5 -10 11 -10 5 0 7 5 4 10 -3 6 -8 10 -11 10 -2 0
-4 -4 -4 -10z"/>
<path d="M4025 3210 c-3 -5 -1 -18 4 -27 9 -16 10 -14 11 10 0 28 -5 34 -15
17z"/>
<path d="M4053 3205 c0 -9 4 -11 11 -6 6 4 18 11 26 14 9 3 5 6 -11 6 -16 1
-26 -4 -26 -14z"/>
<path d="M4107 3177 c10 -15 10 -18 12 -74 0 -25 4 -43 8 -39 4 4 6 22 5 41
-2 28 0 33 13 29 10 -4 14 -13 10 -23 -5 -12 -3 -13 6 -4 9 9 6 18 -12 42 -24
30 -58 53 -42 28z"/>
<path d="M4005 3159 c-4 -6 -5 -12 -2 -15 2 -3 7 2 10 11 7 17 1 20 -8 4z"/>
<path d="M4038 3095 c-4 -20 -2 -23 8 -14 7 6 10 17 7 25 -7 20 -10 18 -15
-11z"/>
<path d="M2555 3064 c0 -29 1 -29 14 -5 8 14 7 20 -2 24 -7 3 -12 -5 -12 -19z"/>
<path d="M2600 3061 c0 -11 3 -22 8 -24 4 -3 7 6 7 19 0 13 -3 24 -7 24 -5 0
-8 -9 -8 -19z"/>
<path d="M4040 2980 c0 -5 5 -10 11 -10 5 0 7 5 4 10 -3 6 -8 10 -11 10 -2 0
-4 -4 -4 -10z"/>
<path d="M1180 2959 c0 -5 5 -7 10 -4 6 3 10 8 10 11 0 2 -4 4 -10 4 -5 0 -10
-5 -10 -11z"/>
<path d="M1130 2951 c0 -17 15 -19 28 -5 11 12 9 14 -8 14 -11 0 -20 -4 -20
-9z"/>
<path d="M4031 2924 c0 -11 3 -14 6 -6 3 7 2 16 -1 19 -3 4 -6 -2 -5 -13z"/>
<path d="M4120 2921 c0 -6 4 -13 10 -16 6 -3 7 1 4 9 -7 18 -14 21 -14 7z"/>
<path d="M6089 2913 c-13 -16 -12 -17 4 -4 9 7 17 15 17 17 0 8 -8 3 -21 -13z"/>
<path d="M1240 2890 c6 -11 12 -20 14 -20 2 0 2 9 -1 20 -3 11 -9 20 -15 20
-5 0 -4 -9 2 -20z"/>
<path d="M4130 2825 c0 -32 2 -56 5 -53 8 8 9 98 1 105 -3 4 -6 -20 -6 -52z"/>
<path d="M4027 2849 c-4 -16 -3 -18 9 -8 7 6 11 15 8 20 -8 13 -11 11 -17 -12z"/>
<path d="M4021 2794 c0 -11 3 -14 6 -6 3 7 2 16 -1 19 -3 4 -6 -2 -5 -13z"/>
<path d="M2396 2777 c3 -10 9 -15 12 -12 3 3 0 11 -7 18 -10 9 -11 8 -5 -6z"/>
<path d="M4020 2733 c0 -21 3 -24 9 -14 5 8 7 20 4 28 -8 21 -13 15 -13 -14z"/>
<path d="M4134 2705 c-3 -8 -4 -20 -2 -27 3 -7 7 -1 10 15 6 29 1 36 -8 12z"/>
<path d="M1173 2650 c0 -30 2 -43 4 -27 2 15 2 39 0 55 -2 15 -4 2 -4 -28z"/>
<path d="M6069 2633 c-13 -16 -12 -17 4 -4 16 13 21 21 13 21 -2 0 -10 -8 -17
-17z"/>
<path d="M4141 2614 c0 -11 3 -14 6 -6 3 7 2 16 -1 19 -3 4 -6 -2 -5 -13z"/>
<path d="M4016 2604 c-5 -14 -4 -15 9 -4 17 14 19 20 6 20 -5 0 -12 -7 -15
-16z"/>
<path d="M1163 2575 c0 -8 4 -12 9 -9 4 3 8 9 8 15 0 5 -4 9 -8 9 -5 0 -9 -7
-9 -15z"/>
<path d="M4132 2577 c-9 -10 -10 -17 -2 -22 15 -9 12 -52 -5 -59 -8 -3 -23 -2
-32 1 -17 6 -17 6 0 -11 15 -15 20 -16 34 -4 15 12 15 11 5 -8 -13 -25 -42
-39 -42 -22 0 9 -3 9 -12 0 -20 -20 -58 -15 -58 8 0 12 7 20 18 20 16 1 16 1
0 11 -28 16 -21 38 15 55 l32 15 -32 -5 c-22 -4 -33 -1 -33 7 0 8 -3 7 -9 -3
-6 -8 -7 -18 -4 -22 2 -5 -1 -16 -9 -25 -7 -9 -8 -14 -3 -11 16 10 11 -52 -5
-62 -22 -14 -37 -12 -44 6 -3 8 -2 13 2 10 4 -2 16 2 26 10 16 11 17 17 8 36
-7 13 -11 16 -11 8 3 -33 -2 -40 -27 -40 -19 0 -25 -4 -20 -15 7 -19 -16 -28
-109 -44 -38 -7 -78 -14 -89 -18 -12 -3 -16 -1 -12 6 9 14 13 14 -64 -9 -74
-23 -84 -24 -75 -10 3 5 -10 3 -30 -6 -35 -14 -37 -14 -56 8 l-21 23 5 -22 c3
-13 2 -23 -3 -23 -4 0 -11 10 -15 23 l-8 22 -4 -23 c-6 -32 3 -52 24 -52 9 0
30 -12 45 -27 15 -15 28 -22 28 -15 0 6 -9 16 -21 22 -11 7 -18 14 -15 18 4 3
96 8 206 11 l200 6 1 -25 1 -25 7 24 c4 17 15 26 34 28 33 5 35 -9 3 -30 -45
-30 -56 -48 -56 -89 0 -48 11 -46 12 1 1 20 5 30 13 27 6 -2 11 5 11 15 -1 11
13 28 32 40 l32 21 0 -35 c0 -45 -9 -69 -23 -60 -6 4 -7 1 -1 -8 4 -8 9 -20
10 -27 3 -16 -33 -35 -49 -26 -6 4 -9 4 -5 -1 9 -9 -9 -35 -23 -35 -5 0 -9 8
-9 17 0 38 -10 2 -15 -53 -11 -130 -16 -151 -38 -163 -22 -11 -22 -11 1 -5 22
5 23 3 17 -28 -3 -18 -7 -50 -9 -70 -1 -21 -4 -39 -7 -41 -14 -11 -398 -65
-449 -64 -14 1 -41 -2 -60 -6 -27 -5 -31 -4 -20 4 12 9 11 10 -5 4 -61 -22
-97 -27 -108 -16 -14 14 -30 15 -22 1 9 -14 -8 -13 -23 2 -9 9 -12 9 -12 -2 0
-28 16 -39 50 -39 19 0 168 3 330 7 162 4 298 5 302 2 13 -10 -42 -333 -60
-354 -11 -12 -12 -16 -3 -11 12 7 13 -1 7 -46 -7 -54 -12 -89 -15 -100 0 -4
-52 -14 -113 -24 -62 -9 -124 -19 -137 -22 -16 -4 -22 -2 -17 5 4 8 -3 8 -26
1 -38 -11 -139 -23 -184 -23 -29 0 -31 -1 -20 -20 6 -12 17 -29 25 -38 11 -14
11 -18 1 -18 -10 0 -9 -5 3 -18 9 -10 20 -32 23 -50 6 -28 5 -30 -17 -25 -20
5 -22 4 -13 -8 6 -8 15 -25 18 -39 6 -22 6 -23 -7 -8 -12 16 -15 15 -40 -8
-25 -23 -27 -23 -27 -5 0 11 6 22 13 24 7 3 5 6 -5 6 -24 1 -23 14 2 36 11 10
18 20 16 22 -2 2 -18 -10 -35 -27 -17 -18 -36 -29 -43 -25 -7 4 -4 -1 6 -9 19
-16 19 -16 -6 -16 -22 0 -25 4 -22 22 2 13 2 17 -2 11 -7 -15 -35 -3 -71 30
-13 11 -23 16 -23 9 0 -10 29 -36 65 -57 16 -10 15 -11 -4 -12 -11 -1 -21 2
-21 8 0 5 -9 9 -19 9 -11 0 -23 5 -26 10 -3 6 -11 10 -17 10 -6 0 -1 -12 13
-26 l24 -26 -28 13 c-15 7 -30 9 -35 4 -4 -4 -2 -10 5 -12 6 -2 21 -13 34 -24
12 -10 25 -19 29 -19 12 0 5 -53 -8 -58 -6 -2 -16 7 -21 20 -9 21 -10 21 -11
3 0 -13 -3 -16 -8 -8 -4 7 -13 9 -21 4 -7 -5 -10 -14 -7 -20 12 -19 -14 -81
-34 -81 -9 0 -25 -10 -33 -23 -12 -16 -16 -18 -16 -6 -1 8 5 21 12 29 6 7 -1
6 -17 -4 -25 -16 -28 -16 -23 -2 4 9 2 15 -6 13 -7 -1 -11 5 -9 14 1 10 -6 19
-18 22 -23 6 -23 6 -10 -28 7 -20 7 -27 -4 -31 -18 -7 -28 -32 -13 -31 43 1
47 -3 42 -35 -4 -18 -9 -34 -13 -36 -4 -1 -6 -23 -4 -50 3 -43 1 -45 -12 -29
-10 13 -21 17 -37 12 -14 -5 -19 -4 -15 4 12 19 -9 12 -27 -9 -18 -22 -23 -35
-8 -26 5 3 14 0 20 -8 13 -16 -4 -34 -39 -41 -12 -2 -31 -7 -43 -10 -15 -4
-18 -3 -9 3 8 5 13 13 11 18 -1 5 8 13 20 19 11 5 21 14 21 19 0 4 -11 1 -25
-8 -14 -9 -25 -12 -25 -7 0 5 -3 17 -7 27 -4 12 -3 15 6 10 7 -5 21 0 32 10
10 9 19 12 19 6 0 -6 7 -9 15 -6 18 7 20 34 3 34 -6 0 -8 3 -5 7 4 4 -11 13
-34 20 -36 13 -43 12 -65 -2 -22 -14 -25 -14 -30 -1 -3 9 1 22 9 31 14 14 14
18 -1 45 -15 26 -17 27 -20 10 -2 -11 -8 -20 -13 -20 -5 0 -7 10 -4 22 6 22 4
23 -50 20 -45 -3 -54 -6 -45 -17 6 -8 32 -21 58 -29 36 -13 47 -13 53 -4 7 10
11 10 21 0 8 -8 9 -12 1 -12 -7 0 -15 -9 -18 -21 -7 -19 -7 -20 -21 -2 -7 10
-14 15 -14 10 0 -4 -15 0 -32 9 -38 19 -37 16 16 -25 24 -20 33 -31 22 -31
-25 0 -19 -28 7 -32 23 -3 39 -48 17 -48 -7 0 -10 7 -6 15 3 10 -1 15 -13 15
-10 0 -30 9 -44 20 -33 26 -47 26 -18 -1 13 -12 20 -27 17 -36 -4 -9 -1 -21 5
-29 8 -10 3 -15 -23 -22 -28 -7 -34 -6 -42 10 -5 10 -15 18 -22 18 -7 0 -14 6
-16 13 -3 6 -16 12 -31 12 -14 1 -23 -3 -21 -7 3 -4 -3 -5 -13 -1 -32 11 -35
15 -22 24 11 7 11 13 -3 36 -9 15 -18 44 -20 63 -3 30 0 35 20 38 30 5 28 20
-5 28 -24 7 -25 8 -8 20 18 13 18 14 -1 35 -18 20 -18 21 1 35 17 13 14 19
-10 14 -5 -1 -1 8 9 19 17 19 17 21 3 21 -14 0 -16 8 -12 45 2 25 0 45 -5 45
-6 0 -10 -13 -10 -30 0 -16 -5 -52 -11 -80 -8 -37 -8 -54 0 -64 13 -15 5 -46
-12 -46 -6 0 -8 -23 -4 -64 5 -51 3 -67 -9 -77 -14 -11 -14 -13 0 -21 9 -5 16
-14 16 -21 0 -7 -4 -6 -10 3 -8 12 -10 10 -10 -9 0 -20 -4 -23 -30 -19 -34 5
-44 -4 -54 -47 -7 -27 -9 -28 -20 -12 -7 9 -18 17 -25 17 -6 0 -11 15 -11 33
0 24 3 28 10 17 8 -13 10 -12 10 3 0 9 5 17 11 17 5 0 7 5 4 11 -4 6 -10 8
-13 4 -3 -3 -12 5 -20 17 -9 16 -12 17 -8 4 4 -10 1 -25 -5 -32 -6 -8 -8 -21
-5 -30 3 -9 3 -21 -1 -27 -4 -6 -12 4 -18 24 l-12 34 -63 -62 c-34 -35 -66
-63 -71 -63 -18 0 -9 20 17 36 16 11 21 20 14 24 -8 5 -7 12 5 24 17 16 10 21
-23 17 -10 -2 -9 6 2 33 8 20 13 36 10 36 -3 0 5 15 17 33 l23 32 -25 -23
c-30 -27 -40 -20 -33 22 4 22 3 27 -4 17 -8 -12 -15 -9 -35 13 -25 27 -27 51
-4 59 7 2 2 3 -10 1 -11 -2 -28 -7 -37 -10 -10 -4 -16 -1 -16 7 0 7 3 10 6 6
8 -8 34 18 34 33 0 6 10 14 22 19 l23 8 -24 8 c-16 5 -26 3 -32 -6 -5 -8 -9
-9 -9 -4 0 6 7 20 15 33 14 19 14 21 1 16 -8 -3 -24 -25 -36 -47 -38 -77 -64
-99 -58 -49 2 19 -1 26 -12 24 -11 -3 -10 1 3 16 30 33 1 35 -31 2 -33 -32
-47 -37 -55 -17 -4 7 -6 6 -6 -4 -1 -25 29 -32 45 -12 10 14 15 15 25 6 7 -7
14 -23 16 -35 2 -18 1 -20 -7 -8 -8 11 -12 12 -18 3 -6 -10 -13 -10 -32 0 -15
8 -35 10 -50 6 -17 -5 -19 -7 -7 -8 10 -1 15 -5 12 -11 -3 -5 1 -10 9 -10 9 0
16 -7 16 -15 0 -8 4 -15 9 -15 5 0 4 -17 -1 -40 -11 -44 -27 -46 -22 -3 2 16
1 21 -2 12 -6 -21 -74 -32 -74 -12 0 7 7 13 16 13 24 0 13 101 -12 111 -16 6
-14 8 8 8 19 1 26 5 22 15 -3 8 0 17 5 21 18 10 2 25 -26 25 -15 0 -36 11 -49
25 -27 29 -12 46 17 19 10 -9 22 -14 27 -10 4 4 -2 14 -12 22 -11 7 -16 17
-13 21 4 3 14 -2 21 -13 8 -10 18 -16 22 -11 4 4 -3 18 -16 32 -26 27 -21 32
13 13 20 -10 21 -10 8 5 -17 21 -50 22 -57 2 -4 -8 -13 -15 -22 -15 -8 0 -39
-20 -68 -44 -48 -39 -117 -67 -131 -52 -3 3 -8 28 -11 56 -3 33 -9 50 -18 50
-8 0 -14 5 -14 11 0 5 4 8 9 5 5 -4 11 0 14 6 3 10 9 10 27 0 12 -7 24 -11 27
-9 2 3 -9 13 -26 23 -33 19 -38 29 -21 39 7 5 8 11 1 19 -7 8 -5 12 9 12 10 0
17 -3 14 -7 -2 -4 2 -9 10 -12 10 -4 12 0 8 15 -4 17 -2 20 11 15 11 -4 17 -1
17 7 0 8 -5 16 -12 18 -18 6 -58 -3 -58 -13 0 -15 -18 -10 -24 7 -9 24 20 52
60 60 19 3 34 12 34 19 0 15 -56 25 -69 12 -13 -13 -31 0 -31 24 0 10 -4 19
-9 19 -5 0 -7 -10 -4 -21 9 -32 -18 -19 -37 17 -8 16 -18 31 -21 34 -3 3 -8
12 -11 20 -10 27 -74 14 -115 -23 l-23 -20 0 51 c0 43 3 52 18 52 14 0 14 2 3
9 -12 8 -12 13 0 33 9 12 30 47 49 76 l33 52 34 -75 c18 -42 33 -78 33 -81 0
-3 -12 8 -26 23 -32 34 -10 -1 24 -39 13 -14 21 -31 18 -36 -5 -9 21 -39 27
-31 2 2 1 29 -1 59 -3 39 -7 49 -12 35 -6 -16 -13 -8 -40 50 -17 39 -36 80
-41 93 -11 27 -25 28 -32 2 -3 -14 -14 -20 -32 -20 -16 0 -24 -4 -20 -10 7
-11 -11 -40 -24 -40 -4 0 -4 28 0 63 5 50 27 108 56 146 1 2 11 -2 20 -10 15
-11 16 -11 6 1 -18 20 -16 30 5 30 13 0 25 -16 40 -53 12 -29 22 -60 22 -69 0
-9 4 -19 10 -23 5 -3 7 -12 3 -20 -3 -8 0 -15 5 -15 6 0 13 -21 15 -47 2 -27
3 -13 2 30 -1 44 -6 82 -12 85 -11 7 -53 98 -53 114 0 5 15 8 33 8 17 -1 86
10 152 24 66 14 129 25 140 23 12 -1 20 4 20 13 0 10 -12 16 -40 18 -22 1 -44
4 -50 6 -16 5 -30 2 -27 -6 3 -12 -16 -9 -23 2 -4 7 -11 7 -18 2 -7 -5 -39 -9
-72 -8 l-60 1 -1 37 c-1 35 0 37 25 32 l26 -6 -25 14 c-22 12 -25 21 -28 78
-3 76 -10 115 -20 105 -4 -4 -7 -12 -7 -18 0 -11 -101 -85 -117 -86 -5 -1 -8
4 -8 10 0 5 6 7 13 3 9 -6 9 -4 -1 7 -6 7 -12 29 -12 49 0 42 29 76 56 66 14
-5 15 -4 5 8 -10 11 -3 19 33 42 44 28 61 64 31 64 -9 0 -12 -6 -8 -15 6 -18
-26 -47 -45 -40 -7 3 -10 1 -7 -5 3 -5 -5 -14 -17 -21 -13 -7 -26 -16 -29 -21
-3 -5 -7 17 -8 50 -2 62 14 90 43 79 9 -4 13 -1 10 6 -9 23 140 111 179 105
14 -2 22 2 22 12 0 9 -11 16 -30 18 -16 2 -40 12 -53 23 -13 10 -28 16 -33 13
-5 -3 -8 0 -7 7 2 7 -5 15 -15 17 -9 2 -17 -1 -17 -7 0 -6 5 -11 11 -11 5 0 7
-5 4 -10 -4 -6 -11 -7 -17 -4 -7 5 -9 1 -5 -9 9 -23 -6 -21 -27 2 -13 15 -14
20 -4 24 7 3 3 6 -8 6 -12 1 -24 -6 -27 -13 -4 -10 -1 -13 7 -10 7 3 19 -2 26
-11 11 -13 9 -15 -13 -15 -32 0 -39 20 -28 83 2 13 18 7 45 -18 26 -24 34 -22
16 5 -5 8 -15 15 -22 15 -7 1 -12 7 -10 14 1 7 -2 9 -9 5 -6 -3 -14 -1 -18 5
-5 8 -13 6 -27 -5 -10 -8 -13 -12 -6 -9 10 5 12 -4 10 -41 -2 -37 -7 -50 -21
-52 -19 -4 -24 24 -5 30 9 3 8 9 -5 22 -16 17 -17 17 -18 -1 -4 -59 -2 -57
-52 -61 -26 -2 -47 0 -47 4 0 4 14 20 31 36 17 16 29 32 26 34 -2 3 -25 -16
-50 -41 -36 -35 -53 -45 -79 -45 -28 0 -102 -18 -188 -45 -14 -4 -20 -3 -17 2
4 6 -14 3 -38 -5 -44 -14 -80 -11 -139 14 -14 5 -17 4 -11 -5 4 -8 -4 -6 -19
4 -26 17 -26 17 -18 -6 15 -39 60 -44 352 -34 l174 7 -18 -21 c-10 -11 -27
-23 -37 -26 -11 -4 -19 -16 -19 -27 0 -18 2 -18 29 8 57 56 67 63 89 61 18 -1
22 -7 22 -37 0 -38 -39 -88 -58 -76 -6 3 -13 -1 -16 -9 -4 -11 -13 -14 -33 -9
-16 4 -30 10 -33 13 -3 3 -12 7 -20 9 -8 2 -44 16 -79 33 -66 30 -91 36 -91
19 0 -11 65 -45 153 -80 47 -19 55 -25 46 -37 -10 -11 -14 -11 -20 -2 -5 8
-10 -1 -14 -24 -5 -24 -13 -37 -24 -38 -10 0 -11 -2 -3 -6 6 -2 12 -17 13 -31
0 -19 5 -12 16 26 12 40 23 57 44 68 16 8 34 13 40 12 6 -2 14 3 17 11 3 10 0
11 -9 5 -12 -6 -12 -5 0 10 8 9 20 15 28 12 8 -3 11 -2 8 3 -3 5 -1 12 4 15
25 16 20 -97 -6 -126 -14 -16 -14 -18 -1 -13 12 5 14 -1 11 -37 -3 -23 -10
-46 -16 -50 -9 -6 -9 -8 1 -8 6 0 12 -9 12 -20 0 -27 -14 -25 -30 5 -7 14 -17
25 -22 25 -14 0 -9 -17 6 -23 16 -6 39 -78 34 -105 -2 -9 -12 -17 -23 -18 -11
-1 -46 -4 -79 -8 l-58 -8 18 26 c11 14 25 26 32 26 7 0 11 4 8 9 -3 4 3 16 14
26 19 17 26 12 21 -17 0 -5 4 -8 9 -8 9 0 4 47 -6 59 -1 2 -17 -13 -34 -33
-28 -32 -71 -52 -55 -26 3 6 1 10 -4 10 -6 0 -11 -6 -11 -14 0 -8 -6 -17 -12
-20 -7 -3 1 -4 17 -1 l30 6 -25 -20 c-13 -11 -38 -22 -55 -24 -16 -3 -74 -12
-128 -21 -54 -9 -102 -14 -106 -11 -5 2 -23 0 -42 -6 -59 -17 -130 -24 -236
-23 -78 1 -100 -2 -96 -12 9 -25 14 -25 430 -9 182 7 191 7 196 -11 4 -17 5
-17 6 -1 1 12 10 17 32 17 l31 0 -33 -41 c-28 -36 -34 -39 -39 -23 -5 14 -8
11 -13 -15 -10 -47 -9 -51 8 -51 8 0 12 6 9 14 -6 17 73 111 94 111 15 0 34
-43 46 -105 6 -31 5 -33 -7 -17 -17 21 -37 22 -37 2 0 -9 -7 -18 -15 -21 -8
-3 -40 -37 -71 -76 -42 -52 -59 -67 -65 -57 -7 11 -9 9 -9 -5 0 -11 -8 -28
-18 -39 -9 -11 -12 -17 -5 -14 6 4 14 1 16 -5 4 -10 6 -10 6 0 1 6 9 12 19 12
12 0 14 2 4 8 -12 8 13 41 108 145 6 7 51 -115 55 -152 1 -9 5 -24 9 -33 4 -9
5 -21 2 -27 -3 -5 -1 -11 6 -13 18 -6 -5 -55 -25 -55 -9 0 -27 21 -41 46 -27
50 -22 81 14 81 11 0 20 5 20 10 0 22 -31 8 -73 -32 -113 -109 -120 -112 -113
-52 l5 49 -12 -45 c-15 -57 -24 -70 -42 -63 -8 3 -15 0 -15 -7 0 -6 -4 -9 -10
-5 -5 3 -45 -3 -89 -15 -96 -24 -97 -24 -80 -3 12 14 10 14 -14 -2 -39 -25
-127 -44 -179 -38 -38 4 -45 2 -45 -12 0 -16 8 -17 76 -10 135 12 141 12 141
-1 0 -14 20 -23 38 -17 18 7 15 21 -5 26 -10 3 25 5 78 6 53 0 99 -2 103 -6 3
-4 29 -6 56 -4 28 1 50 0 50 -4 0 -16 -57 -75 -72 -75 -21 0 -33 18 -30 45 2
17 1 17 -8 -2 -11 -28 -16 -28 -75 -3 -53 23 -79 26 -73 8 2 -6 31 -21 63 -33
33 -13 61 -27 63 -33 2 -6 10 -8 17 -6 31 12 34 -8 8 -46 -14 -22 -28 -40 -30
-40 -3 0 -2 17 2 38 13 70 -3 27 -45 -123 -23 -82 -46 -155 -51 -161 -5 -6 -6
-14 -2 -17 3 -4 0 -14 -8 -23 -7 -9 -14 -23 -15 -31 -3 -18 -24 -42 -24 -27 0
5 -9 10 -19 11 -13 1 -18 -3 -14 -13 3 -7 -2 -17 -11 -20 -9 -3 -16 -11 -16
-16 0 -6 6 -8 14 -5 8 3 17 -1 20 -9 8 -21 8 -24 -5 -24 -5 0 -8 4 -5 9 9 15
-43 19 -55 5 -6 -8 -15 -12 -19 -9 -5 3 -6 -5 -3 -16 6 -20 7 -20 18 -5 15 20
29 21 21 1 -4 -11 1 -15 19 -15 16 0 25 -6 25 -15 0 -8 -4 -15 -10 -15 -5 0
-10 -9 -10 -19 0 -11 -25 -72 -55 -136 -47 -101 -57 -116 -70 -105 -12 10 -15
10 -15 -4 0 -19 -13 -20 -41 -6 -17 10 -18 13 -5 32 8 11 12 27 9 34 -7 19
-21 18 -19 -2 0 -9 -5 -19 -11 -21 -20 -7 -15 21 7 44 12 14 15 23 8 25 -7 3
-9 14 -4 31 3 15 11 25 16 22 10 -6 12 -1 14 28 1 6 9 20 19 29 10 9 19 30 19
47 1 17 5 31 10 31 4 0 8 7 8 15 0 8 5 15 11 15 6 0 9 7 6 15 -5 11 -1 12 17
5 24 -9 36 -5 36 12 0 5 -9 7 -19 3 -11 -3 -22 -1 -26 5 -5 8 -14 4 -27 -10
-13 -13 -26 -19 -39 -15 -11 4 -19 2 -19 -4 0 -6 -8 -11 -17 -12 -10 0 -13 -3
-6 -5 16 -7 5 -34 -14 -34 -13 0 -13 3 -3 15 7 8 9 15 5 15 -4 0 -2 7 5 15 10
12 10 15 0 15 -9 0 -9 4 1 17 13 15 12 15 -8 5 -12 -7 -25 -21 -28 -32 -9 -28
-29 -25 -42 7 -11 27 -11 27 -10 4 2 -20 -3 -25 -23 -25 -14 0 -35 6 -47 12
-25 14 -33 -1 -9 -15 18 -11 38 -51 31 -63 -3 -6 -15 -5 -30 2 -13 6 -22 15
-19 19 3 5 1 9 -5 9 -5 0 -15 -8 -20 -18 -10 -16 -10 -16 -11 1 0 26 -15 21
-29 -10 -10 -22 -14 -24 -22 -12 -7 12 -9 11 -9 -3 0 -10 -4 -18 -10 -18 -6 0
-10 -63 -10 -170 l0 -170 1376 0 c1298 0 1378 1 1390 18 13 16 13 16 14 0 0
-21 26 -24 33 -5 4 9 6 9 6 0 1 -9 23 -13 77 -13 67 0 76 2 81 20 6 22 18 26
28 10 3 -5 1 -10 -4 -10 -6 0 -11 -4 -11 -10 0 -15 1107 -13 1113 3 4 9 6 9 6
0 1 -10 217 -13 1006 -13 l1005 0 0 240 0 240 -24 0 c-14 0 -28 5 -32 11 -4 8
3 9 25 4 18 -4 31 -3 31 3 0 6 -18 13 -40 17 -39 7 -40 8 -40 46 0 24 4 38 10
34 6 -3 10 -1 10 4 0 6 -5 11 -12 11 -6 0 -2 9 10 20 12 11 30 20 42 20 11 0
20 5 20 10 0 6 -9 10 -19 10 -11 0 -22 4 -25 8 -7 12 24 53 35 47 5 -4 9 10 9
30 0 33 -2 36 -21 30 -40 -13 -104 -51 -102 -61 2 -11 -53 -18 -68 -8 -12 7
38 64 55 64 6 0 11 11 11 25 0 19 -4 23 -17 19 -24 -7 -23 8 2 24 21 13 27 32
10 32 -5 0 -10 -6 -10 -14 0 -8 -8 -17 -19 -21 -10 -3 -27 -21 -37 -40 -19
-36 -44 -47 -44 -20 0 8 5 15 11 15 6 0 8 17 5 48 -3 26 -3 38 0 27 3 -11 10
-24 15 -29 13 -14 12 21 -2 45 -11 22 -3 63 12 54 5 -4 9 -1 9 6 0 7 2 10 5 7
9 -8 -6 -38 -16 -32 -5 3 -9 0 -9 -6 0 -7 7 -10 15 -6 8 3 19 -2 24 -12 6 -9
11 -12 11 -6 0 5 -6 16 -12 23 -11 12 -9 13 7 7 15 -6 17 -4 8 5 -6 6 -9 18
-6 26 5 12 7 12 14 1 5 -7 9 -8 9 -3 0 30 -17 36 -51 18 -19 -10 -36 -21 -37
-26 -7 -14 -33 -37 -43 -37 -6 0 -7 6 -3 13 4 7 3 9 -2 4 -5 -5 -10 -13 -10
-18 -1 -5 -2 -13 -3 -18 0 -5 -9 -11 -18 -15 -10 -3 -24 -9 -32 -12 -10 -5
-13 -1 -8 15 4 18 2 21 -14 16 -15 -5 -18 -3 -12 12 6 16 5 16 -10 4 -15 -12
-17 -12 -11 3 8 21 -5 21 -22 -2 -8 -10 -13 -12 -14 -4 0 6 -6 12 -14 12 -8 0
-21 6 -28 13 -7 6 -22 12 -33 12 -12 0 -21 8 -24 20 -3 19 -2 19 15 4 32 -27
43 -11 15 20 -16 18 -30 26 -36 20 -6 -6 -18 1 -33 18 -16 18 -26 24 -29 16
-6 -15 -49 -17 -58 -3 -4 6 5 10 19 10 14 0 26 5 26 11 0 13 -39 2 -62 -19
-12 -9 -18 -11 -18 -4 0 7 -3 11 -7 11 -23 -4 -35 3 -30 15 3 8 3 17 0 20 -10
10 -33 -15 -33 -35 0 -11 -4 -19 -10 -19 -5 0 -10 10 -10 21 0 17 -3 19 -13
10 -10 -8 -17 -7 -25 1 -9 9 -12 8 -12 -6 0 -9 -4 -14 -10 -11 -5 3 -10 16
-10 28 -1 21 -1 21 -12 3 -8 -15 -7 -25 6 -46 9 -16 16 -35 16 -44 0 -10 8
-16 21 -16 14 0 19 -5 16 -14 -4 -9 7 -29 24 -47 28 -30 30 -31 54 -15 22 15
30 15 73 3 34 -11 47 -19 45 -32 -1 -12 2 -14 9 -7 8 8 19 7 39 -4 37 -18 36
-22 -1 -16 -32 5 -39 -8 -15 -28 11 -9 15 -9 15 -1 0 7 5 9 10 6 6 -4 4 -13
-6 -22 -15 -15 -14 -17 7 -26 13 -6 35 -12 49 -14 14 -2 29 -8 34 -13 13 -13
-22 -24 -37 -12 -8 7 -18 6 -32 -4 -19 -14 -19 -16 -2 -28 25 -19 21 -26 -14
-26 -16 0 -28 -4 -25 -8 3 -5 -1 -9 -9 -9 -7 0 -19 12 -26 26 l-12 26 -6 -30
c-5 -24 -8 -26 -13 -13 -4 10 -18 18 -32 18 -18 0 -25 -7 -29 -27 -5 -29 11
-52 32 -45 8 3 11 0 7 -6 -3 -6 -2 -13 4 -17 5 -3 10 0 11 7 0 7 5 2 12 -12
l11 -25 4 32 c3 30 24 49 43 37 5 -3 12 -23 15 -46 l7 -40 13 31 c15 35 33 41
36 11 4 -48 2 -55 -12 -56 -37 -4 -62 -19 -71 -41 -7 -20 -12 -22 -29 -13 -11
6 -20 18 -20 26 0 8 5 12 10 9 14 -9 12 19 -2 33 -17 17 -45 15 -52 -4 -3 -9
-12 -14 -19 -11 -11 4 -13 9 -16 50 -1 19 -37 24 -43 6 -3 -9 -9 -9 -25 -1
-17 9 -26 8 -44 -7 -24 -18 -54 -20 -71 -3 -6 6 3 12 23 16 40 8 59 23 59 47
0 11 4 19 9 19 5 0 8 8 7 18 -3 20 -33 29 -49 13 -17 -17 -29 -13 -18 7 6 10
6 24 1 32 -5 8 -6 18 -3 23 3 5 9 3 14 -4 7 -11 9 -11 9 1 -1 17 -68 52 -76
39 -3 -5 -16 -9 -29 -9 -13 0 -28 -7 -32 -15 -6 -10 -29 -17 -62 -21 -56 -5
-91 -18 -91 -34 0 -10 66 -2 94 12 13 7 21 6 26 -2 4 -7 13 -9 19 -6 6 4 11 0
11 -8 0 -9 6 -16 13 -16 6 0 -1 -7 -17 -15 -15 -8 -35 -15 -43 -15 -8 0 -13
-6 -10 -12 2 -7 10 -12 16 -10 6 1 11 -3 11 -10 0 -6 3 -8 6 -5 4 3 15 2 26
-4 20 -11 20 -11 -1 -25 -12 -9 -21 -18 -21 -22 0 -15 49 -11 58 4 8 14 10 14
22 -1 7 -8 10 -19 6 -22 -4 -4 -11 -1 -16 7 -8 13 -10 12 -10 -2 0 -10 -5 -18
-11 -18 -5 0 -7 -5 -4 -10 4 -6 11 -8 16 -4 6 3 5 -3 -3 -15 -7 -12 -17 -21
-22 -21 -6 0 -1 -6 10 -14 10 -8 16 -18 12 -21 -4 -4 -3 -17 3 -28 8 -14 8
-18 0 -13 -6 4 -14 0 -17 -8 -4 -10 -17 -14 -40 -12 -23 2 -33 -1 -30 -9 2 -7
-20 -34 -51 -61 -41 -37 -62 -49 -87 -49 -32 0 -32 0 -25 38 6 35 5 38 -12 34
-23 -6 -26 8 -3 17 8 3 13 10 9 15 -3 6 2 14 11 19 9 5 16 13 16 18 3 35 50
59 61 32 4 -9 6 -10 6 -1 1 18 -27 42 -46 38 -10 -2 -22 -4 -28 -4 -5 -1 -4
-5 3 -9 7 -5 10 -16 6 -25 -3 -9 -10 -14 -16 -11 -5 3 -12 -3 -15 -15 -3 -11
-9 -18 -14 -15 -5 3 -6 -2 -3 -10 7 -19 -9 -21 -28 -4 -14 14 -36 18 -110 22
-47 3 -47 2 -41 -26 6 -28 -5 -36 -23 -18 -6 6 -19 12 -30 14 -27 5 -94 46
-94 57 0 5 -11 9 -25 9 -29 0 -34 20 -6 27 24 6 35 47 20 74 -14 27 4 50 23
31 7 -7 16 -12 21 -12 6 0 -2 11 -17 25 -29 26 -32 35 -14 35 6 0 19 7 28 15
16 14 17 14 13 -10 -3 -14 -10 -22 -16 -18 -6 3 -7 1 -3 -5 10 -17 26 -15 26
3 0 8 7 15 15 15 11 0 12 5 5 24 -5 13 -6 27 -3 30 4 3 0 6 -9 6 -19 0 -49
-26 -73 -63 -26 -40 -29 -27 -11 43 20 75 20 75 1 60 -8 -7 -15 -19 -15 -26 0
-9 -10 -14 -27 -13 -25 0 -26 1 -8 9 l20 9 -20 0 c-15 1 -17 3 -7 10 11 7 11
9 -2 14 -9 4 -16 2 -16 -4 0 -5 -6 -9 -14 -7 -8 2 -15 -1 -15 -7 0 -5 8 -9 17
-7 15 2 15 1 2 -7 -12 -9 -13 -11 -1 -11 8 0 12 -3 9 -6 -16 -15 -47 23 -53
65 -3 25 -17 106 -31 180 -33 182 -33 176 20 190 25 6 65 11 90 11 43 0 45 -1
50 -32 11 -68 18 -151 17 -206 0 -64 14 -96 44 -99 17 -1 16 2 -8 23 -15 13
-24 24 -18 24 6 0 8 7 5 15 -4 8 -1 15 6 15 9 0 10 3 1 13 -9 12 -30 162 -31
225 0 36 55 29 135 -17 37 -22 93 -50 124 -62 31 -12 65 -29 76 -38 13 -10 16
-11 8 -1 -23 25 -14 34 11 11 24 -23 25 -23 19 -2 -3 11 -1 21 4 21 5 0 9 -10
10 -21 3 -29 8 -32 32 -19 25 13 51 3 30 -12 -10 -6 -7 -7 10 -3 15 5 21 3 17
-3 -3 -6 -1 -14 5 -18 8 -4 9 -3 5 4 -4 7 -1 12 6 12 7 0 0 9 -17 20 -16 11
-36 18 -42 15 -7 -2 -13 0 -13 5 0 5 -7 6 -17 3 -10 -4 -14 -2 -10 4 9 15 -20
36 -39 29 -9 -4 -57 13 -112 39 -53 25 -102 43 -110 40 -8 -3 -10 0 -6 6 4 7
-1 9 -15 4 -16 -5 -20 -3 -15 9 4 11 -2 19 -20 26 -16 6 -26 17 -26 30 0 16
-7 20 -37 20 -50 0 -220 72 -238 99 -5 9 -12 64 -30 221 -3 30 -10 84 -14 120
-5 36 -5 69 -1 73 8 9 150 24 275 29 l80 3 11 -124 c6 -69 10 -134 9 -146 -3
-25 20 -61 30 -46 3 6 4 15 1 20 -7 10 -14 54 -21 131 -3 30 -8 81 -12 113 -5
54 -4 57 16 57 12 0 32 -5 43 -11 15 -8 19 -8 14 0 -4 6 -2 11 3 11 6 0 11 -6
11 -14 0 -16 29 -35 142 -95 52 -27 78 -36 82 -28 3 8 10 5 21 -8 17 -20 17
-20 10 4 -6 20 -5 23 11 17 18 -6 18 -6 1 8 -11 8 -25 12 -32 10 -7 -3 -50 14
-95 38 -122 64 -134 70 -148 85 -7 7 -19 13 -26 13 -7 0 -21 8 -30 19 -15 16
-15 19 -1 24 16 7 21 57 5 57 -5 0 -10 -7 -10 -15 0 -9 -9 -15 -22 -14 -13 0
-17 3 -10 6 6 2 12 9 12 14 0 15 -29 -2 -32 -19 -2 -12 -13 -17 -35 -17 -17 0
-29 3 -27 6 4 7 -115 43 -121 37 -2 -2 7 -13 20 -24 13 -12 27 -19 30 -16 3 3
5 0 5 -6 0 -7 -16 -13 -37 -13 -21 -1 -69 -3 -106 -4 -45 -2 -69 1 -72 8 -2 7
-6 24 -9 39 -5 23 -4 26 11 21 16 -6 17 -5 3 11 -13 17 -12 18 5 14 11 -2 19
-10 17 -17 -1 -7 2 -10 7 -7 5 4 16 -3 24 -15 12 -17 19 -19 34 -10 14 8 14
10 3 11 -8 0 -35 16 -59 35 -24 19 -48 35 -52 35 -5 0 -8 3 -7 8 4 16 -15 213
-21 216 -3 2 -5 -16 -4 -40 2 -42 1 -44 -20 -33 -20 9 -20 9 2 -9 21 -17 22
-20 6 -25 -9 -4 -22 -4 -27 0 -6 3 -8 1 -5 -4 4 -6 0 -16 -8 -23 -13 -10 -15
-8 -15 13 0 14 -3 32 -6 41 -4 11 0 16 12 16 12 0 15 3 8 8 -20 13 -25 59 -8
73 13 10 17 10 26 -2 8 -11 9 -11 4 4 -5 15 4 22 27 18 4 0 7 20 7 46 0 46
-11 54 -16 10 -1 -12 -3 -25 -3 -28 -1 -3 -14 -15 -31 -27 l-30 -23 0 40 c0
34 3 39 18 35 16 -5 16 -5 0 9 -21 16 -24 63 -5 70 7 3 4 6 -6 6 -10 1 -15 6
-12 11 10 17 23 11 31 -12 l7 -23 9 25 c10 24 10 24 18 5 8 -20 9 -19 9 1 1
29 50 42 223 57 107 10 138 10 142 1 3 -7 8 -68 11 -136 7 -127 20 -187 38
-169 5 5 6 15 1 23 -10 15 -9 13 -23 140 -16 146 -15 160 12 158 38 -4 57 0
57 9 0 5 -9 12 -19 16 -17 5 -18 10 -10 38 13 46 11 52 -10 33 -17 -16 -18
-16 -14 7 9 44 -15 40 -27 -4 l-11 -42 -62 6 c-39 4 -54 2 -42 -3 23 -10 22
-10 -20 -15 -16 -2 -65 -7 -107 -12 -53 -6 -79 -6 -81 2 -2 6 -10 5 -20 -4 -9
-7 -24 -11 -32 -7 -17 6 -21 46 -5 46 6 0 10 5 10 11 0 5 -4 7 -10 4 -5 -3
-10 -1 -10 4 0 6 -7 11 -15 11 -8 0 -15 5 -15 11 0 12 30 4 70 -17 16 -8 19
-14 10 -14 -8 -1 -2 -6 14 -11 38 -11 43 -6 19 18 -21 21 -98 47 -113 38 -6
-3 -10 -1 -10 4 0 6 -6 11 -14 11 -8 0 -16 7 -18 17 -3 15 -4 15 -16 0z m49
-56 c7 -16 17 -27 21 -25 4 3 8 -6 8 -20 0 -21 -5 -26 -24 -26 -31 0 -42 28
-19 47 10 8 12 12 6 8 -7 -3 -13 -2 -13 4 0 5 -3 16 -6 25 -11 29 14 17 27
-13z m249 -93 c0 -4 -17 -8 -37 -7 -26 0 -32 3 -20 8 24 9 57 9 57 -1z m105 7
c-23 -8 -83 -10 -79 -3 3 4 24 8 47 7 23 0 38 -2 32 -4z m-360 -15 c3 -5 1
-10 -4 -10 -6 0 -11 5 -11 10 0 6 2 10 4 10 3 0 8 -4 11 -10z m35 0 c0 -5 -4
-10 -10 -10 -5 0 -10 5 -10 10 0 6 5 10 10 10 6 0 10 -4 10 -10z m-216 -16 c5
-12 2 -15 -10 -10 -8 3 -20 6 -25 6 -6 0 -7 5 -4 10 10 15 32 12 39 -6z m43
-1 c-9 -9 -19 -14 -23 -11 -10 10 6 28 24 28 15 0 15 -1 -1 -17z m72 11 c37
-8 41 -29 6 -38 -36 -9 -50 2 -28 21 10 8 1 5 -19 -7 -40 -23 -49 -18 -21 12
18 20 19 20 62 12z m171 -4 c0 -5 -11 -10 -25 -10 -14 0 -25 5 -25 10 0 6 11
10 25 10 14 0 25 -4 25 -10z m-362 -22 c-3 -22 -6 -23 -133 -24 -71 -1 -120 0
-109 3 29 6 227 41 237 42 5 1 7 -9 5 -21z m56 -20 c-5 -8 -34 -11 -34 -4 0 2
-3 11 -6 20 -5 13 -2 13 19 3 14 -6 23 -15 21 -19z m226 22 c0 -5 -9 -10 -21
-10 -11 0 -17 5 -14 10 3 6 13 10 21 10 8 0 14 -4 14 -10z m-56 -47 c5 -11 1
-22 -10 -30 -21 -15 -38 -17 -29 -4 3 5 1 12 -4 15 -5 4 -8 -2 -6 -11 2 -10 4
-22 4 -26 1 -5 6 -5 11 -2 17 11 11 -7 -7 -21 -25 -19 -38 -17 -22 3 9 12 3
10 -18 -5 -18 -13 -32 -26 -32 -30 3 -18 -2 -22 -14 -10 -8 8 -11 32 -9 66 3
42 7 53 20 51 10 -1 28 3 42 9 37 16 67 14 74 -5z m6 -124 c0 -61 -13 -68 -70
-39 -41 21 -41 22 -24 41 17 19 17 20 -1 13 -13 -5 -16 -4 -11 5 4 6 15 10 24
7 10 -3 28 3 42 14 13 10 28 16 32 14 4 -3 8 -28 8 -55z m-3052 19 c-3 -7 -14
-14 -26 -16 -12 -2 -20 -7 -17 -12 3 -5 -3 -8 -12 -8 -10 0 -74 -2 -143 -5
-93 -4 -114 -2 -80 5 25 5 61 14 80 19 37 10 87 8 109 -5 7 -4 15 -5 19 -1 3
3 0 10 -8 15 -10 6 -6 10 16 13 56 8 66 7 62 -5z m97 2 c3 -5 12 -10 18 -10 7
0 6 4 -3 11 -12 8 -10 9 10 7 14 -2 26 -10 28 -20 3 -15 -4 -18 -42 -18 -32 0
-46 4 -46 13 0 25 23 36 35 17z m97 -12 c-7 -7 -12 -8 -12 -2 0 6 3 14 7 17 3
4 9 5 12 2 2 -3 -1 -11 -7 -17z m-142 -3 c0 -8 -6 -15 -14 -15 -20 0 -29 17
-14 23 22 9 28 7 28 -8z m90 -35 c0 -5 -6 -10 -13 -10 -7 0 -24 -11 -39 -25
-28 -26 -35 -24 -34 10 1 14 10 22 31 26 46 10 55 10 55 -1z m-100 -26 c0 -16
-4 -23 -11 -18 -7 4 -7 -1 1 -16 10 -18 9 -24 -7 -36 -23 -17 -37 -18 -27 -2
5 7 8 30 7 51 -1 29 2 37 13 33 8 -3 14 -1 14 4 0 6 2 10 5 10 3 0 5 -12 5
-26z m2919 6 c21 -10 41 -16 45 -13 3 4 6 3 6 -1 0 -4 -15 -21 -32 -38 l-33
-32 37 27 c39 29 48 32 48 18 0 -5 -22 -23 -50 -41 -27 -18 -50 -34 -50 -37 0
-5 13 2 67 39 23 15 44 28 48 28 3 0 5 -31 4 -69 -2 -67 -3 -69 -24 -61 -12 4
-42 21 -68 37 -41 27 -44 31 -31 46 8 9 9 12 2 7 -23 -19 -28 -10 -28 50 0 35
4 60 10 60 6 0 28 -9 49 -20z m-69 -40 c0 -27 -5 -43 -15 -46 -10 -4 -12 -10
-6 -18 5 -6 9 -32 9 -58 1 -45 0 -48 -24 -48 -14 0 -23 -4 -20 -9 3 -5 15 -7
26 -4 26 7 26 -14 1 -44 -22 -26 -36 -30 -27 -8 3 9 -3 19 -14 25 -16 8 -18 8
-14 -4 6 -17 -12 -56 -27 -56 -22 0 16 107 41 115 10 3 23 12 30 20 16 20 -14
14 -38 -8 -26 -24 -34 -21 -28 11 2 15 7 44 11 64 4 29 9 36 23 32 16 -5 16
-5 0 9 -16 13 -15 16 20 39 20 15 40 26 45 27 4 1 7 -17 7 -39z m-2850 -65 c0
-14 -4 -25 -9 -25 -5 0 -7 -10 -3 -22 3 -13 1 -19 -5 -15 -6 4 -13 -3 -16 -14
-4 -15 -2 -19 8 -15 11 4 13 -7 10 -52 -6 -85 -9 -99 -30 -124 -11 -13 -13
-17 -5 -10 19 16 30 15 30 -4 0 -10 -7 -14 -22 -12 -22 3 -23 7 -20 73 3 46 9
76 20 88 15 17 15 17 -3 11 -14 -6 -16 -4 -10 7 5 7 8 31 6 52 -3 38 19 87 39
87 6 0 10 -11 10 -25z m3110 -71 c0 -26 -5 -44 -11 -44 -8 0 -7 -6 2 -17 8
-10 -5 -2 -28 17 -24 18 -43 39 -43 47 0 15 60 54 72 47 4 -3 8 -25 8 -50z
m-182 9 c33 -20 42 -29 29 -31 -9 -2 -17 -7 -17 -11 0 -8 -74 -61 -85 -61 -2
0 -4 11 -3 24 2 17 7 22 20 18 10 -2 18 1 18 7 0 6 -9 11 -20 11 -15 0 -20 7
-20 28 0 51 13 53 78 15z m83 -50 c1 -5 3 -36 4 -71 3 -75 -3 -80 -110 -81
l-67 0 5 35 c3 20 16 45 29 55 13 11 37 30 53 44 28 23 83 34 86 18z m56 -35
c1 -12 -5 -18 -18 -18 -12 0 -19 7 -19 19 0 25 36 24 37 -1z m-2927 -58 c0
-46 -3 -60 -14 -60 -8 0 -18 5 -21 10 -4 6 -10 8 -15 5 -12 -7 -60 16 -60 28
0 6 2 8 5 5 3 -3 24 12 47 34 23 21 45 38 50 38 4 0 8 -27 8 -60z m2912 5 c-2
-14 -8 -25 -13 -25 -10 0 -12 34 -2 43 13 14 20 6 15 -18z m35 19 c-3 -4 0
-22 8 -41 l15 -34 -28 3 c-22 2 -27 7 -24 28 3 37 10 50 23 50 7 0 10 -3 6 -6z
m32 -26 c0 -28 -2 -30 -9 -13 -12 28 -12 45 0 45 6 0 10 -15 9 -32z m-289 -23
c0 -39 -14 -47 -24 -12 -9 35 -7 47 9 47 10 0 15 -11 15 -35z m-40 6 c18 -35
12 -51 -20 -51 -36 0 -37 6 -7 39 12 14 14 19 5 12 -17 -13 -26 -2 -11 12 11
12 22 8 33 -12z m-46 -7 c3 -8 2 -12 -4 -9 -6 3 -10 10 -10 16 0 14 7 11 14
-7z m656 0 c0 -2 -7 -4 -15 -4 -8 0 -15 4 -15 10 0 5 7 7 15 4 8 -4 15 -8 15
-10z m-3355 -18 c16 -12 17 -16 6 -30 -14 -17 -46 -22 -54 -8 -6 10 10 52 21
52 4 0 17 -6 27 -14z m70 -33 c0 -6 4 -15 9 -20 5 -5 6 -3 2 5 -4 6 -2 12 3
12 6 0 11 -20 11 -46 0 -53 -11 -51 -30 6 -7 23 -17 43 -22 46 -13 8 -8 -20 7
-40 27 -36 19 -46 -38 -46 -30 0 -57 3 -60 7 -10 10 86 94 103 91 8 -2 15 -8
15 -15z m3302 3 c4 -5 -3 -6 -17 -2 -14 3 -19 3 -12 0 23 -11 1 -24 -41 -24
-48 0 -80 15 -59 28 16 11 118 9 129 -2z m71 1 c20 -1 14 -17 -7 -17 -29 0
-52 11 -45 22 3 5 13 6 23 2 9 -3 22 -7 29 -7z m-470 -28 l2 -30 -57 2 c-32 1
-71 -2 -88 -6 -23 -5 -26 -4 -15 4 13 9 12 11 -3 11 -10 0 -15 5 -12 10 4 6
10 8 15 5 5 -3 15 2 24 10 12 12 28 14 68 10 39 -5 49 -4 38 4 -13 9 -12 11 5
11 16 0 21 -7 23 -31z m67 21 c3 -5 1 -10 -4 -10 -6 0 -11 5 -11 10 0 6 2 10
4 10 3 0 8 -4 11 -10z m129 -5 c-4 -8 -11 -12 -16 -9 -6 4 -5 10 3 15 19 12
19 11 13 -6z m46 0 c-7 -8 -20 -14 -29 -14 -12 1 -11 2 3 6 15 4 16 7 5 14
-10 6 -8 9 10 9 20 0 21 -2 11 -15z m-140 -5 c0 -5 -2 -10 -4 -10 -3 0 -8 5
-11 10 -3 6 -1 10 4 10 6 0 11 -4 11 -10z m60 -19 c0 -17 -35 -4 -38 13 -3 15
-1 16 17 6 12 -6 21 -15 21 -19z m-385 7 c-11 -6 -32 -19 -47 -30 -30 -21 -40
-14 -27 20 7 18 16 22 51 22 37 -1 40 -2 23 -12z m642 6 c-3 -3 -12 -4 -19 -1
-8 3 -5 6 6 6 11 1 17 -2 13 -5z m-3457 -29 c0 -31 -10 -31 -33 0 -18 25 -18
25 8 25 20 0 25 -5 25 -25z m40 21 c0 -2 -7 -9 -15 -16 -12 -10 -15 -10 -15 4
0 9 7 16 15 16 8 0 15 -2 15 -4z m2690 -8 c-1 -32 -18 -34 -215 -35 -197 -1
-203 4 -25 23 36 3 85 10 110 14 74 13 130 11 130 -2z m354 6 c16 -6 12 -24
-5 -24 -6 0 -8 4 -5 9 4 5 0 12 -6 14 -7 3 -10 6 -6 6 3 1 13 -2 22 -5z m223
0 c-3 -3 -12 -4 -19 -1 -8 3 -5 6 6 6 11 1 17 -2 13 -5z m-482 -23 c-3 -6 -11
-11 -17 -11 -6 0 -6 6 2 15 14 17 26 13 15 -4z m-2856 -10 c11 -20 5 -31 -16
-31 -7 0 -13 11 -13 25 0 29 15 33 29 6z m3717 -18 c-6 -6 -46 20 -46 30 0 4
11 0 25 -9 14 -9 24 -19 21 -21z m-527 -25 c1 -5 -3 -8 -8 -8 -11 0 -21 37
-13 45 6 5 20 -19 21 -37z m-179 24 c0 -16 -81 -117 -100 -124 -11 -4 -18 -15
-17 -27 1 -20 1 -20 22 -1 12 11 30 20 41 21 18 0 18 1 1 8 -17 6 -15 12 22
59 25 31 49 52 61 52 11 0 20 5 20 11 0 5 5 7 11 3 8 -5 8 -9 -1 -14 -9 -5 -9
-9 -1 -14 6 -4 11 -21 11 -37 0 -17 -4 -28 -9 -25 -10 6 -10 -26 0 -34 4 -3
10 -32 14 -65 l6 -60 -29 28 -29 28 -17 -26 c-18 -28 -13 -33 11 -9 34 33 84
-58 55 -102 -4 -7 -18 -14 -32 -17 l-25 -4 27 -2 c35 -1 42 -14 44 -88 3 -70
8 -66 -88 -78 -49 -6 -58 0 -35 25 6 8 0 5 -14 -8 -17 -15 -38 -22 -67 -22
-41 0 -42 1 -42 35 0 19 5 35 11 35 7 0 9 11 6 29 -3 15 -1 33 6 40 8 8 8 11
-3 11 -7 0 -11 3 -7 6 14 15 27 -8 16 -29 -8 -15 -3 -13 17 9 16 17 36 29 44
27 13 -4 13 -3 0 6 -12 8 -11 13 5 33 14 17 11 15 -11 -4 -16 -16 -39 -28 -50
-28 -18 0 -20 5 -16 68 3 37 8 68 12 70 5 2 6 36 4 75 -3 40 -3 86 1 104 6 31
7 32 63 36 31 2 58 4 60 5 1 1 2 -2 2 -6z m102 -22 c-2 -16 -8 -30 -13 -30 -5
0 -9 14 -9 30 0 18 5 30 13 30 9 0 12 -10 9 -30z m57 -42 c13 -40 26 -78 28
-84 2 -6 -3 -11 -11 -11 -8 0 -12 5 -9 10 3 6 1 7 -5 3 -6 -4 -24 1 -39 11
-15 9 -29 18 -31 19 -1 0 0 9 4 18 6 16 8 16 28 -1 21 -18 21 -18 4 3 -10 11
-18 29 -18 40 0 27 11 64 19 64 4 0 18 -33 30 -72z m-400 16 c-6 -16 -13 -24
-16 -18 -2 6 2 24 8 40 6 16 13 24 16 18 2 -6 -2 -24 -8 -40z m100 -9 c-2 -52
-18 -90 -20 -48 0 10 -3 31 -5 47 -6 34 1 56 16 56 7 0 10 -21 9 -55z m-49 39
c0 -11 -42 -65 -47 -60 -6 6 29 66 39 66 4 0 8 -3 8 -6z m-2644 -20 c-3 -7 0
-15 7 -18 7 -2 2 -5 -10 -5 -29 -1 -39 2 -35 12 4 13 -25 7 -38 -8 -7 -8 -23
-15 -36 -15 -15 0 -24 6 -24 15 0 10 10 15 33 15 25 0 29 3 17 10 -11 8 0 10
38 8 38 -1 51 -5 48 -14z m174 7 c0 -5 -30 -13 -67 -19 -64 -9 -92 -4 -80 15
7 11 147 16 147 4z m-470 -8 c0 -3 -7 -15 -17 -25 -19 -21 -83 -25 -83 -5 0 8
-3 7 -10 -3 -7 -11 -35 -15 -119 -16 -123 -2 -149 11 -43 21 37 4 83 11 102
16 19 4 55 6 80 3 32 -3 41 -2 30 6 -11 7 -6 10 23 10 20 0 37 -3 37 -7z m70
-10 c0 -16 -2 -16 -11 -3 -8 11 -12 12 -16 3 -5 -15 -33 -18 -33 -4 0 9 20 17
48 20 6 0 12 -7 12 -16z m61 7 c5 0 9 -7 9 -16 0 -23 -44 -14 -48 10 -3 14 0
17 13 12 9 -3 21 -6 26 -6z m2826 -72 c6 -40 6 -74 2 -76 -5 -2 -9 -10 -9 -18
0 -8 -5 -14 -11 -14 -6 0 -9 9 -6 20 4 14 -2 24 -16 31 -12 7 -19 8 -15 4 6
-6 -48 -125 -57 -125 -7 0 8 116 17 133 5 9 21 18 36 18 23 2 24 2 5 6 -13 2
-23 9 -23 15 0 11 51 76 61 77 3 1 11 -32 16 -71z m-2930 36 c-3 -3 -12 -4
-19 -1 -8 3 -5 6 6 6 11 1 17 -2 13 -5z m-384 -11 c-7 -2 -21 -2 -30 0 -10 3
-4 5 12 5 17 0 24 -2 18 -5z m497 -43 c0 -22 -4 -40 -10 -40 -5 0 -10 -7 -10
-15 0 -8 -4 -15 -10 -15 -5 0 -10 -5 -10 -11 0 -5 5 -7 11 -3 6 3 14 2 18 -4
9 -16 -3 -142 -14 -142 -5 0 -19 15 -29 33 -18 31 -18 35 -3 66 14 27 14 31 2
21 -13 -11 -15 -7 -11 31 2 24 5 54 5 67 1 15 5 21 13 16 7 -4 8 -3 4 4 -10
17 2 32 25 32 16 0 19 -7 19 -40z m36 24 c-3 -8 -2 -12 4 -9 14 9 12 -1 -7
-38 -9 -18 -18 -27 -21 -19 -2 7 2 19 8 27 8 9 8 15 2 15 -5 0 -8 9 -5 20 3
11 10 20 15 20 6 0 7 -7 4 -16z m-112 -16 c-2 -13 -5 -42 -6 -66 -1 -23 -7
-47 -15 -53 -16 -14 -17 -39 -2 -39 7 0 9 -14 5 -37 -3 -21 -7 -56 -8 -78 -3
-67 -10 -62 -39 31 -33 103 -34 107 -14 124 12 10 18 10 30 0 24 -20 30 13 11
69 -22 67 -21 71 13 71 26 0 29 -3 25 -22z m3190 -21 c21 -16 12 -47 -15 -47
-14 0 -19 7 -19 30 0 33 7 37 34 17z m64 -49 c13 -29 24 -105 13 -92 -7 7 -41
100 -41 111 0 12 19 -1 28 -19z m-70 -43 c-13 -40 -28 -37 -28 6 0 22 5 29 19
29 17 0 18 -4 9 -35z m59 -37 c12 -40 25 -81 28 -90 9 -23 -13 -23 -60 -1 -21
10 -35 24 -35 35 0 25 9 23 50 -14 l35 -33 -30 35 c-17 19 -34 37 -38 41 -9 7
12 99 22 99 4 0 17 -33 28 -72z m-387 44 c0 -10 -14 -31 -31 -48 l-31 -29 23
48 c24 49 39 60 39 29z m54 -9 c-1 -16 -2 -47 -3 -70 0 -24 -6 -43 -12 -43 -5
0 -9 8 -8 18 1 9 -1 34 -6 55 -5 25 -3 42 5 52 18 22 26 18 24 -12z m-42 -60
c1 -47 2 -52 12 -82 6 -19 4 -28 -10 -38 -17 -12 -17 -13 0 -13 9 0 14 -4 11
-10 -3 -5 -1 -10 4 -10 6 0 11 -16 11 -35 0 -23 -5 -35 -14 -35 -14 0 -39 54
-29 64 3 3 0 12 -6 20 -7 8 -10 19 -7 24 3 6 -8 16 -26 23 -27 11 -29 14 -12
20 17 7 17 8 -3 8 -13 1 -23 4 -23 7 0 9 74 94 82 94 4 0 9 -17 10 -37z
m-2758 -43 c-16 -23 -30 -37 -32 -31 -4 13 47 85 55 78 2 -3 -8 -24 -23 -47z
m-70 -31 c10 -17 14 -29 8 -25 -6 3 -20 -7 -31 -23 -28 -39 -27 -49 2 -15 13
15 29 24 35 20 13 -8 4 -118 -12 -128 -16 -11 -36 -9 -36 3 0 6 7 8 17 5 13
-5 11 0 -6 18 -25 27 -35 92 -24 164 6 37 17 33 47 -19z m3155 -2 c10 3 22 0
26 -7 9 -15 -13 -40 -36 -40 -15 0 -19 7 -18 33 0 17 3 27 5 21 3 -7 13 -10
23 -7z m-386 -26 c4 -4 -9 -29 -28 -57 -28 -38 -34 -43 -31 -24 3 14 5 42 5
63 1 35 3 38 24 32 12 -4 25 -10 30 -14z m467 -13 c0 -13 -23 -5 -28 10 -2 7
2 10 12 6 9 -3 16 -11 16 -16z m-5 -98 c-4 -6 -18 -7 -33 -3 -15 3 -32 6 -38
6 -13 0 -9 15 18 69 l13 27 23 -45 c12 -24 20 -49 17 -54z m-435 45 c23 -56
16 -65 -54 -65 -29 0 -29 0 -10 22 12 13 13 18 4 13 -13 -8 -13 -6 -2 7 8 9
19 15 27 12 7 -3 16 -1 20 5 3 6 -1 11 -10 11 -13 0 -14 4 -4 22 9 17 13 19
16 8 3 -8 8 -24 13 -35z m360 16 c0 -26 -16 -35 -24 -15 -10 25 -7 34 9 34 8
0 15 -9 15 -19z m90 7 c0 -7 3 -24 6 -38 8 -31 -7 -17 -24 23 -10 22 -9 27 3
27 8 0 15 -6 15 -12z m81 -31 c-7 -7 -17 -5 -32 9 -22 19 -22 19 -14 -6 4 -14
12 -31 17 -37 8 -10 5 -13 -9 -13 -20 0 -27 27 -18 68 5 22 6 22 36 6 23 -11
28 -19 20 -27z m-3497 -14 c4 -9 2 -20 -5 -23 -6 -5 -3 -9 10 -13 12 -3 21
-12 21 -20 0 -13 -62 -27 -127 -27 -31 0 -29 18 2 26 13 3 23 10 22 15 -2 8
52 58 64 59 4 0 10 -8 13 -17z m354 -33 c24 -36 28 -50 12 -50 -5 0 -10 6 -10
13 0 9 -2 9 -8 0 -8 -12 -125 -4 -138 10 -9 8 26 48 36 42 4 -2 15 4 25 15 22
25 53 14 83 -30z m3251 15 c2 -3 -2 -5 -10 -6 -8 -1 -29 -2 -46 -4 -25 -2 -33
2 -34 14 -1 14 -2 13 -6 -1 -5 -22 -19 -23 -26 -4 -9 24 42 36 82 19 19 -7 37
-16 40 -18z m-3469 -16 c0 -5 -7 -9 -15 -9 -15 0 -20 12 -9 23 8 8 24 -1 24
-14z m3140 -25 c-11 -12 -11 -15 1 -12 8 2 14 -3 14 -11 0 -33 -141 -37 -175
-6 -35 32 -24 38 63 32 50 -4 72 -3 57 3 -22 7 -21 8 14 9 34 1 37 -1 26 -15z
m95 6 c3 -5 1 -10 -4 -10 -6 0 -11 5 -11 10 0 6 2 10 4 10 3 0 8 -4 11 -10z
m-380 -21 c8 -24 8 -24 -25 -34 l-25 -8 25 22 25 22 -23 -6 c-13 -4 -35 -4
-50 1 l-27 7 25 7 c46 14 68 11 75 -11z m435 6 c0 -9 -6 -12 -15 -9 -8 4 -15
10 -15 15 0 5 7 9 15 9 8 0 15 -7 15 -15z m215 5 c8 -13 -35 -13 -55 0 -11 7
-7 10 17 10 17 0 35 -4 38 -10z m-745 -20 c29 0 34 -19 6 -26 -33 -8 -45 1
-38 28 3 12 7 17 10 10 2 -6 12 -12 22 -12z m165 10 c3 -5 12 -7 19 -4 7 3 18
-1 25 -9 9 -12 7 -16 -10 -20 -20 -5 -59 18 -59 35 0 11 18 10 25 -2z m-215
-18 c0 -15 -10 -17 -87 -16 -142 2 -156 5 -78 19 39 7 91 13 118 14 39 1 47
-2 47 -17z m520 1 c0 -7 -9 -13 -21 -13 -11 0 -18 4 -14 9 3 5 -3 12 -12 14
-10 2 -3 4 14 3 19 0 33 -6 33 -13z m105 7 c3 -5 -1 -10 -9 -10 -9 0 -16 5
-16 10 0 6 4 10 9 10 6 0 13 -4 16 -10z m-3298 -15 c0 -8 -4 -15 -9 -15 -10 0
-11 14 -1 23 9 10 10 9 10 -8z m-201 -20 c-20 -20 -34 -24 -76 -24 -41 1 -50
5 -48 18 2 10 12 15 27 13 15 -2 21 0 17 7 -5 7 11 11 49 11 l56 0 -25 -25z
m84 -1 c0 -9 -5 -12 -11 -8 -6 3 -14 2 -18 -4 -4 -6 -11 -5 -19 4 -11 12 -9
14 8 14 11 0 20 5 20 11 0 5 5 7 10 4 6 -3 10 -13 10 -21z m30 17 c0 -17 -18
-21 -24 -6 -3 9 0 15 9 15 8 0 15 -4 15 -9z m230 -1 c0 -5 -7 -7 -15 -4 -8 4
-15 8 -15 10 0 2 7 4 15 4 8 0 15 -4 15 -10z m-480 -14 c0 -16 -22 -26 -58
-26 -44 0 -59 16 -22 24 18 3 36 3 41 0 5 -3 9 0 9 5 0 6 7 11 15 11 8 0 15
-6 15 -14z m440 5 c31 -8 17 -18 -38 -27 -33 -5 -42 -3 -42 8 0 28 25 34 80
19z m3179 -100 c6 -40 10 -76 7 -78 -2 -2 -16 33 -30 78 -21 64 -24 84 -14 90
17 11 23 -3 37 -90z m-721 83 l104 -7 -7 -45 c-4 -25 -12 -57 -17 -71 -6 -14
-10 -31 -9 -38 3 -20 -48 -242 -61 -263 -7 -11 -17 -19 -23 -18 -18 2 -64 -14
-75 -27 -14 -17 28 -29 47 -13 10 8 13 6 14 -8 0 -18 1 -18 8 0 12 30 21 4 14
-39 -4 -25 -12 -39 -25 -43 -13 -3 -15 -8 -9 -16 12 -14 -2 -41 -16 -33 -6 4
-15 -4 -21 -17 -8 -18 -16 -22 -36 -19 -27 6 -38 -13 -11 -19 26 -5 -20 -70
-48 -66 -28 4 -36 47 -11 65 15 11 13 12 -17 8 -19 -2 -41 -13 -51 -25 -20
-25 -27 -25 -25 0 1 12 8 20 19 20 10 0 18 7 18 15 0 8 9 16 20 17 11 0 26 1
33 2 6 1 15 6 19 13 5 6 16 9 27 6 11 -3 21 2 24 11 7 17 -15 22 -79 18 -21
-2 -34 3 -38 13 -3 8 -2 15 3 15 14 0 51 37 51 50 0 7 -3 11 -6 7 -10 -10 -35
20 -29 35 3 7 17 21 32 32 21 15 27 16 34 5 7 -11 9 -11 9 -1 0 7 7 12 16 10
10 -2 19 2 21 9 3 8 -6 11 -26 10 -17 -1 -29 3 -28 8 1 6 8 9 15 9 6 -1 12 2
12 7 0 12 -13 11 -44 -1 -28 -10 -29 -8 -20 27 5 19 9 21 26 12 19 -10 19 -10
2 18 -10 15 -19 29 -20 31 -1 2 -11 -16 -23 -38 -15 -29 -18 -46 -12 -58 14
-27 -12 -56 -43 -48 -15 3 -26 11 -26 17 0 6 4 8 9 5 4 -3 7 6 5 19 -1 17 6
32 24 46 23 18 24 21 6 15 -30 -9 -39 36 -13 65 20 24 98 47 79 24 -8 -10 -8
-19 0 -34 14 -27 18 -26 30 4 12 32 -6 76 -28 68 -12 -5 -14 -1 -10 14 5 19 2
21 -29 16 -33 -6 -34 -5 -27 22 6 25 5 26 -15 16 -17 -10 -21 -9 -21 4 0 9 5
26 11 38 9 18 9 20 -2 10 -18 -18 -30 -16 -23 2 4 8 12 15 19 15 7 0 16 11 19
25 4 14 11 24 17 22 7 -1 14 3 16 10 3 8 -6 12 -26 10 -30 -2 -41 -12 -20 -19
17 -6 -1 -38 -22 -38 -11 0 -16 5 -13 13 3 8 -3 20 -12 28 -15 13 -15 14 7 20
36 9 192 11 307 3z m470 -23 c-10 -13 -10 -14 2 -3 23 20 44 14 73 -23 26 -33
28 -41 26 -115 -3 -73 -5 -80 -23 -81 -97 -7 -276 -6 -276 2 0 5 3 9 8 9 4 0
7 39 7 88 1 48 4 99 8 114 7 26 10 27 80 30 95 4 111 1 95 -21z m92 -3 l0 -33
-20 25 c-25 32 -25 40 0 40 16 0 20 -7 20 -32z m58 -20 c-11 -61 -10 -59 -25
-50 -9 6 -18 64 -14 95 1 4 12 7 25 7 23 0 23 -1 14 -52z m81 -95 c30 -85 46
-145 41 -153 -5 -8 -2 -19 6 -28 12 -12 12 -17 2 -30 -11 -13 -11 -14 1 -7 11
6 13 3 8 -14 -3 -12 1 -34 9 -49 16 -32 18 -52 4 -52 -5 0 -10 9 -10 20 0 11
-4 20 -10 20 -5 0 -7 7 -4 15 4 8 2 15 -3 15 -5 0 -14 16 -20 34 -9 30 -8 36
6 39 11 3 9 5 -6 6 -24 1 -31 17 -11 23 7 3 -2 10 -20 16 -19 6 -32 7 -32 1 0
-5 4 -9 10 -9 5 0 7 -7 4 -15 -4 -8 -10 -15 -16 -15 -5 0 -6 5 -3 10 4 6 -5
10 -19 10 -20 0 -26 5 -26 23 1 20 2 21 14 5 16 -22 26 -23 26 -3 0 8 -11 17
-24 21 -21 5 -23 9 -18 52 2 26 6 49 8 51 2 2 14 -4 26 -15 l22 -19 -22 29
c-17 22 -21 37 -17 65 3 20 8 51 11 70 3 18 7 31 10 28 3 -2 27 -67 53 -144z
m-3722 131 c-3 -3 -12 -4 -19 -1 -8 3 -5 6 6 6 11 1 17 -2 13 -5z m3193 2 c0
-11 -72 -147 -76 -144 -4 4 12 110 21 136 4 10 55 18 55 8z m21 -84 c-25 -36
-60 -67 -67 -60 -3 3 11 39 32 79 l37 74 9 -33 c7 -26 5 -38 -11 -60z m59 79
c0 -5 -7 -14 -15 -21 -13 -10 -15 -9 -15 9 0 12 6 21 15 21 8 0 15 -4 15 -9z
m19 -69 c-4 -26 -8 -66 -8 -89 -1 -24 -5 -43 -10 -43 -9 0 -14 24 -25 115 -2
19 4 41 17 58 26 37 36 21 26 -41z m-2585 42 c12 -32 6 -73 -13 -83 -16 -9
-21 -4 -35 34 -10 25 -15 49 -11 55 10 16 52 12 59 -6z m-438 -42 c4 -20 8
-44 9 -52 0 -9 4 -21 8 -27 4 -6 3 -14 -3 -18 -6 -4 -8 -10 -5 -15 3 -4 -3 -6
-14 -3 -13 3 -25 -5 -41 -31 -12 -20 -27 -35 -33 -34 -18 3 -57 -12 -57 -23 0
-16 28 -10 35 9 7 16 8 15 15 -3 7 -19 -7 -51 -18 -41 -6 7 -47 -22 -48 -34
-1 -6 -2 -14 -3 -19 0 -5 -10 -20 -21 -33 -10 -12 -31 -38 -46 -56 -31 -38
-51 -30 -39 15 5 15 9 30 10 33 0 3 7 29 14 58 7 28 17 52 22 52 4 0 6 7 2 16
-4 12 0 15 17 12 13 -1 25 2 27 9 3 7 -4 9 -19 5 -26 -6 -26 -6 40 73 32 39
66 52 88 34 7 -5 11 -3 11 6 0 8 -3 15 -6 15 -3 0 -12 4 -20 9 -11 7 -7 17 19
50 18 22 37 38 41 35 5 -2 11 -21 15 -42z m85 27 c8 -15 8 -19 0 -15 -10 7
-13 2 -15 -34 -1 -8 -12 -17 -25 -18 -15 -2 -21 0 -16 7 3 6 -1 18 -9 27 -9 8
-16 24 -16 35 0 29 65 27 81 -2z m239 11 c0 -5 -5 -10 -11 -10 -5 0 -7 5 -4
10 3 6 8 10 11 10 2 0 4 -4 4 -10z m-56 -55 c-7 -16 -34 -28 -34 -15 0 6 4 10
9 10 5 0 7 9 4 20 -5 19 -6 20 -19 3 -12 -16 -13 -16 -14 -1 0 9 6 18 13 21
17 6 47 -22 41 -38z m4408 10 c29 -17 12 -55 -24 -55 -23 0 -29 4 -24 15 4 11
-3 19 -20 25 -14 6 -29 8 -33 5 -6 -3 -8 37 -2 41 4 3 89 -23 103 -31z m-232
4 c0 -11 -4 -17 -10 -14 -5 3 -10 13 -10 21 0 8 5 14 10 14 6 0 10 -9 10 -21z
m-4250 -9 c0 -5 -4 -10 -10 -10 -5 0 -10 5 -10 10 0 6 5 10 10 10 6 0 10 -4
10 -10z m116 -12 c4 -7 3 -8 -4 -4 -8 5 -12 0 -12 -13 0 -12 -4 -21 -10 -21
-13 0 -13 6 0 31 12 22 16 23 26 7z m2665 -69 c9 -74 2 -95 -28 -84 -7 2 -15
0 -18 -5 -4 -6 7 -10 24 -10 17 0 31 -4 31 -9 0 -5 3 -17 7 -27 5 -14 2 -16
-23 -10 -27 6 -28 5 -7 -6 l21 -13 -24 -29 c-14 -15 -26 -27 -28 -25 -2 2 -6
21 -9 41 -5 34 -3 39 19 44 34 9 22 17 -13 10 -22 -5 -36 -20 -59 -61 -21 -40
-35 -55 -50 -55 -24 0 -24 12 -4 90 6 25 11 52 11 61 0 9 11 27 25 40 26 24
34 50 9 29 -13 -11 -14 -10 -9 4 4 10 12 15 20 12 7 -3 29 15 49 40 21 25 39
43 42 40 3 -2 9 -37 14 -77z m-2581 17 c-12 -12 -30 2 -30 23 0 29 13 33 26 9
7 -13 9 -27 4 -32z m4110 39 c-11 -13 -8 -15 18 -15 37 0 84 -19 76 -31 -10
-16 -44 -10 -38 6 7 18 -7 20 -24 3 -10 -10 -15 -10 -22 2 -8 13 -10 12 -10
-2 0 -21 -9 -22 -32 -4 -25 19 -12 56 19 56 22 0 24 -2 13 -15z m-1150 -10 c0
-8 -2 -15 -4 -15 -2 0 -6 7 -10 15 -3 8 -1 15 4 15 6 0 10 -7 10 -15z m-885
-43 c-8 -9 -25 20 -18 31 3 5 10 2 15 -7 6 -10 7 -20 3 -24z m-2155 8 c0 -5
-2 -10 -4 -10 -3 0 -8 5 -11 10 -3 6 -1 10 4 10 6 0 11 -4 11 -10z m51 -5 c0
-6 -10 -12 -23 -13 -19 -4 -20 -2 -9 12 15 17 33 18 32 1z m4313 0 c-17 -13
-17 -14 -1 -15 9 0 17 -4 17 -10 0 -11 -33 -14 -43 -3 -8 8 22 43 36 43 6 0 2
-7 -9 -15z m-4394 -35 c0 -5 -5 -10 -11 -10 -5 0 -7 5 -4 10 3 6 8 10 11 10 2
0 4 -4 4 -10z m179 -22 c0 -28 -2 -30 -9 -13 -12 28 -12 45 0 45 6 0 10 -15 9
-32z m2009 14 c2 -7 -3 -12 -12 -12 -9 0 -16 7 -16 16 0 17 22 14 28 -4z
m-2478 -2 c0 -5 -4 -10 -10 -10 -5 0 -10 5 -10 10 0 6 5 10 10 10 6 0 10 -4
10 -10z m424 -19 c18 -15 18 -15 6 9 -9 18 -9 22 0 14 6 -6 13 -23 14 -37 3
-24 1 -25 -28 -20 -32 6 -56 27 -56 51 0 17 36 7 64 -17z m1991 19 c3 -5 2
-10 -4 -10 -5 0 -17 -3 -27 -7 -16 -6 -17 -5 -4 10 17 19 26 21 35 7z m-2372
-19 c3 -14 0 -19 -13 -18 -14 1 -16 4 -6 19 13 22 13 22 19 -1z m2207 9 c0 -5
-4 -10 -10 -10 -5 0 -10 5 -10 10 0 6 5 10 10 10 6 0 10 -4 10 -10z m54 1 c3
-4 -6 -13 -19 -19 -27 -12 -28 -12 -19 12 7 17 29 22 38 7z m-1948 -30 c-4 -6
-14 -11 -22 -11 -12 0 -13 4 -3 21 7 14 14 18 21 11 6 -6 7 -15 4 -21z m2664
14 c0 -8 -4 -15 -10 -15 -5 0 -10 7 -10 15 0 8 5 15 10 15 6 0 10 -7 10 -15z
m1800 5 c0 -5 -4 -10 -10 -10 -5 0 -10 5 -10 10 0 6 5 10 10 10 6 0 10 -4 10
-10z m-4740 -10 c0 -5 -4 -10 -10 -10 -5 0 -10 5 -10 10 0 6 5 10 10 10 6 0
10 -4 10 -10z m2300 -11 c0 -5 -16 -9 -35 -9 -24 0 -33 4 -29 13 5 15 64 11
64 -4z m85 10 c10 -16 -1 -22 -26 -14 -17 6 -19 9 -8 16 19 12 26 11 34 -2z
m-203 -46 c-2 -7 3 -13 12 -13 14 0 15 4 6 21 -7 11 -9 23 -6 27 8 7 54 -16
83 -42 22 -18 22 -21 6 -38 -9 -10 -13 -18 -8 -18 4 0 2 -6 -4 -14 -9 -10 -9
-16 -1 -21 20 -13 32 -57 18 -67 -10 -8 -10 -11 0 -15 17 -7 15 -23 -3 -23 -8
0 -15 -4 -15 -10 0 -5 -5 -10 -11 -10 -6 0 -9 7 -6 15 4 8 2 17 -3 20 -6 4
-10 1 -10 -6 0 -8 -6 -6 -18 4 -20 19 -37 23 -27 7 3 -5 -1 -10 -9 -10 -25 0
-19 19 9 32 14 6 25 16 25 21 0 5 7 4 15 -3 12 -10 15 -9 15 8 0 19 -2 19 -43
7 l-44 -13 5 25 c3 15 -1 29 -9 34 -12 8 -11 12 4 23 18 14 23 36 9 36 -13 0
-33 50 -26 61 8 14 42 -22 36 -38z m2503 38 c3 -6 -4 -8 -16 -6 -30 6 -37 15
-11 15 11 0 23 -4 27 -9z m-4087 -7 c12 -4 22 -13 22 -20 0 -17 -16 -19 -25
-3 -4 6 -17 14 -29 19 -25 10 -2 13 32 4z m2650 -18 c1 -22 -4 -26 -49 -35
-80 -17 -129 -14 -156 11 -13 12 -23 25 -23 30 0 4 45 6 100 4 56 -2 97 0 94
5 -3 5 3 9 13 9 12 0 19 -8 21 -24z m-282 -1 c-4 -12 -2 -13 14 -2 17 10 24 8
47 -16 19 -18 23 -27 13 -27 -13 0 -13 -2 -1 -9 7 -5 40 -6 72 -4 33 3 59 2
59 -2 0 -5 -10 -19 -22 -32 l-22 -23 -25 22 -26 23 24 -28 25 -27 -29 -30
c-16 -17 -35 -30 -42 -30 -7 0 -10 -6 -7 -14 3 -7 -2 -16 -10 -19 -9 -4 -16
-12 -16 -19 0 -7 -15 -31 -33 -52 -25 -29 -38 -38 -51 -33 -11 5 -16 13 -12
23 3 9 6 29 6 45 0 25 4 29 28 30 l27 2 -26 4 c-25 4 -26 6 -22 56 3 29 8 63
13 78 4 14 6 42 4 62 -2 21 1 37 8 37 5 0 8 -7 4 -15z m1790 -22 c-5 -12 -10
-13 -18 -5 -8 8 -8 15 3 28 15 18 25 4 15 -23z m-4879 21 c-3 -3 -12 -4 -19
-1 -8 3 -5 6 6 6 11 1 17 -2 13 -5z m468 -4 c3 -5 1 -10 -4 -10 -6 0 -11 5
-11 10 0 6 2 10 4 10 3 0 8 -4 11 -10z m195 0 c0 -5 -5 -10 -11 -10 -5 0 -7 5
-4 10 3 6 8 10 11 10 2 0 4 -4 4 -10z m44 -6 c9 -8 16 -22 16 -31 0 -14 -2
-14 -22 -1 -24 16 -37 48 -19 48 5 0 17 -7 25 -16z m83 -29 c-4 -8 -11 -15
-17 -15 -7 0 -7 6 0 21 13 23 26 19 17 -6z m4323 11 c0 -3 -4 -8 -10 -11 -5
-3 -10 -1 -10 4 0 6 5 11 10 11 6 0 10 -2 10 -4z m-1737 -13 c-7 -2 -19 -2
-25 0 -7 3 -2 5 12 5 14 0 19 -2 13 -5z m1009 -20 c-6 -3 -10 -9 -6 -14 3 -5
0 -9 -6 -9 -6 0 -13 7 -17 16 -7 20 18 38 32 22 7 -7 6 -12 -3 -15z m-3782 -3
c9 -17 8 -20 -9 -20 -17 0 -20 10 -12 38 3 7 12 0 21 -18z m59 -5 c2 -11 8
-23 15 -27 7 -5 7 -8 -3 -8 -8 0 -29 -12 -48 -26 -29 -22 -34 -23 -39 -9 -7
18 21 44 49 45 17 0 17 1 0 26 -16 25 -16 26 3 22 10 -2 20 -12 23 -23z m1858
-7 c-3 -8 -6 -5 -6 6 -1 11 2 17 5 13 3 -3 4 -12 1 -19z m426 -6 c-3 -12 -9
-22 -14 -22 -5 0 -6 -7 -3 -15 4 -9 0 -15 -10 -15 -20 0 -20 2 5 45 23 39 31
42 22 7z m437 -4 l0 -31 -25 23 c-14 13 -25 27 -25 32 0 4 11 8 25 8 21 0 25
-5 25 -32z m48 18 c-7 -8 -15 -12 -17 -11 -5 6 10 25 20 25 5 0 4 -6 -3 -14z
m78 -17 c12 -24 13 -33 4 -39 -8 -5 -9 -16 -5 -30 6 -18 4 -22 -8 -17 -8 3
-20 0 -27 -6 -9 -9 -11 -5 -5 23 7 32 10 50 14 88 2 20 9 14 27 -19z m-3106
11 c0 -5 -4 -10 -10 -10 -5 0 -10 5 -10 10 0 6 5 10 10 10 6 0 10 -4 10 -10z
m1844 -6 c4 -9 4 -19 1 -22 -7 -8 -35 19 -29 29 8 14 21 11 28 -7z m790 -61
c-3 -37 -6 -68 -8 -71 -3 -2 -14 2 -26 8 -19 10 -21 18 -17 47 5 28 40 83 53
83 1 0 0 -30 -2 -67z m320 38 c23 -24 29 -41 33 -95 4 -46 2 -66 -6 -66 -6 0
-11 15 -11 33 0 17 -5 39 -10 47 -7 11 -9 1 -6 -32 2 -27 -1 -48 -5 -48 -5 0
-10 6 -10 13 -1 6 -2 17 -4 22 -1 6 -3 15 -3 22 -1 7 -12 22 -24 33 l-23 22
30 -2 c52 -4 52 2 0 10 -40 5 -53 3 -62 -9 -11 -14 -12 -14 -13 2 0 9 5 17 10
17 6 0 10 5 10 12 0 18 31 48 50 48 9 0 29 -13 44 -29z m1486 21 c0 -13 -12
-22 -22 -16 -10 6 -1 24 13 24 5 0 9 -4 9 -8z m-4053 -22 c1 -11 0 -20 -2 -20
-13 0 -35 14 -35 22 0 5 5 6 10 3 6 -3 10 -1 10 4 0 20 16 11 17 -9z m2663
-37 c0 -18 -29 -16 -36 2 -4 8 -3 23 1 33 6 16 7 16 21 -2 8 -11 14 -26 14
-33z m-3499 0 c8 2 20 6 28 11 11 7 13 3 7 -20 -7 -27 -7 -28 8 -9 14 20 15
19 21 -7 7 -29 1 -48 -17 -48 -6 0 -6 6 2 15 11 13 10 14 -4 9 -9 -3 -16 -10
-16 -14 0 -4 -36 -8 -80 -7 l-80 1 48 48 c38 39 49 45 58 33 6 -7 17 -13 25
-12z m717 15 c-2 -6 -13 -12 -24 -14 -19 -3 -19 -3 0 12 24 17 29 18 24 2z
m267 -3 c17 2 24 1 17 -2 -6 -3 -10 -9 -6 -14 3 -5 0 -9 -5 -9 -6 0 -11 -7
-11 -16 0 -8 5 -12 10 -9 6 3 10 5 11 3 0 -2 2 -22 5 -45 4 -35 2 -42 -10 -37
-10 4 -17 -2 -21 -19 -4 -14 -15 -27 -25 -30 -17 -4 -17 -2 -4 35 16 47 16 48
6 48 -5 0 -13 -12 -20 -27 -11 -27 -11 -27 -5 7 7 45 9 47 32 26 19 -17 20
-17 18 2 0 11 -5 18 -11 15 -5 -4 -7 3 -4 15 4 12 3 22 -1 22 -4 0 -13 12 -20
27 -10 21 -10 24 1 16 7 -6 27 -9 43 -8z m2017 -7 c-7 -7 -12 -8 -12 -2 0 14
12 26 19 19 2 -3 -1 -11 -7 -17z m-2172 -13 c0 -8 -5 -17 -10 -20 -6 -4 -8
-10 -5 -15 3 -5 1 -11 -5 -15 -6 -3 -13 1 -16 9 -4 11 -14 13 -34 10 -32 -7
-47 10 -29 32 8 10 24 14 41 12 15 -3 28 -1 28 3 0 5 7 6 15 3 8 -4 15 -12 15
-19z m3570 15 c0 -5 -4 -10 -9 -10 -6 0 -13 5 -16 10 -3 6 1 10 9 10 9 0 16
-4 16 -10z m-4300 -7 c0 -10 -20 -40 -20 -31 0 3 -3 13 -6 22 -4 11 -1 16 10
16 9 0 16 -3 16 -7z m2206 -20 c-10 -10 -19 5 -10 18 6 11 8 11 12 0 2 -7 1
-15 -2 -18z m1274 23 c0 -3 -4 -8 -10 -11 -5 -3 -10 -1 -10 4 0 6 5 11 10 11
6 0 10 -2 10 -4z m153 -10 c7 -18 -1 -26 -25 -26 -23 0 -24 20 0 21 14 0 14 2
-3 9 -19 8 -19 9 1 9 12 1 24 -5 27 -13z m-1576 -18 c-3 -8 -6 -5 -6 6 -1 11
2 17 5 13 3 -3 4 -12 1 -19z m-1902 2 c3 -5 1 -10 -4 -10 -6 0 -11 5 -11 10 0
6 2 10 4 10 3 0 8 -4 11 -10z m2649 -6 c3 -8 2 -12 -4 -9 -6 3 -10 10 -10 16
0 14 7 11 14 -7z m116 4 c0 -7 3 -23 6 -36 5 -19 3 -22 -16 -19 -26 4 -35 34
-18 54 13 17 28 17 28 1z m-2830 -8 c0 -5 -4 -10 -10 -10 -5 0 -10 5 -10 10 0
6 5 10 10 10 6 0 10 -4 10 -10z m440 -5 c0 -8 -4 -15 -10 -15 -5 0 -10 7 -10
15 0 8 5 15 10 15 6 0 10 -7 10 -15z m2680 -5 c0 -12 2 -13 9 -1 7 11 14 8 36
-15 l27 -29 -24 -5 c-16 -4 -26 -16 -32 -43 -8 -33 -13 -37 -40 -37 -17 0 -55
-3 -83 -6 -32 -4 -53 -3 -53 3 0 5 19 31 43 57 23 25 50 57 59 71 20 26 58 30
58 5z m190 13 c0 -5 -4 -15 -10 -23 -11 -18 -25 -7 -17 15 6 15 27 21 27 8z
m900 -2 c0 -5 -6 -14 -14 -20 -11 -9 -16 -9 -21 0 -4 6 -1 15 6 20 18 11 29
11 29 0z m-3290 -8 c0 -1 -9 -7 -20 -13 -16 -8 -20 -8 -20 4 0 9 8 14 20 13
11 -1 20 -2 20 -4z m1494 -2 c7 -1 6 -22 -7 -93 -2 -9 -12 -34 -23 -55 -30
-59 -73 -88 -53 -35 6 15 11 42 11 60 0 22 5 32 16 32 13 0 12 4 -4 21 -19 22
-19 22 9 17 33 -6 35 4 5 25 -19 13 -20 18 -9 25 7 6 21 8 30 7 9 -2 20 -4 25
-4z m991 -1 c3 -5 1 -10 -4 -10 -6 0 -11 5 -11 10 0 6 2 10 4 10 3 0 8 -4 11
-10z m-1268 -26 c-9 -9 -28 6 -21 18 4 6 10 6 17 -1 6 -6 8 -13 4 -17z m613
16 c0 -5 -4 -10 -10 -10 -5 0 -10 5 -10 10 0 6 5 10 10 10 6 0 10 -4 10 -10z
m790 -5 c0 -13 -4 -14 -20 -5 -11 6 -20 13 -20 15 0 3 9 5 20 5 11 0 20 -7 20
-15z m-3615 -5 c-3 -5 -10 -10 -16 -10 -5 0 -9 5 -9 10 0 6 7 10 16 10 8 0 12
-4 9 -10z m605 5 c0 -3 -9 -15 -20 -27 -21 -23 -28 -7 -7 17 12 14 27 20 27
10z m440 -25 c0 -25 -4 -30 -22 -30 -21 1 -21 2 -5 11 9 5 17 19 17 29 0 11 2
20 5 20 3 0 5 -13 5 -30z m956 9 c-15 -12 -29 -19 -32 -16 -8 8 26 37 43 37
11 0 7 -7 -11 -21z m1431 15 c-3 -3 -12 -4 -19 -1 -8 3 -5 6 6 6 11 1 17 -2
13 -5z m-3172 -14 c8 13 25 13 25 0 0 -5 -5 -10 -11 -10 -6 0 -17 -7 -25 -15
-9 -8 -22 -15 -29 -15 -12 0 -12 5 -3 25 8 18 14 22 24 14 8 -7 14 -7 19 1z
m224 -47 c1 -19 -2 -21 -21 -14 -24 9 -37 31 -18 31 7 0 10 6 7 14 -8 20 16
27 25 7 4 -9 7 -26 7 -38z m3106 47 c3 -5 2 -10 -4 -10 -5 0 -13 5 -16 10 -3
6 -2 10 4 10 5 0 13 -4 16 -10z m1165 -4 c0 -8 7 -16 15 -20 22 -8 18 -26 -5
-26 -15 0 -20 -7 -20 -26 0 -16 -5 -24 -12 -21 -12 4 -13 80 -1 100 7 12 23 8
23 -7z m-4940 -6 c0 -5 -8 -10 -17 -10 -15 0 -16 2 -3 10 19 12 20 12 20 0z
m940 0 c0 -12 -42 -31 -50 -23 -6 5 30 33 42 33 4 0 8 -5 8 -10z m1310 0 c0
-5 -4 -10 -10 -10 -5 0 -10 5 -10 10 0 6 5 10 10 10 6 0 10 -4 10 -10z m732
-12 c-6 -6 -15 -8 -19 -4 -4 4 -1 11 7 16 19 12 27 3 12 -12z m2302 6 c10 -25
7 -46 -6 -42 -18 6 -30 58 -13 58 7 0 16 -7 19 -16z m-5254 -3 c0 -5 9 -7 20
-4 23 6 26 -5 7 -30 -10 -15 -24 -17 -82 -13 -39 2 -74 5 -80 5 -11 2 24 31
38 31 4 0 5 -6 1 -12 -6 -9 -3 -9 9 1 9 7 23 11 31 8 8 -3 20 1 26 9 14 16 30
19 30 5z m175 -2 c10 -14 1 -21 -19 -13 -9 3 -13 10 -10 15 7 12 21 11 29 -2z
m415 3 c0 -4 -5 -14 -10 -22 -9 -13 -11 -13 -20 0 -14 21 -12 26 10 27 11 1
20 -1 20 -5z m3055 -2 c3 -6 -1 -7 -9 -4 -18 7 -21 14 -7 14 6 0 13 -4 16 -10z
m-3406 -30 c-14 -9 -29 -4 -29 10 0 12 34 18 39 7 2 -5 -3 -13 -10 -17z m309
13 c2 -7 -3 -13 -12 -13 -9 0 -16 -4 -16 -10 0 -5 7 -10 15 -10 8 0 15 -7 15
-15 0 -8 -5 -15 -11 -15 -18 0 -38 26 -34 46 2 10 4 23 4 27 1 13 34 4 39 -10z
m1420 11 c31 -9 28 -21 -7 -29 -16 -3 -32 -13 -35 -21 -8 -21 -23 -17 -29 8
-11 39 17 56 71 42z m205 0 c-8 -4 -9 -13 -1 -35 9 -25 7 -34 -7 -47 -10 -10
-15 -11 -11 -4 4 6 2 12 -3 12 -6 0 -11 5 -11 11 0 5 5 7 10 4 15 -10 12 6 -6
26 -19 22 -11 39 19 38 12 0 17 -3 10 -5z m837 -3 c0 -6 -4 -13 -10 -16 -5 -3
-10 1 -10 9 0 9 5 16 10 16 6 0 10 -4 10 -9z m39 -25 c-5 -17 -9 -32 -9 -33 0
-11 -19 0 -24 13 -10 25 3 53 23 51 16 -1 17 -6 10 -31z m521 25 c0 -11 -31
-24 -39 -16 -3 3 1 10 9 15 19 12 30 12 30 1z m-3508 -23 c-7 -7 -12 -8 -12
-2 0 14 12 26 19 19 2 -3 -1 -11 -7 -17z m214 -5 c-10 -10 -19 5 -10 18 6 11
8 11 12 0 2 -7 1 -15 -2 -18z m654 20 c0 -3 -8 -16 -17 -27 -18 -20 -18 -20
10 -2 l28 17 -3 -28 c-4 -35 -33 -42 -59 -14 -18 19 -18 21 -2 41 17 19 43 27
43 13z m2180 -20 c0 -20 -3 -24 -11 -16 -7 7 -9 19 -6 27 10 24 17 19 17 -11z
m310 23 c0 -2 -7 -7 -16 -10 -8 -3 -12 -2 -9 4 6 10 25 14 25 6z m210 -17 c0
-6 -4 -7 -10 -4 -5 3 -10 11 -10 16 0 6 5 7 10 4 6 -3 10 -11 10 -16z m120 11
c0 -5 -5 -10 -11 -10 -5 0 -7 5 -4 10 3 6 8 10 11 10 2 0 4 -4 4 -10z m834 -7
c-6 -2 -9 -16 -6 -31 l5 -27 -22 20 -22 19 23 17 c12 10 25 15 28 12 3 -3 0
-8 -6 -10z m-4454 -13 c0 -5 -9 -10 -21 -10 -11 0 -17 5 -14 10 3 6 13 10 21
10 8 0 14 -4 14 -10z m1048 -12 c-4 -29 -38 -38 -38 -10 0 22 8 32 27 32 9 0
13 -8 11 -22z m2627 -16 c-8 -9 -25 20 -18 31 3 5 10 2 15 -7 6 -10 7 -20 3
-24z m-3205 8 c21 -16 22 -21 11 -29 -20 -13 -51 5 -51 29 0 25 8 25 40 0z
m1760 4 c0 -8 -4 -12 -10 -9 -5 3 -10 10 -10 16 0 5 5 9 10 9 6 0 10 -7 10
-16z m52 -38 c-10 -6 -17 -5 -20 2 -2 6 -10 8 -19 5 -13 -5 -13 -2 3 21 l18
28 17 -24 c16 -21 16 -24 1 -32z m2128 39 c16 -19 6 -45 -18 -45 -10 0 -27 -9
-37 -20 -25 -28 -37 -25 -33 8 2 20 -1 26 -12 24 -11 -3 -12 0 -4 8 12 12 44
3 44 -14 1 -6 7 4 15 22 15 35 26 40 45 17z m-3813 -24 c-1 -12 -7 -17 -19
-13 -20 5 -20 5 -12 26 8 20 33 9 31 -13z m2283 8 c0 -6 -4 -7 -10 -4 -5 3
-10 11 -10 16 0 6 5 7 10 4 6 -3 10 -11 10 -16z m470 11 c0 -5 -4 -10 -10 -10
-5 0 -10 5 -10 10 0 6 5 10 10 10 6 0 10 -4 10 -10z m-3553 -6 c-3 -3 -12 -4
-19 -1 -8 3 -5 6 6 6 11 1 17 -2 13 -5z m3843 -4 c0 -5 -4 -10 -10 -10 -5 0
-10 5 -10 10 0 6 5 10 10 10 6 0 10 -4 10 -10z m-2659 -21 c-12 -12 -25 -19
-28 -16 -8 8 20 36 36 37 10 0 8 -7 -8 -21z m1819 11 c0 -5 -5 -10 -11 -10 -5
0 -7 5 -4 10 3 6 8 10 11 10 2 0 4 -4 4 -10z m620 0 c0 -5 -4 -10 -10 -10 -5
0 -10 5 -10 10 0 6 5 10 10 10 6 0 10 -4 10 -10z m133 -11 c4 -16 3 -18 -9 -8
-16 13 -19 29 -5 29 5 0 11 -9 14 -21z m-2149 -24 c-9 -21 -32 -25 -49 -9 -23
24 -18 30 19 26 24 -3 33 -8 30 -17z m586 6 c-12 -23 -30 -36 -30 -22 0 10 27
41 36 41 3 0 0 -9 -6 -19z m1269 5 c-8 -9 -20 -22 -27 -31 -17 -20 -98 -21
-106 0 -3 8 -12 15 -20 15 -8 0 -17 4 -20 9 -3 5 19 9 50 10 31 0 58 2 60 4 2
1 20 4 40 5 32 2 34 1 23 -12z m-2039 -19 c-1 -11 -29 -80 -30 -72 -1 6 -9 -6
-18 -25 -26 -53 -49 -51 -50 5 0 31 4 45 11 42 7 -2 10 -13 9 -23 -3 -14 -1
-16 8 -8 9 9 9 17 1 33 -10 17 -9 21 3 21 10 0 13 6 10 18 -5 16 -5 16 9 0 18
-22 30 -12 16 14 -9 18 -8 18 10 8 12 -6 21 -12 21 -13z m1150 9 c0 -14 -29
-31 -38 -21 -6 6 18 35 29 35 5 0 9 -6 9 -14z m425 4 c-3 -5 -1 -10 4 -10 6 0
11 -4 11 -10 0 -11 -28 -9 -49 5 -12 7 -11 10 5 16 27 11 36 10 29 -1z m225 6
c0 -3 -4 -8 -10 -11 -5 -3 -10 -1 -10 4 0 6 5 11 10 11 6 0 10 -2 10 -4z m58
-8 c19 -19 14 -28 -15 -28 -22 0 -25 2 -13 10 10 6 11 10 3 10 -7 0 -13 5 -13
10 0 14 23 13 38 -2z m-3301 -4 c-3 -3 -12 -4 -19 -1 -8 3 -5 6 6 6 11 1 17
-2 13 -5z m153 -3 c0 -14 -18 -23 -30 -16 -6 4 -8 11 -5 16 8 12 35 12 35 0z
m1599 -7 c6 4 11 2 11 -4 0 -6 5 -8 11 -4 9 5 10 -1 5 -21 -7 -26 -6 -27 21
-20 15 3 30 11 31 16 6 15 22 10 22 -6 0 -15 16 -19 53 -16 26 3 21 -14 -14
-43 -17 -14 -24 -26 -17 -26 8 0 20 6 27 13 11 10 13 10 7 0 -4 -7 -2 -13 4
-13 6 0 9 -4 6 -9 -7 -10 16 -21 44 -21 9 0 23 -6 29 -14 10 -11 5 -20 -25
-43 -25 -19 -39 -24 -42 -15 -2 6 -8 10 -13 6 -5 -3 -9 0 -9 7 0 8 -4 8 -15
-1 -8 -7 -15 -10 -15 -7 0 3 -13 1 -30 -4 -27 -10 -28 -12 -13 -27 11 -12 12
-17 3 -20 -9 -3 -9 -6 -1 -11 8 -5 1 -21 -19 -50 -19 -25 -35 -39 -42 -35 -8
5 -9 9 -1 11 6 2 9 13 6 24 -4 12 2 26 13 35 14 11 15 17 7 20 -7 3 -13 12
-13 20 0 8 -15 24 -32 35 l-33 21 38 -5 c42 -6 49 8 12 25 -30 14 -32 24 -5
33 22 7 60 -10 60 -27 0 -17 29 24 30 41 0 11 -3 11 -15 1 -13 -11 -19 -8 -17
11 1 3 -12 3 -29 1 -32 -5 -39 11 -11 27 15 9 15 10 -4 11 -12 0 -24 -7 -28
-15 -7 -19 -26 -20 -26 -1 0 7 9 16 21 19 12 3 18 10 14 17 -4 6 -15 8 -24 5
-14 -4 -18 0 -16 17 1 13 3 32 4 43 1 15 3 17 10 6 5 -7 14 -10 20 -7z m-1559
-4 c0 -6 -12 -15 -26 -20 -35 -14 -37 -13 -16 9 19 21 42 27 42 11z m2150 1
c0 -5 -7 -11 -15 -15 -15 -5 -20 5 -8 17 9 10 23 9 23 -2z m2310 0 c0 -5 -7
-11 -15 -15 -15 -5 -20 5 -8 17 9 10 23 9 23 -2z m-4550 -18 c19 -17 19 -17
-11 -30 -41 -17 -44 -16 -23 4 11 11 13 18 5 21 -6 2 -9 8 -5 13 7 12 11 12
34 -8z m520 7 c0 -5 -2 -10 -4 -10 -3 0 -8 5 -11 10 -3 6 -1 10 4 10 6 0 11
-4 11 -10z m205 0 c-3 -5 -1 -10 5 -10 6 0 8 -5 5 -10 -4 -6 -11 -7 -17 -4 -6
4 -8 2 -4 -4 3 -6 2 -13 -3 -16 -5 -4 -12 -2 -16 4 -7 12 12 50 26 50 6 0 7
-4 4 -10z m2313 3 c-17 -4 -23 -16 -18 -38 1 -6 -3 -6 -10 1 -16 16 -1 44 24
43 16 -1 17 -2 4 -6z m1472 -3 c0 -5 -4 -10 -10 -10 -5 0 -10 5 -10 10 0 6 5
10 10 10 6 0 10 -4 10 -10z m190 6 c0 -2 -9 -6 -20 -9 -11 -3 -20 -1 -20 4 0
5 9 9 20 9 11 0 20 -2 20 -4z m-4204 -44 c-4 -3 -11 0 -16 8 -15 24 -11 33 6
15 9 -9 13 -19 10 -23z m128 23 c3 -8 1 -15 -4 -15 -6 0 -10 7 -10 15 0 8 2
15 4 15 2 0 6 -7 10 -15z m476 4 c0 -5 -4 -8 -9 -5 -5 4 -12 0 -14 -6 -3 -8
-6 -6 -6 5 -1 9 6 17 14 17 8 0 15 -5 15 -11z m300 -18 c0 -20 -27 -48 -37
-37 -3 3 -1 6 5 6 7 0 12 11 12 25 0 14 5 25 10 25 6 0 10 -8 10 -19z m626 -6
c3 -17 -12 -20 -21 -5 -7 12 4 34 13 25 3 -3 7 -12 8 -20z m86 18 c-9 -4 -10
-8 -2 -18 8 -9 8 -15 0 -20 -5 -3 -10 -15 -10 -26 0 -10 -5 -19 -11 -19 -5 0
-7 4 -4 10 3 5 2 18 -4 27 -12 22 4 53 27 52 11 0 12 -2 4 -6z m1045 1 c-3 -3
-12 -4 -19 -1 -8 3 -5 6 6 6 11 1 17 -2 13 -5z m1466 -14 c4 -15 0 -20 -13
-20 -25 0 -36 20 -19 31 21 13 26 11 32 -11z m-3158 -29 c-20 -20 -29 -8 -14
18 10 14 15 17 21 8 4 -7 1 -18 -7 -26z m1915 31 c0 -9 -43 -52 -52 -52 -14 0
-58 43 -52 51 5 9 104 10 104 1z m290 4 c0 -11 -19 -15 -25 -6 -3 5 1 10 9 10
9 0 16 -2 16 -4z m825 -5 c-6 -5 -26 -12 -45 -16 -31 -7 -33 -6 -21 9 7 9 27
16 44 16 19 0 27 -4 22 -9z m-3743 -13 c7 -20 -21 -43 -34 -30 -8 8 -8 15 2
27 15 18 27 19 32 3z m2524 -11 c29 -34 27 -61 -6 -92 -24 -23 -32 -26 -45
-15 -8 7 -15 19 -15 26 0 8 -4 14 -10 14 -5 0 -6 -7 -3 -17 5 -12 3 -14 -8 -7
-8 5 -17 9 -21 9 -3 0 -10 4 -15 8 -4 5 -1 7 7 5 8 -2 14 4 15 12 1 17 48 16
53 0 5 -14 22 -2 22 15 0 9 -6 12 -15 9 -8 -4 -15 -1 -15 6 0 7 -7 9 -15 6 -8
-3 -21 -9 -29 -12 -11 -4 -13 0 -9 18 8 29 21 38 59 38 19 0 37 -8 50 -23z
m139 13 c3 -5 2 -10 -3 -10 -6 0 -12 -7 -16 -15 -5 -13 -2 -14 15 -4 11 6 28
8 36 5 14 -6 13 -9 -3 -27 -11 -12 -28 -25 -39 -30 -17 -6 -15 -8 11 -8 24 -1
31 -5 30 -18 -1 -19 34 -25 47 -8 10 14 27 -14 27 -46 0 -33 -29 -48 -37 -19
-3 11 -10 20 -16 20 -6 0 -17 7 -26 15 -9 8 -36 32 -60 55 l-44 41 28 29 c31
32 40 36 50 20z m220 0 c3 -5 1 -10 -4 -10 -6 0 -11 5 -11 10 0 6 2 10 4 10 3
0 8 -4 11 -10z m-3195 -12 c0 -4 -4 -8 -9 -8 -6 0 -12 4 -15 8 -3 5 1 9 9 9 8
0 15 -4 15 -9z m215 1 c11 -17 -1 -21 -15 -4 -8 9 -8 15 -2 15 6 0 14 -5 17
-11z m429 -4 c-6 -16 -24 -21 -24 -7 0 11 11 22 21 22 5 0 6 -7 3 -15z m1421
4 c10 -15 2 -19 -24 -12 -17 4 -19 8 -9 14 18 12 26 11 33 -2z m1330 -13 c-1
-12 5 -26 13 -32 12 -8 11 -12 -4 -25 -15 -12 -17 -12 -12 1 3 8 -2 20 -11 27
-11 9 -12 12 -3 13 21 0 3 20 -19 20 -10 0 -19 5 -19 10 0 6 13 9 28 8 22 -1
28 -7 27 -22z m205 14 c0 -5 -4 -10 -10 -10 -5 0 -10 5 -10 10 0 6 5 10 10 10
6 0 10 -4 10 -10z m-3945 -20 c-22 -24 -14 -36 13 -21 26 14 32 14 32 1 0 -6
-11 -15 -25 -20 -21 -8 -30 -6 -46 9 -20 19 -15 31 21 44 24 9 24 8 5 -13z
m379 5 c3 -9 0 -15 -8 -15 -7 0 -13 7 -13 15 0 8 4 15 8 15 4 0 9 -7 13 -15z
m86 5 c0 11 3 11 12 2 14 -14 11 -17 -19 -26 -16 -5 -23 -3 -23 7 0 20 12 29
22 15 6 -10 8 -10 8 2z m1030 2 c0 -4 -9 -8 -20 -9 -11 -1 -20 2 -20 8 0 5 9
9 20 9 11 0 20 -4 20 -8z m1306 -27 c-3 -8 -12 -12 -20 -9 -12 5 -12 8 2 23
18 18 28 10 18 -14z m874 25 c0 -5 -5 -10 -11 -10 -5 0 -7 5 -4 10 3 6 8 10
11 10 2 0 4 -4 4 -10z m334 -7 c9 4 16 2 16 -4 0 -13 -27 -22 -45 -15 -9 3
-12 12 -8 21 4 12 8 13 13 4 5 -6 15 -9 24 -6z m-4311 -18 c-3 -9 1 -15 8 -15
21 -1 -30 -40 -52 -40 -16 0 -17 3 -7 28 13 31 37 54 49 46 4 -2 6 -11 2 -19z
m1603 -3 c-18 -16 -18 -16 -6 6 6 13 14 21 18 18 3 -4 -2 -14 -12 -24z m2479
17 c-4 -6 0 -9 11 -7 24 4 29 -22 10 -65 -11 -28 -19 -34 -35 -30 -25 6 -25 4
-3 49 13 28 14 38 4 41 -13 5 -7 23 9 23 6 0 7 -5 4 -11z m-3856 -25 c-12 -15
-12 -16 6 -10 16 4 21 2 21 -13 0 -11 -5 -17 -11 -13 -5 3 -4 -2 4 -12 12 -14
12 -19 2 -25 -9 -6 -6 -10 10 -14 18 -5 20 -9 10 -20 -6 -8 -9 -22 -5 -31 8
-20 -31 -23 -43 -3 -4 8 -16 17 -26 20 -10 4 -15 11 -12 17 3 5 2 10 -4 10 -5
0 -2 15 7 33 9 17 17 38 18 45 3 17 25 44 32 37 3 -2 -1 -12 -9 -21z m-39 -3
c0 -11 -4 -23 -10 -26 -6 -4 -10 5 -10 19 0 14 5 26 10 26 6 0 10 -9 10 -19z
m1190 9 c0 -5 -5 -10 -11 -10 -5 0 -7 5 -4 10 3 6 8 10 11 10 2 0 4 -4 4 -10z
m1255 0 c-3 -5 -12 -7 -20 -3 -21 7 -19 13 6 13 11 0 18 -4 14 -10z m2020 -7
c-2 -10 -4 -20 -4 -22 -1 -3 -7 1 -13 7 -10 10 -10 15 2 22 19 12 19 13 15 -7z
m105 13 c0 -2 -7 -7 -16 -10 -8 -3 -12 -2 -9 4 6 10 25 14 25 6z m-4117 -39
c-8 -15 -21 -31 -29 -34 -7 -3 -14 -9 -14 -15 0 -14 41 2 73 28 16 13 33 24
38 24 5 0 17 -17 28 -39 20 -38 20 -38 0 -60 -23 -25 -37 -27 -45 -7 -4 12
-11 12 -29 4 -32 -15 -76 -3 -68 18 6 15 4 15 -19 0 -13 -9 -27 -13 -31 -10
-9 9 3 34 17 34 6 0 12 9 13 19 3 34 32 69 57 67 23 -1 23 -2 9 -29z m287 24
c0 -5 -7 -11 -14 -14 -10 -4 -13 -1 -9 9 6 15 23 19 23 5z m726 -18 c-10 -10
-19 5 -10 18 6 11 8 11 12 0 2 -7 1 -15 -2 -18z m47 14 c3 -8 -3 -14 -14 -14
-10 -1 -19 3 -19 8 0 6 5 7 10 4 6 -3 10 -1 10 4 0 15 7 14 13 -2z m1311 -2
c-4 -8 -9 -15 -13 -15 -4 0 -8 7 -8 15 0 8 6 15 13 15 8 0 11 -6 8 -15z m232
-12 c-10 -10 -19 5 -10 18 6 11 8 11 12 0 2 -7 1 -15 -2 -18z m937 20 c4 -3 0
-15 -10 -25 -9 -10 -13 -18 -9 -18 4 0 4 -5 1 -11 -5 -6 -13 -2 -23 12 -14 20
-14 23 3 35 21 16 29 17 38 7z m-2943 -19 c0 -8 -4 -12 -10 -9 -5 3 -10 10
-10 16 0 5 5 9 10 9 6 0 10 -7 10 -16z m30 6 c0 -5 -4 -10 -10 -10 -5 0 -10 5
-10 10 0 6 5 10 10 10 6 0 10 -4 10 -10z m540 0 c0 -5 -5 -10 -11 -10 -5 0 -7
5 -4 10 3 6 8 10 11 10 2 0 4 -4 4 -10z m1767 -22 c41 -40 42 -58 3 -58 -22 0
-33 6 -40 23 -7 17 -9 18 -9 5 -1 -13 -9 -18 -31 -18 -16 0 -30 3 -30 7 0 8
61 73 69 73 3 0 20 -14 38 -32z m1027 17 c6 -18 -2 -45 -15 -45 -5 0 -9 7 -9
15 0 8 -8 15 -17 15 -15 0 -14 2 3 15 24 18 31 18 38 0z m86 -6 c0 -5 -7 -9
-15 -9 -15 0 -20 12 -9 23 8 8 24 -1 24 -14z m-5064 -4 c-11 -8 -22 -12 -25
-9 -6 6 19 24 34 24 6 -1 1 -7 -9 -15z m1158 -20 c13 -20 13 -25 1 -35 -11 -9
-16 -7 -25 10 -6 12 -13 30 -15 40 -5 25 19 16 39 -15z m966 15 c0 -4 -11 -11
-25 -14 -14 -4 -25 -11 -25 -17 0 -6 -5 -7 -11 -4 -6 4 1 16 17 30 26 22 44
25 44 5z m2135 10 c3 -5 1 -10 -4 -10 -6 0 -11 5 -11 10 0 6 2 10 4 10 3 0 8
-4 11 -10z m408 -4 c4 -10 1 -13 -9 -9 -15 6 -19 23 -5 23 5 0 11 -7 14 -14z
m423 -13 c-10 -10 -19 5 -10 18 6 11 8 11 12 0 2 -7 1 -15 -2 -18z m-4694 -11
c-7 -2 -9 -14 -6 -28 6 -24 -3 -29 -53 -27 -7 1 -13 -3 -13 -8 0 -5 -10 -9
-22 -9 -23 1 -23 1 -3 16 13 11 16 18 8 21 -16 6 -5 33 14 33 13 0 13 -3 3
-15 -21 -25 3 -16 40 16 22 19 36 25 39 17 2 -6 -1 -14 -7 -16z m1348 19 c0
-12 -20 -25 -27 -18 -7 7 6 27 18 27 5 0 9 -4 9 -9z m750 -6 c0 -8 -4 -15 -10
-15 -5 0 -7 7 -4 15 4 8 8 15 10 15 2 0 4 -7 4 -15z m490 -7 c-21 -23 -36 -19
-27 7 4 8 16 15 27 15 l21 0 -21 -22z m1213 2 c3 -11 1 -20 -4 -20 -5 0 -9 9
-9 20 0 11 2 20 4 20 2 0 6 -9 9 -20z m397 -15 c0 -14 -30 -29 -39 -19 -3 4 0
9 7 11 6 3 12 11 12 19 0 9 5 12 10 9 6 -3 10 -12 10 -20z m132 -5 c-3 -25
-28 -60 -44 -60 -13 0 -10 64 4 78 20 20 43 9 40 -18z m-3792 -1 c0 -5 -4 -9
-10 -9 -5 0 -10 7 -10 16 0 8 5 12 10 9 6 -3 10 -10 10 -16z m2646 10 c3 -6 0
-17 -7 -25 -12 -11 -14 -9 -15 11 -2 26 10 33 22 14z m669 2 c3 -5 1 -12 -5
-16 -5 -3 -10 1 -10 9 0 18 6 21 15 7z m385 -12 c0 -5 -7 -9 -15 -9 -8 0 -15
7 -15 15 0 9 6 12 15 9 8 -4 15 -10 15 -15z m-3920 -20 c0 -4 -8 -13 -17 -20
-15 -13 -16 -12 -11 9 4 12 2 22 -3 22 -5 0 -9 5 -9 10 0 6 8 5 20 -2 11 -7
20 -16 20 -19z m1054 10 c-6 -11 -24 -2 -24 11 0 5 7 7 15 4 8 -4 12 -10 9
-15z m2381 1 c0 -7 -6 -15 -12 -17 -8 -3 -13 4 -13 17 0 13 5 20 13 18 6 -3
12 -11 12 -18z m-2145 1 c0 -5 -7 -11 -14 -14 -10 -4 -13 -1 -9 9 6 15 23 19
23 5z m1347 3 c-3 -3 -12 -4 -19 -1 -8 3 -5 6 6 6 11 1 17 -2 13 -5z m417 -3
c3 -5 -6 -8 -19 -8 -14 0 -28 3 -31 8 -3 5 6 9 20 9 14 0 27 -4 30 -9z m744
-3 c-2 -6 -10 -14 -16 -16 -7 -2 -10 2 -6 12 7 18 28 22 22 4z m-3653 -8 c3
-5 -1 -10 -9 -10 -9 0 -16 5 -16 10 0 6 4 10 9 10 6 0 13 -4 16 -10z m1655 0
c0 -5 -5 -10 -11 -10 -5 0 -7 5 -4 10 3 6 8 10 11 10 2 0 4 -4 4 -10z m2549
-14 c24 -13 24 -14 4 -24 -32 -18 -103 -27 -103 -13 0 19 -2 25 -11 43 -9 16
-5 17 38 12 26 -3 58 -11 72 -18z m-3889 -6 c0 -5 -5 -10 -11 -10 -5 0 -7 5
-4 10 3 6 8 10 11 10 2 0 4 -4 4 -10z m605 -15 c0 -11 -10 -31 -23 -45 -19
-21 -24 -23 -32 -10 -11 17 -13 42 -4 65 10 24 59 16 59 -10z m206 -19 c2 -5
-7 -10 -21 -12 -14 -1 -20 -1 -13 2 6 3 9 17 7 32 -5 26 -4 26 9 7 8 -11 16
-24 18 -29z m1359 35 c0 -17 -29 -33 -50 -26 -28 9 -25 23 8 28 15 2 30 5 35
6 4 0 7 -3 7 -8z m280 -7 c0 -8 -4 -12 -10 -9 -5 3 -10 10 -10 16 0 5 5 9 10
9 6 0 10 -7 10 -16z m405 0 c9 -9 14 -18 11 -21 -6 -6 -46 20 -46 29 0 13 18
9 35 -8z m500 6 c4 -6 -6 -10 -22 -10 -22 0 -25 2 -13 10 19 12 27 12 35 0z
m585 0 c0 -5 -5 -10 -11 -10 -5 0 -7 5 -4 10 3 6 8 10 11 10 2 0 4 -4 4 -10z
m-3890 -4 c0 -11 -19 -15 -25 -6 -3 5 1 10 9 10 9 0 16 -2 16 -4z m3695 -6 c3
-5 1 -10 -4 -10 -6 0 -11 5 -11 10 0 6 2 10 4 10 3 0 8 -4 11 -10z m-3265 -14
c0 -7 -6 -19 -14 -25 -12 -10 -17 -8 -26 8 -12 23 -1 28 19 9 10 -11 11 -10 6
5 -4 10 -2 17 4 17 6 0 11 -6 11 -14z m2040 0 c0 -3 -4 -8 -10 -11 -5 -3 -10
-1 -10 4 0 6 5 11 10 11 6 0 10 -2 10 -4z m520 0 c0 -3 -4 -8 -10 -11 -5 -3
-10 -1 -10 4 0 6 5 11 10 11 6 0 10 -2 10 -4z m990 -3 c-1 -19 -19 -35 -30
-28 -10 6 -9 11 5 22 22 15 25 16 25 6z m-4880 -9 c23 -5 28 -9 18 -16 -11 -8
-11 -10 0 -15 10 -4 9 -9 -4 -24 -14 -15 -20 -17 -32 -7 -26 22 -42 18 -42
-11 0 -18 -5 -28 -15 -28 -10 0 -14 7 -10 19 3 10 8 27 11 38 3 11 10 20 15
20 5 0 9 7 9 15 0 17 4 18 50 9z m277 -35 c-3 -17 -26 -49 -28 -39 0 3 -3 16
-5 30 -2 13 -2 31 1 38 8 21 35 -5 32 -29z m213 25 c0 -8 -4 -12 -10 -9 -5 3
-10 10 -10 16 0 5 5 9 10 9 6 0 10 -7 10 -16z m2350 12 c0 -3 -4 -8 -10 -11
-5 -3 -10 -1 -10 4 0 6 5 11 10 11 6 0 10 -2 10 -4z m665 -7 c11 -16 1 -19
-13 -3 -7 8 -8 14 -3 14 5 0 13 -5 16 -11z m345 7 c0 -3 -4 -8 -10 -11 -5 -3
-10 -1 -10 4 0 6 5 11 10 11 6 0 10 -2 10 -4z m-3092 -28 c-5 -15 -23 -11 -26
6 -2 11 2 14 13 10 9 -4 14 -11 13 -16z m2460 8 c-7 -8 -15 -12 -17 -11 -5 6
10 25 20 25 5 0 4 -6 -3 -14z m1402 3 c0 -5 -4 -8 -8 -5 -5 3 -15 -4 -22 -15
-8 -10 -24 -19 -35 -19 -20 1 -20 1 0 12 11 7 26 18 33 25 16 16 32 17 32 2z
m-1340 -13 c0 -14 -29 -30 -38 -21 -3 3 0 5 8 5 10 0 10 3 0 15 -10 13 -9 15
9 15 11 0 21 -6 21 -14z m1220 4 c0 -4 -7 -13 -15 -20 -12 -10 -18 -10 -31 1
-14 12 -14 14 2 19 24 9 44 8 44 0z m-3845 -10 c-3 -5 -13 -10 -21 -10 -8 0
-12 5 -9 10 3 6 13 10 21 10 8 0 12 -4 9 -10z m1265 -4 c0 -23 -16 -27 -17 -5
-1 10 2 19 8 19 5 0 9 -6 9 -14z m96 -12 c-4 -9 -9 -15 -11 -12 -3 3 -3 13 1
22 4 9 9 15 11 12 3 -3 3 -13 -1 -22z m64 11 c-7 -9 -15 -13 -17 -11 -7 7 7
26 19 26 6 0 6 -6 -2 -15z m1350 0 c0 -8 -4 -15 -10 -15 -5 0 -7 7 -4 15 4 8
8 15 10 15 2 0 4 -7 4 -15z m1093 0 c4 -8 2 -17 -3 -20 -6 -4 -10 3 -10 14 0
25 6 27 13 6z m-2853 -10 c7 -8 8 -15 2 -15 -5 0 -15 7 -22 15 -7 8 -8 15 -2
15 5 0 15 -7 22 -15z m80 11 c0 -3 -4 -8 -10 -11 -5 -3 -10 -1 -10 4 0 6 5 11
10 11 6 0 10 -2 10 -4z m3040 -16 c0 -5 3 -17 7 -27 5 -15 1 -13 -20 6 -15 13
-24 28 -21 32 6 10 34 0 34 -11z m-4435 -10 c-3 -5 -13 -10 -21 -10 -8 0 -14
5 -14 10 0 6 9 10 21 10 11 0 17 -4 14 -10z m622 -12 c-3 -8 -6 -5 -6 6 -1 11
2 17 5 13 3 -3 4 -12 1 -19z m3757 1 c-6 -11 -24 -2 -24 11 0 5 7 7 15 4 8 -4
12 -10 9 -15z m-3074 -31 c0 -4 -9 1 -20 12 -11 11 -20 23 -20 27 0 3 9 -2 20
-12 11 -10 20 -22 20 -27z m372 10 c-12 -12 -35 -1 -27 12 3 5 13 6 21 3 10
-4 12 -9 6 -15z m2738 12 c0 -5 -4 -10 -10 -10 -5 0 -10 5 -10 10 0 6 5 10 10
10 6 0 10 -4 10 -10z m-4750 -20 c0 -5 -5 -10 -11 -10 -5 0 -7 5 -4 10 3 6 8
10 11 10 2 0 4 -4 4 -10z m4910 -11 c0 -6 -4 -7 -10 -4 -5 3 -10 11 -10 16 0
6 5 7 10 4 6 -3 10 -11 10 -16z m-2670 1 c0 -5 -7 -7 -15 -4 -8 4 -15 8 -15
10 0 2 7 4 15 4 8 0 15 -4 15 -10z m1240 6 c0 -3 -4 -8 -10 -11 -5 -3 -10 -1
-10 4 0 6 5 11 10 11 6 0 10 -2 10 -4z m-3630 -16 c0 -5 -5 -10 -11 -10 -5 0
-7 5 -4 10 3 6 8 10 11 10 2 0 4 -4 4 -10z m295 0 c3 -5 -1 -10 -10 -10 -9 0
-13 5 -10 10 3 6 8 10 10 10 2 0 7 -4 10 -10z m-239 -17 c-10 -11 -37 -12 -30
-2 3 5 12 9 21 9 9 0 13 -3 9 -7z m169 -14 c-10 -15 -25 -10 -19 6 4 8 10 12
15 9 5 -3 7 -10 4 -15z m4825 6 c14 -16 10 -18 -14 -9 -9 3 -16 10 -16 15 0
14 16 11 30 -6z m175 5 c3 -6 -1 -7 -9 -4 -18 7 -21 14 -7 14 6 0 13 -4 16
-10z m-3088 -22 c-3 -8 -6 -5 -6 6 -1 11 2 17 5 13 3 -3 4 -12 1 -19z m448 -8
c3 -5 2 -10 -4 -10 -5 0 -13 5 -16 10 -3 6 -2 10 4 10 5 0 13 -4 16 -10z"/>
<path d="M3956 2107 c3 -10 9 -15 12 -12 3 3 0 11 -7 18 -10 9 -11 8 -5 -6z"/>
<path d="M1093 1855 c0 -8 4 -12 9 -9 5 3 6 10 3 15 -9 13 -12 11 -12 -6z"/>
<path d="M4211 2014 c0 -11 3 -14 6 -6 3 7 2 16 -1 19 -3 4 -6 -2 -5 -13z"/>
<path d="M4057 1888 c-7 -5 -2 -8 16 -8 33 0 34 -6 5 -39 -14 -15 -8 -12 13 7
19 18 38 29 42 26 4 -4 7 -3 7 3 0 13 -66 22 -83 11z"/>
<path d="M4050 1515 c13 -14 26 -25 28 -25 3 0 -5 11 -18 25 -13 14 -26 25
-28 25 -3 0 5 -11 18 -25z"/>
<path d="M4064 1428 l-19 -23 23 19 c12 11 22 21 22 23 0 8 -8 2 -26 -19z"/>
<path d="M4125 1430 c10 -11 20 -20 23 -20 3 0 -3 9 -13 20 -10 11 -20 20 -23
20 -3 0 3 -9 13 -20z"/>
<path d="M4096 1255 c4 -10 10 -12 18 -7 6 5 18 12 26 15 8 3 1 6 -17 6 -25 1
-31 -2 -27 -14z"/>
<path d="M3427 1053 c-15 -14 -4 -22 76 -56 102 -44 168 -60 182 -45 7 8 6 9
-2 4 -8 -5 -13 -1 -13 10 0 10 -3 15 -6 11 -6 -6 -172 59 -188 74 -12 11 -40
12 -49 2z"/>
<path d="M3415 930 c3 -5 8 -10 11 -10 2 0 4 5 4 10 0 6 -5 10 -11 10 -5 0 -7
-4 -4 -10z"/>
<path d="M3493 785 c-18 -20 -16 -24 7 -18 11 3 20 12 20 19 0 18 -11 17 -27
-1z"/>
<path d="M3491 582 l-23 -4 27 -14 c16 -8 29 -13 29 -12 1 2 7 10 13 18 13 17
1 20 -46 12z"/>
<path d="M4072 1041 c9 -15 9 -23 -3 -38 -13 -16 -12 -17 3 -5 10 8 23 10 30
6 10 -6 9 -3 -1 9 -7 9 -10 17 -7 17 4 0 1 7 -8 15 -21 21 -28 19 -14 -4z"/>
<path d="M4018 935 c-35 -58 -28 -58 12 0 17 25 27 45 23 45 -4 0 -20 -21 -35
-45z"/>
<path d="M3961 866 c-19 -11 -21 -14 -7 -19 10 -4 20 1 26 13 12 23 12 23 -19
6z"/>
<path d="M4315 870 c21 -24 26 -25 19 -6 -3 8 -13 17 -22 21 -13 5 -13 2 3
-15z"/>
<path d="M4355 820 c10 -11 20 -20 23 -20 3 0 -3 9 -13 20 -10 11 -20 20 -23
20 -3 0 3 -9 13 -20z"/>
<path d="M789 894 c-7 -9 -13 -24 -14 -34 -1 -17 0 -17 22 -3 23 16 30 37 14
47 -5 3 -15 -1 -22 -10z"/>
<path d="M805 850 c-3 -5 -2 -10 4 -10 5 0 13 5 16 10 3 6 2 10 -4 10 -5 0
-13 -4 -16 -10z"/>
<path d="M3750 800 c-13 -8 -13 -10 2 -10 9 0 20 5 23 10 8 13 -5 13 -25 0z"/>
<path d="M3171 741 c-8 -5 -9 -11 -3 -15 5 -3 12 1 16 9 6 17 6 18 -13 6z"/>
<path d="M3938 763 c6 -2 18 -2 25 0 6 3 1 5 -13 5 -14 0 -19 -2 -12 -5z"/>
<path d="M4110 585 c-14 -16 -3 -20 19 -6 8 5 9 11 3 15 -5 3 -15 -1 -22 -9z"/>
<path d="M4019 543 c-10 -11 -10 -14 -1 -9 8 5 12 0 12 -15 0 -29 7 -21 14 14
5 31 -5 35 -25 10z"/>
<path d="M2395 419 c-4 -6 -5 -13 -2 -16 7 -7 27 6 27 18 0 12 -17 12 -25 -2z"/>
<path d="M2529 278 c5 -14 15 -22 26 -20 11 2 14 -1 9 -9 -5 -9 -2 -10 9 -6
10 3 17 2 17 -2 0 -5 9 -7 19 -4 18 5 18 6 -2 26 -12 12 -27 21 -34 19 -7 -2
-22 2 -33 8 -18 9 -19 8 -11 -12z"/>
<path d="M4020 339 c0 -5 5 -7 10 -4 6 3 10 8 10 11 0 2 -4 4 -10 4 -5 0 -10
-5 -10 -11z"/>
<path d="M1250 210 c0 -5 4 -10 9 -10 6 0 13 5 16 10 3 6 -1 10 -9 10 -9 0
-16 -4 -16 -10z"/>
<path d="M4080 299 c0 -5 5 -7 10 -4 6 3 10 8 10 11 0 2 -4 4 -10 4 -5 0 -10
-5 -10 -11z"/>
<path d="M2501 2565 c0 -5 29 -66 64 -135 35 -69 64 -120 64 -115 0 6 -29 66
-64 135 -35 69 -64 121 -64 115z"/>
<path d="M3926 2545 c-11 -8 -15 -15 -9 -15 7 0 14 -10 16 -22 4 -23 4 -23 6
0 0 15 9 26 22 29 16 4 17 8 7 14 -17 11 -20 11 -42 -6z"/>
<path d="M4655 2550 c-3 -5 -1 -10 4 -10 6 0 11 5 11 10 0 6 -2 10 -4 10 -3 0
-8 -4 -11 -10z"/>
<path d="M3870 2520 c-8 -5 -10 -10 -5 -10 6 0 17 5 25 10 8 5 11 10 5 10 -5
0 -17 -5 -25 -10z"/>
<path d="M4378 2503 c6 -2 18 -2 25 0 6 3 1 5 -13 5 -14 0 -19 -2 -12 -5z"/>
<path d="M1118 2467 c-3 -19 -2 -25 4 -19 6 6 8 18 6 28 -3 14 -5 12 -10 -9z"/>
<path d="M1162 2470 c0 -14 2 -19 5 -12 2 6 2 18 0 25 -3 6 -5 1 -5 -13z"/>
<path d="M1161 2424 c0 -11 3 -14 6 -6 3 7 2 16 -1 19 -3 4 -6 -2 -5 -13z"/>
<path d="M4735 2386 c35 -30 20 -35 -18 -6 -14 11 -29 20 -33 20 -14 0 58 -49
126 -87 36 -20 73 -43 83 -52 10 -8 18 -11 17 -6 -5 24 1 27 20 10 20 -18 20
-18 17 5 -2 15 -11 24 -24 25 -18 1 -87 37 -183 96 l-35 21 30 -26z m105 -66
c36 -22 61 -40 56 -40 -11 0 -136 69 -136 75 0 11 18 2 80 -35z"/>
<path d="M1088 2372 c-16 -2 -28 -8 -28 -14 0 -6 11 -7 27 -3 47 11 47 23 1
17z"/>
<path d="M968 2349 c-21 -11 -38 -22 -38 -25 0 -2 9 0 21 6 11 6 30 13 41 15
25 5 32 11 21 18 -4 3 -25 -4 -45 -14z"/>
<path d="M3540 2315 c0 -2 10 -10 23 -16 20 -11 21 -11 8 4 -13 16 -31 23 -31
12z"/>
<path d="M4960 2284 c0 -8 5 -12 10 -9 6 4 8 11 5 16 -9 14 -15 11 -15 -7z"/>
<path d="M3580 2280 c-13 -9 -12 -12 5 -26 28 -21 197 -106 191 -95 -3 5 4 11
15 14 17 5 -3 18 -86 61 -59 31 -108 56 -109 56 0 0 -8 -5 -16 -10z"/>
<path d="M820 2270 c-9 -6 -10 -10 -3 -10 6 0 15 5 18 10 8 12 4 12 -15 0z"/>
<path d="M4974 2228 c-4 -7 -3 -8 5 -4 6 4 20 2 29 -6 15 -12 16 -11 3 5 -16
20 -27 22 -37 5z"/>
<path d="M1426 2221 c-6 -9 35 -24 43 -15 6 5 -18 24 -31 24 -4 0 -9 -4 -12
-9z"/>
<path d="M1485 2191 c-6 -11 0 -16 90 -59 75 -36 167 -58 159 -37 -3 6 -21 17
-42 24 -20 8 -70 29 -111 47 -80 37 -87 39 -96 25z"/>
<path d="M1271 2164 c0 -11 3 -14 6 -6 3 7 2 16 -1 19 -3 4 -6 -2 -5 -13z"/>
<path d="M702 2151 c-11 -7 -10 -10 3 -15 19 -7 35 0 35 15 0 11 -20 12 -38 0z"/>
<path d="M1271 2124 c0 -11 3 -14 6 -6 3 7 2 16 -1 19 -3 4 -6 -2 -5 -13z"/>
<path d="M540 2126 c0 -2 8 -10 18 -17 15 -13 16 -12 3 4 -13 16 -21 21 -21
13z"/>
<path d="M1807 2049 c7 -7 15 -10 18 -7 3 3 -2 9 -12 12 -14 6 -15 5 -6 -5z"/>
<path d="M5450 2025 c-13 -14 -19 -25 -14 -25 8 1 50 50 41 50 -2 0 -14 -11
-27 -25z"/>
<path d="M5335 1893 c-38 -43 -59 -69 -46 -58 27 23 125 135 119 135 -3 0 -36
-35 -73 -77z"/>
<path d="M1008 1912 c-1 -4 -23 -22 -47 -40 -33 -24 -47 -29 -53 -19 -5 8 -8
7 -8 -5 0 -9 -8 -22 -17 -27 -10 -6 -12 -11 -5 -11 6 0 13 -10 13 -22 1 -21 2
-21 6 -3 8 32 98 109 115 99 7 -5 8 -2 3 6 -6 9 -2 10 16 5 21 -7 22 -6 7 9
-18 18 -25 20 -30 8z"/>
<path d="M3760 1910 c-8 -5 -10 -10 -5 -10 6 0 17 5 25 10 8 5 11 10 5 10 -5
0 -17 -5 -25 -10z"/>
<path d="M4354 1903 c4 -4 19 -9 34 -10 21 -3 24 -1 12 7 -17 11 -57 14 -46 3z"/>
<path d="M3685 1881 c-22 -11 -35 -19 -30 -19 14 -1 93 36 80 37 -5 0 -28 -8
-50 -18z"/>
<path d="M2840 1856 c0 -14 2 -26 4 -26 2 0 13 -3 23 -6 17 -5 17 -5 -1 10
-10 8 -15 19 -12 25 4 5 2 12 -4 16 -6 4 -10 -5 -10 -19z"/>
<path d="M4298 1842 c-3 -11 0 -19 8 -19 8 0 14 9 14 19 0 10 -4 18 -9 18 -5
0 -11 -8 -13 -18z"/>
<path d="M2797 1830 c3 -11 9 -17 14 -15 10 7 1 35 -11 35 -5 0 -6 -9 -3 -20z"/>
<path d="M3545 1825 c-23 -11 -25 -14 -10 -14 11 0 29 6 39 14 24 18 11 18
-29 0z"/>
<path d="M3748 1823 c7 -3 16 -2 19 1 4 3 -2 6 -13 5 -11 0 -14 -3 -6 -6z"/>
<path d="M3708 1813 c7 -3 16 -2 19 1 4 3 -2 6 -13 5 -11 0 -14 -3 -6 -6z"/>
<path d="M3668 1803 c7 -3 16 -2 19 1 4 3 -2 6 -13 5 -11 0 -14 -3 -6 -6z"/>
<path d="M3628 1793 c7 -3 16 -2 19 1 4 3 -2 6 -13 5 -11 0 -14 -3 -6 -6z"/>
<path d="M3588 1783 c7 -3 16 -2 19 1 4 3 -2 6 -13 5 -11 0 -14 -3 -6 -6z"/>
<path d="M5214 1758 l-29 -33 33 29 c17 17 32 31 32 33 0 8 -8 1 -36 -29z"/>
<path d="M770 1770 c-8 -5 -10 -10 -5 -10 6 0 17 5 25 10 8 5 11 10 5 10 -5 0
-17 -5 -25 -10z"/>
<path d="M3400 1770 c-8 -5 -10 -10 -5 -10 6 0 17 5 25 10 8 5 11 10 5 10 -5
0 -17 -5 -25 -10z"/>
<path d="M3538 1773 c7 -3 16 -2 19 1 4 3 -2 6 -13 5 -11 0 -14 -3 -6 -6z"/>
<path d="M1380 1740 c8 -5 22 -9 30 -9 10 0 8 3 -5 9 -27 12 -43 12 -25 0z"/>
<path d="M640 1710 c-13 -8 -13 -10 2 -10 9 0 20 5 23 10 8 13 -5 13 -25 0z"/>
<path d="M530 1660 c-8 -5 -10 -10 -5 -10 6 0 17 5 25 10 8 5 11 10 5 10 -5 0
-17 -5 -25 -10z"/>
<path d="M3240 1659 c0 -11 29 -19 45 -13 26 10 16 23 -15 21 -16 -1 -30 -5
-30 -8z"/>
<path d="M1597 1650 c15 -14 53 -22 53 -11 0 12 -1 12 -38 16 -13 1 -20 -1
-15 -5z"/>
<path d="M3306 1642 c-15 -14 1 -27 96 -72 64 -30 105 -45 109 -39 3 6 9 10
13 10 24 -3 27 2 6 12 -14 6 -56 26 -95 45 -80 39 -121 53 -129 44z"/>
<path d="M1662 1623 c3 -19 166 -90 222 -97 28 -4 34 -2 29 10 -3 7 -11 14
-18 14 -7 0 -51 16 -97 36 -117 51 -140 57 -136 37z"/>
<path d="M5083 1605 c0 -8 4 -12 9 -9 5 3 6 10 3 15 -9 13 -12 11 -12 -6z"/>
<path d="M1288 1563 c5 -59 10 -63 11 -10 1 26 -3 47 -7 47 -4 0 -6 -17 -4
-37z"/>
<path d="M455 1571 c-3 -5 -1 -12 5 -16 12 -7 30 2 30 16 0 12 -27 12 -35 0z"/>
<path d="M510 1545 c0 -16 200 -96 229 -92 33 5 35 16 5 23 -16 4 -63 20 -104
37 -110 43 -130 48 -130 32z"/>
<path d="M1230 1533 c13 -18 25 -33 27 -33 8 0 -17 38 -33 51 -11 9 -9 2 6
-18z"/>
<path d="M3255 1520 c3 -5 11 -10 16 -10 6 0 7 5 4 10 -3 6 -11 10 -16 10 -6
0 -7 -4 -4 -10z"/>
<path d="M1990 1490 c0 -5 5 -10 11 -10 5 0 7 5 4 10 -3 6 -8 10 -11 10 -2 0
-4 -4 -4 -10z"/>
<path d="M812 1405 c-7 -32 -10 -60 -8 -62 6 -6 28 95 24 109 -3 7 -10 -14
-16 -47z"/>
<path d="M4890 1430 c-19 -16 -30 -29 -25 -29 12 0 35 17 54 42 20 25 10 21
-29 -13z"/>
<path d="M2785 1410 c-3 -5 -1 -10 4 -10 6 0 11 5 11 10 0 6 -2 10 -4 10 -3 0
-8 -4 -11 -10z"/>
<path d="M4827 1376 c-4 -10 -1 -13 9 -9 7 3 14 9 14 14 0 14 -17 10 -23 -5z"/>
<path d="M1200 1376 c0 -2 8 -10 18 -17 15 -13 16 -12 3 4 -13 16 -21 21 -21
13z"/>
<path d="M3688 1289 c-32 -16 -58 -32 -58 -34 0 -3 27 8 60 25 33 17 60 32 60
35 0 7 2 8 -62 -26z"/>
<path d="M1210 1256 c6 -8 19 -12 27 -9 14 6 14 8 -3 14 -30 12 -37 10 -24 -5z"/>
<path d="M666 1205 c-43 -29 -83 -59 -90 -66 -6 -6 31 16 82 50 50 34 92 64
92 66 0 7 1 8 -84 -50z"/>
<path d="M3478 1179 c-43 -21 -78 -41 -78 -44 0 -3 36 13 80 35 44 22 80 42
80 45 0 7 4 8 -82 -36z"/>
<path d="M5571 1133 c-7 -8 -17 -11 -22 -7 -6 3 -3 -8 6 -25 9 -18 23 -35 31
-38 8 -3 13 -12 9 -20 -4 -11 -1 -13 10 -9 9 3 14 2 10 -3 -7 -12 43 -51 64
-50 9 0 1 8 -16 16 -44 22 -42 36 2 17 46 -19 55 -17 26 6 -18 15 -19 20 -7
20 28 0 17 17 -14 24 -16 3 -30 10 -30 15 0 5 -13 22 -29 38 -23 23 -30 26
-40 16z m39 -36 c21 -25 22 -27 5 -21 -23 9 -35 23 -35 43 0 8 1 12 3 10 1 -2
13 -17 27 -32z"/>
<path d="M5395 1110 c-3 -5 -1 -10 4 -10 6 0 11 5 11 10 0 6 -2 10 -4 10 -3 0
-8 -4 -11 -10z"/>
<path d="M5427 1105 c-4 -8 -1 -18 5 -21 8 -5 5 -10 -7 -14 -17 -6 -17 -7 -1
-13 13 -5 19 -1 23 12 3 13 11 17 24 14 15 -4 18 -1 13 11 -5 12 -10 13 -27 5
-17 -10 -19 -9 -14 5 4 9 2 16 -2 16 -5 0 -11 -7 -14 -15z"/>
<path d="M1445 1080 c3 -5 17 -10 31 -10 14 0 22 4 19 10 -3 6 -17 10 -31 10
-14 0 -22 -4 -19 -10z"/>
<path d="M1506 1062 c-8 -14 -5 -16 103 -57 81 -31 130 -40 155 -27 5 3 -40
23 -100 44 -133 48 -150 53 -158 40z"/>
<path d="M5540 1065 c0 -2 10 -10 23 -16 20 -11 21 -11 8 4 -13 16 -31 23 -31
12z"/>
<path d="M3104 1009 c-3 -6 -2 -15 3 -20 5 -5 9 -1 9 11 0 23 -2 24 -12 9z"/>
<path d="M3163 986 c7 -19 -27 -41 -46 -30 -7 5 -6 0 3 -10 8 -11 16 -14 18
-7 5 14 29 14 34 0 5 -15 31 -2 47 24 14 22 14 22 -8 3 -21 -19 -21 -19 -19 4
2 17 -3 25 -16 28 -14 3 -17 0 -13 -12z"/>
<path d="M5160 926 c0 -2 7 -7 16 -10 8 -3 12 -2 9 4 -6 10 -25 14 -25 6z"/>
<path d="M5210 906 c0 -2 9 -6 20 -9 11 -3 18 -1 14 4 -5 9 -34 13 -34 5z"/>
<path d="M5394 880 c-25 -10 -33 -44 -26 -106 6 -52 28 -59 68 -19 14 14 32
25 41 25 13 0 13 3 3 15 -7 8 -8 15 -3 15 5 0 16 -9 26 -20 23 -27 35 -25 30
4 -6 30 -60 82 -93 89 -14 3 -35 2 -46 -3z m36 -30 c0 -5 -2 -10 -4 -10 -3 0
-8 5 -11 10 -3 6 -1 10 4 10 6 0 11 -4 11 -10z m40 -6 c0 -14 -3 -14 -15 -4
-8 7 -15 14 -15 16 0 2 7 4 15 4 8 0 15 -7 15 -16z m-19 -31 c13 -16 12 -17
-3 -4 -10 7 -18 15 -18 17 0 8 8 3 21 -13z m-11 -37 c0 -2 -7 -7 -16 -10 -8
-3 -12 -2 -9 4 6 10 25 14 25 6z"/>
<path d="M1690 823 c0 -6 -3 -18 -6 -26 -6 -16 32 -31 42 -16 3 5 -2 9 -11 9
-9 0 -14 4 -11 8 2 4 1 14 -5 22 -5 9 -9 10 -9 3z"/>
<path d="M1730 814 c0 -8 5 -12 10 -9 6 4 8 11 5 16 -9 14 -15 11 -15 -7z"/>
<path d="M5125 799 c-10 -14 -1 -21 19 -13 9 3 13 10 10 15 -7 12 -21 11 -29
-2z"/>
<path d="M6018 793 c7 -3 16 -2 19 1 4 3 -2 6 -13 5 -11 0 -14 -3 -6 -6z"/>
<path d="M2980 765 c7 -9 15 -13 17 -11 7 7 -7 26 -19 26 -6 0 -6 -6 2 -15z"/>
<path d="M2515 760 c-7 -12 -7 -12 23 -15 13 -1 22 3 22 11 0 16 -36 19 -45 4z"/>
<path d="M2572 748 c-7 -7 -30 -18 -50 -25 -24 -8 -28 -11 -11 -10 14 2 31 -2
37 -10 23 -24 40 -15 39 22 -1 19 -1 35 -2 35 -1 0 -7 -6 -13 -12z"/>
<path d="M5008 619 c-10 -5 -18 -14 -18 -19 0 -16 30 -11 37 6 3 8 12 13 19
10 8 -3 14 -1 14 4 0 13 -30 12 -52 -1z"/>
<path d="M6080 626 c0 -2 9 -6 20 -9 11 -3 18 -1 14 4 -5 9 -34 13 -34 5z"/>
<path d="M2833 575 c0 -22 2 -30 4 -17 2 12 2 30 0 40 -3 9 -5 -1 -4 -23z"/>
<path d="M2152 563 c2 -9 9 -18 16 -19 8 -2 8 0 1 3 -8 4 -8 7 1 13 8 5 7 9
-5 14 -12 4 -16 1 -13 -11z"/>
<path d="M4785 550 c-3 -5 -1 -10 4 -10 6 0 11 5 11 10 0 6 -2 10 -4 10 -3 0
-8 -4 -11 -10z"/>
<path d="M2015 540 c-3 -5 3 -10 15 -10 12 0 18 5 15 10 -3 6 -10 10 -15 10
-5 0 -12 -4 -15 -10z"/>
<path d="M5045 538 c-39 -14 -40 -15 -25 -33 7 -8 9 -23 6 -32 -4 -10 8 0 27
21 26 29 39 37 53 33 18 -7 18 -6 0 8 -23 17 -21 17 -61 3z"/>
<path d="M4730 510 c0 -14 -7 -20 -22 -21 -13 -1 4 -7 37 -14 33 -7 62 -11 65
-8 8 8 -34 34 -47 29 -7 -3 -13 1 -13 8 0 8 6 17 13 19 6 3 2 6 -10 6 -17 1
-23 -5 -23 -19z"/>
<path d="M2225 510 c-3 -6 1 -7 9 -4 18 7 21 14 7 14 -6 0 -13 -4 -16 -10z"/>
<path d="M4787 509 c7 -7 15 -10 18 -7 3 3 -2 9 -12 12 -14 6 -15 5 -6 -5z"/>
<path d="M4881 466 c-31 -32 -23 -54 8 -27 13 12 21 21 16 21 -4 0 -2 7 5 15
21 25 -5 17 -29 -9z"/>
</g>
</svg>
