<?xml version="1.0" standalone="no"?>
<!DOCTYPE svg PUBLIC "-//W3C//DTD SVG 20010904//EN"
 "http://www.w3.org/TR/2001/REC-SVG-20010904/DTD/svg10.dtd">
<svg version="1.0" xmlns="http://www.w3.org/2000/svg"
 width="1758.000000pt" height="411.000000pt" viewBox="0 0 1758.000000 411.000000"
 preserveAspectRatio="xMidYMid meet">

<g transform="translate(0.000000,411.000000) scale(0.100000,-0.100000)"
fill="#000000" stroke="none">
<path d="M2115 4084 c-11 -2 -50 -11 -87 -20 -142 -32 -280 -106 -362 -194
-50 -53 -55 -65 -30 -74 37 -14 3 -16 -38 -3 -48 17 -257 41 -506 60 -184 14
-171 21 -151 -73 l11 -51 51 6 c29 4 124 2 212 -5 801 -56 1516 -325 1939
-730 188 -180 303 -351 392 -582 52 -134 40 -136 -29 -5 -298 564 -848 914
-1745 1111 -86 19 -176 37 -199 41 l-42 7 -10 -40 c-35 -128 -41 -283 -16
-391 43 -182 174 -340 386 -466 46 -27 172 -87 279 -133 484 -207 729 -358
961 -591 211 -212 326 -423 381 -696 26 -130 28 -367 4 -509 -9 -54 -15 -100
-13 -102 9 -9 134 116 205 205 221 274 358 613 413 1021 14 110 14 399 0 515
-43 335 -149 626 -325 890 -111 167 -312 369 -481 481 -208 139 -442 239 -702
300 -91 22 -137 27 -293 29 -102 2 -194 2 -205 -1z"/>
<path d="M13608 4016 c-138 -38 -217 -154 -206 -299 7 -79 34 -133 94 -186
107 -94 262 -93 369 1 88 77 118 197 79 310 -44 130 -202 212 -336 174z"/>
<path d="M8440 2895 l0 -1095 265 0 265 0 0 393 c0 423 5 468 54 566 54 105
133 154 256 155 95 1 142 -21 187 -88 57 -83 57 -84 60 -573 l4 -453 265 0
265 0 -3 538 c-4 471 -6 544 -21 597 -80 276 -264 415 -552 415 -190 0 -312
-48 -437 -171 l-78 -76 -2 441 -3 441 -262 3 -263 2 0 -1095z"/>
<path d="M12460 2895 l0 -1095 265 0 265 0 -2 1093 -3 1092 -262 3 -263 2 0
-1095z"/>
<path d="M15887 3983 c-4 -3 -7 -496 -7 -1095 l0 -1088 265 0 265 0 0 380 c0
308 3 395 16 457 20 96 51 159 103 206 59 54 103 69 197 71 72 1 85 -2 122
-27 53 -34 86 -85 108 -162 14 -51 18 -126 21 -492 l5 -433 259 0 260 0 -3
543 c-3 478 -6 549 -21 602 -60 206 -197 345 -388 390 -75 17 -236 20 -311 4
-101 -21 -214 -84 -294 -164 l-74 -74 -2 442 -3 442 -256 3 c-140 1 -258 -1
-262 -5z"/>
<path d="M5758 3859 c-268 -33 -493 -144 -591 -292 -60 -91 -89 -194 -90 -317
0 -218 75 -366 237 -469 83 -52 147 -78 346 -141 299 -95 373 -149 373 -276 0
-62 -24 -109 -73 -141 -58 -40 -106 -48 -270 -48 -177 1 -252 17 -394 84 -44
22 -82 38 -84 36 -4 -4 -112 -418 -112 -431 0 -14 121 -48 250 -69 129 -22
450 -31 565 -16 138 18 241 48 345 98 76 37 109 60 165 117 119 121 165 242
166 438 0 169 -36 275 -126 376 -90 100 -214 162 -475 237 -252 73 -329 116
-350 196 -14 50 2 112 36 146 99 99 402 111 618 24 43 -17 81 -29 83 -27 6 5
102 385 103 402 0 12 -126 46 -240 64 -90 15 -389 21 -482 9z"/>
<path d="M548 3398 c-288 -287 -463 -666 -529 -1148 -15 -110 -15 -410 0 -525
33 -252 100 -470 208 -685 83 -165 166 -286 284 -413 242 -262 545 -441 917
-543 437 -119 819 -66 1036 147 l70 68 -20 22 -19 22 33 -17 c20 -10 98 -24
205 -36 199 -22 476 -44 482 -38 3 3 -3 39 -20 113 -4 19 -13 20 -162 21 -486
5 -1056 142 -1499 360 -402 198 -695 468 -863 794 -54 105 -117 260 -106 260
3 0 23 -35 44 -79 56 -110 165 -271 255 -373 281 -321 727 -562 1326 -717 171
-44 413 -92 422 -83 12 12 37 144 43 229 14 173 -49 353 -168 479 -122 131
-241 205 -517 322 -461 196 -736 366 -960 591 -221 223 -349 475 -391 770 -14
101 -6 361 15 471 8 41 13 76 11 78 -2 2 -45 -39 -97 -90z"/>
<path d="M7575 3339 c-316 -31 -573 -194 -686 -434 -53 -111 -72 -205 -72
-355 0 -151 19 -241 73 -354 167 -351 628 -517 1105 -400 129 32 135 34 135
52 0 9 -19 94 -42 188 l-41 171 -66 -28 c-215 -90 -479 -9 -579 179 -109 205
-22 473 186 570 52 25 67 27 182 27 121 0 128 -1 190 -32 36 -17 65 -31 67
-30 9 10 90 364 84 370 -4 4 -39 18 -77 31 -127 43 -305 60 -459 45z"/>
<path d="M14910 3331 c-267 -57 -462 -197 -565 -406 -63 -127 -79 -202 -79
-365 0 -158 15 -233 73 -354 92 -197 268 -335 511 -401 139 -39 340 -45 505
-16 139 24 225 48 225 63 0 13 -81 352 -86 356 -1 2 -32 -8 -68 -22 -121 -49
-276 -45 -392 8 -67 31 -152 110 -187 173 -102 188 -25 455 160 555 110 60
283 63 399 9 37 -17 68 -30 70 -29 9 10 92 364 86 369 -16 15 -125 49 -202 63
-114 22 -339 20 -450 -3z"/>
<path d="M10423 2788 c3 -459 6 -542 21 -598 72 -276 264 -419 562 -420 232 0
426 96 521 257 l28 48 3 -137 3 -138 239 0 240 0 0 760 0 760 -259 0 -259 0
-4 -402 c-4 -366 -7 -409 -25 -469 -50 -169 -138 -241 -293 -243 -106 0 -165
36 -208 128 -37 78 -42 146 -42 573 l0 413 -266 0 -266 0 5 -532z"/>
<path d="M13420 2560 l0 -760 265 0 265 0 0 760 0 760 -265 0 -265 0 0 -760z"/>
<path d="M11233 1274 c-88 -32 -133 -123 -133 -271 l0 -83 -90 0 -90 0 0 -55
0 -55 90 0 90 0 0 -320 0 -320 70 0 70 0 0 320 0 320 95 0 95 0 0 55 0 55 -96
0 -96 0 4 100 c3 93 5 101 30 127 24 24 38 28 98 31 l71 4 -3 52 -3 51 -80 2
c-51 1 -95 -4 -122 -13z"/>
<path d="M6600 720 l0 -550 70 0 70 0 0 223 c0 264 8 304 73 371 63 66 137 82
214 47 30 -14 48 -32 65 -63 22 -41 23 -53 26 -311 l3 -267 70 0 69 0 0 250
c0 321 -14 387 -94 458 -100 88 -309 75 -396 -25 l-30 -34 0 226 0 225 -70 0
-70 0 0 -550z"/>
<path d="M9310 720 l0 -550 70 0 70 0 0 550 0 550 -70 0 -70 0 0 -550z"/>
<path d="M14370 1170 l0 -80 75 0 75 0 0 80 0 80 -75 0 -75 0 0 -80z"/>
<path d="M5416 1210 c-189 -33 -292 -182 -242 -353 24 -82 81 -134 223 -204
167 -82 203 -118 203 -206 0 -56 -31 -104 -89 -136 -57 -31 -157 -32 -251 -2
-75 24 -80 20 -80 -51 0 -27 0 -51 -1 -55 0 -5 19 -14 43 -21 236 -69 471 10
519 175 8 27 14 77 13 113 -1 127 -61 206 -217 285 -186 95 -217 124 -217 203
0 45 26 84 73 109 42 22 175 22 236 -1 24 -9 47 -16 51 -16 8 0 32 121 26 128
-2 2 -28 9 -58 17 -74 18 -174 25 -232 15z"/>
<path d="M11990 684 l0 -516 208 4 c238 6 307 21 379 83 102 87 106 273 6 367
-31 30 -107 67 -138 68 -11 1 6 13 40 29 33 16 72 41 87 57 78 83 76 249 -4
331 -67 69 -172 93 -415 93 l-163 0 0 -516z m414 371 c52 -25 76 -67 76 -133
0 -115 -54 -153 -227 -160 l-113 -5 0 163 0 162 113 -4 c83 -3 122 -9 151 -23z
m1 -446 c64 -31 87 -65 93 -132 11 -131 -75 -187 -285 -187 l-73 0 0 176 0
177 108 -5 c90 -4 118 -9 157 -29z"/>
<path d="M6167 929 c-190 -45 -313 -242 -277 -446 43 -251 256 -376 523 -308
26 7 28 11 23 38 -3 16 -6 44 -6 63 l0 33 -42 -19 c-57 -26 -158 -26 -214 -1
-114 52 -173 213 -130 355 43 144 169 212 316 172 30 -8 57 -13 59 -11 2 2 4
28 5 57 l1 52 -50 12 c-59 14 -155 16 -208 3z"/>
<path d="M7722 924 c-29 -7 -67 -21 -84 -30 -57 -30 -124 -102 -154 -167 -27
-57 -29 -71 -29 -177 0 -104 3 -121 27 -172 91 -196 314 -275 513 -184 187 86
266 333 172 540 -73 159 -262 240 -445 190z m199 -121 c95 -49 144 -147 137
-279 -4 -93 -44 -175 -106 -218 -57 -41 -158 -49 -218 -18 -91 47 -138 134
-138 257 0 96 25 163 83 219 71 69 154 83 242 39z"/>
<path d="M8620 926 c-122 -35 -213 -121 -251 -233 -40 -121 -26 -265 36 -363
116 -184 378 -230 552 -98 109 82 166 237 143 382 -31 193 -163 313 -353 322
-49 2 -100 -2 -127 -10z m214 -130 c170 -99 165 -422 -7 -505 -51 -25 -141
-28 -190 -7 -74 31 -133 122 -143 224 -16 145 57 275 174 313 43 13 120 2 166
-25z"/>
<path d="M10332 925 c-75 -21 -109 -41 -161 -94 -144 -144 -147 -404 -6 -560
45 -50 140 -98 217 -111 170 -27 347 71 409 228 34 83 33 242 0 327 -33 82
-115 164 -196 194 -77 29 -191 36 -263 16z m171 -106 c115 -32 190 -182 166
-333 -11 -65 -26 -99 -65 -145 -77 -92 -240 -97 -321 -9 -77 83 -97 242 -44
354 54 114 153 164 264 133z"/>
<path d="M13875 923 c-107 -39 -155 -104 -155 -210 0 -91 38 -137 171 -204
150 -75 183 -131 120 -201 -29 -32 -31 -33 -113 -33 -64 1 -93 5 -125 22 -40
20 -43 20 -43 3 0 -9 -3 -37 -6 -62 l-6 -45 55 -17 c68 -21 186 -25 250 -7 69
20 133 80 152 144 40 134 -6 213 -169 291 -50 24 -102 56 -115 70 -30 32 -33
86 -6 116 38 42 140 49 221 15 31 -13 32 -12 38 17 13 67 8 85 -26 98 -61 21
-188 23 -243 3z"/>
<path d="M15051 922 c-39 -11 -69 -29 -103 -62 l-48 -46 0 53 0 53 -65 0 -65
0 0 -375 0 -375 65 0 65 0 0 188 c0 275 18 353 94 420 61 53 134 65 202 31 32
-15 49 -32 66 -67 22 -45 23 -59 26 -309 l3 -263 71 0 70 0 -4 278 c-5 315
-10 343 -82 417 -68 71 -178 92 -295 57z"/>
<path d="M15869 926 c-60 -16 -130 -58 -165 -98 -130 -155 -116 -453 28 -583
102 -92 296 -116 461 -58 l47 17 0 69 0 69 -24 -15 c-81 -54 -236 -73 -311
-38 -75 33 -145 136 -145 210 0 21 1 21 270 21 l269 0 -5 53 c-15 149 -47 230
-115 291 -76 68 -197 93 -310 62z m166 -115 c50 -22 91 -69 105 -119 21 -77
33 -72 -186 -72 l-196 0 7 33 c30 138 155 211 270 158z"/>
<path d="M16605 933 c-138 -30 -216 -143 -184 -267 15 -60 68 -108 186 -169
98 -51 133 -84 133 -126 0 -91 -133 -130 -262 -77 l-58 24 0 -64 0 -63 56 -17
c160 -46 328 -3 380 99 42 80 32 192 -22 249 -16 16 -73 52 -128 80 -113 57
-146 87 -146 133 0 82 112 115 238 71 l39 -14 7 55 c4 31 4 58 2 61 -21 20
-184 38 -241 25z"/>
<path d="M17141 921 c-70 -24 -100 -48 -128 -101 -16 -31 -23 -60 -23 -102 0
-100 33 -139 177 -213 100 -51 143 -91 143 -134 0 -88 -127 -129 -252 -81 -61
23 -68 18 -68 -52 l0 -47 56 -17 c31 -9 93 -16 140 -17 72 0 91 4 141 29 72
36 109 83 124 155 23 116 -24 188 -174 261 -136 67 -174 121 -126 181 37 48
121 57 218 23 l39 -13 7 54 c4 30 4 57 1 60 -11 11 -123 33 -171 33 -27 -1
-74 -9 -104 -19z"/>
<path d="M12890 658 c0 -316 8 -356 80 -429 106 -106 309 -97 410 19 l40 45 0
-62 0 -61 65 0 65 0 0 375 0 375 -69 0 -70 0 -3 -232 c-3 -218 -4 -236 -26
-283 -28 -60 -66 -103 -109 -121 -48 -21 -130 -18 -168 6 -68 42 -84 122 -85
433 l0 197 -65 0 -65 0 0 -262z"/>
<path d="M14370 545 l0 -375 70 0 70 0 0 375 0 375 -70 0 -70 0 0 -375z"/>
</g>
</svg>
