<?xml version="1.0" standalone="no"?>
<!DOCTYPE svg PUBLIC "-//W3C//DTD SVG 20010904//EN"
 "http://www.w3.org/TR/2001/REC-SVG-20010904/DTD/svg10.dtd">
<svg version="1.0" xmlns="http://www.w3.org/2000/svg"
 width="2560.000000pt" height="922.000000pt" viewBox="0 0 2560.000000 922.000000"
 preserveAspectRatio="xMidYMid meet">

<g transform="translate(0.000000,922.000000) scale(0.100000,-0.100000)"
fill="#000000" stroke="none">
<path d="M17210 4620 l0 -3670 3670 0 3670 0 0 1328 -1 1327 -29 -110 c-290
-1106 -1161 -1717 -2360 -1654 -1168 61 -1966 790 -2134 1949 -34 231 -36 373
-36 2438 l0 2062 -1390 0 -1390 0 0 -3670z"/>
<path d="M21483 6278 l3 -2013 22 -115 c84 -443 271 -691 589 -782 109 -31
330 -31 448 0 380 101 598 439 635 984 6 85 10 912 10 2041 l0 1897 -855 0
-856 0 4 -2012z"/>
<path d="M6170 7935 c-679 -99 -1243 -564 -1456 -1200 -65 -195 -94 -380 -94
-598 0 -753 458 -1393 1176 -1640 189 -66 387 -97 614 -97 636 0 1167 277
1506 785 282 423 373 945 249 1428 -105 410 -371 785 -730 1027 -229 155 -493
256 -768 295 -123 18 -379 18 -497 0z m521 -218 c124 -32 226 -76 325 -137
387 -240 651 -709 715 -1270 23 -204 -1 -531 -56 -750 -109 -438 -365 -754
-719 -891 -269 -104 -624 -117 -875 -33 -574 192 -981 856 -981 1600 0 850
387 1385 1085 1500 51 9 139 12 245 10 136 -3 182 -8 261 -29z"/>
<path d="M1050 7819 l0 -66 88 -6 c127 -9 176 -29 248 -101 76 -76 90 -100
658 -1120 l457 -818 -4 -462 c-3 -509 -3 -511 -67 -577 -44 -47 -87 -59 -227
-66 l-113 -6 0 -66 0 -66 610 0 610 0 0 66 0 66 -97 6 c-153 9 -206 34 -247
120 -39 79 -45 164 -46 640 l0 439 436 816 c240 449 461 859 491 910 106 181
152 212 329 220 l114 5 0 66 0 66 -475 0 -475 0 0 -66 0 -66 94 -6 c100 -6
148 -22 167 -59 20 -37 4 -128 -39 -229 -44 -104 -733 -1429 -743 -1429 -7 0
-683 1218 -747 1345 -72 146 -89 242 -52 302 27 45 71 64 162 70 l78 6 0 66 0
66 -605 0 -605 0 0 -66z"/>
<path d="M8980 7819 l0 -66 101 -6 c160 -10 230 -53 276 -168 17 -41 18 -126
18 -1404 0 -1278 -1 -1363 -18 -1404 -46 -115 -116 -158 -276 -168 l-101 -6 0
-66 0 -66 620 0 620 0 0 68 0 67 -90 0 c-173 0 -241 33 -279 134 -36 97 -41
189 -41 750 l0 543 103 -4 c219 -9 311 -35 376 -109 21 -24 172 -263 336 -531
354 -580 396 -643 490 -736 82 -82 150 -126 250 -161 104 -36 202 -46 461 -46
l234 0 0 50 c0 36 -4 50 -14 50 -8 0 -59 5 -115 10 -241 25 -344 91 -500 320
-110 162 -743 1222 -735 1230 5 4 27 13 49 20 55 18 207 93 263 132 117 80
217 199 276 330 131 288 106 632 -65 894 -141 216 -337 341 -619 395 -49 10
-261 13 -842 13 l-778 1 0 -66z m1364 -138 c217 -57 388 -197 485 -395 103
-212 124 -426 61 -628 -64 -206 -239 -358 -485 -420 -79 -20 -115 -23 -300
-23 -142 0 -224 4 -252 13 l-43 13 0 724 0 724 53 5 c28 3 70 8 92 10 98 10
311 -3 389 -23z"/>
<path d="M12820 7818 l0 -68 58 0 c201 0 293 -63 327 -226 22 -103 22 -2595 0
-2698 -34 -163 -126 -226 -327 -226 l-58 0 0 -67 0 -68 620 0 620 0 0 66 0 66
-122 5 c-88 3 -132 10 -155 21 -122 64 -143 188 -143 838 l0 387 121 129 c67
70 127 128 133 128 11 0 847 -951 1064 -1210 147 -174 200 -264 226 -374 l12
-54 467 -1 467 -1 0 68 0 67 -57 0 c-226 0 -376 88 -607 354 -123 142 -1220
1427 -1244 1458 -12 14 45 77 476 530 563 590 643 670 731 727 86 55 143 71
284 78 l117 6 0 66 0 66 -570 0 -570 0 0 -67 0 -68 53 0 c118 0 177 -37 184
-116 4 -43 0 -57 -33 -111 -21 -34 -58 -87 -83 -117 -87 -105 -1156 -1295
-1163 -1295 -12 -1 -9 1148 2 1292 23 286 80 347 320 347 l90 0 0 68 0 67
-620 0 -620 0 0 -67z"/>
<path d="M15840 3563 c-30 -43 -56 -81 -58 -85 -2 -4 14 -8 35 -8 35 0 46 8
123 85 l85 85 -65 0 -65 0 -55 -77z"/>
<path d="M11333 3430 c-122 -25 -193 -104 -193 -215 0 -113 34 -150 222 -237
138 -63 174 -92 184 -144 29 -156 -181 -245 -291 -123 -19 21 -35 46 -35 54 0
8 -3 15 -7 15 -7 0 -94 -31 -101 -36 -10 -7 43 -87 75 -113 113 -94 346 -76
426 31 61 82 63 202 5 277 -28 37 -70 62 -201 121 -147 66 -171 91 -165 167 3
33 12 61 24 74 64 72 213 62 254 -17 8 -16 15 -30 16 -31 1 -5 104 31 104 36
0 17 -43 72 -72 94 -57 42 -165 63 -245 47z"/>
<path d="M1342 3118 c6 -357 10 -380 93 -465 40 -41 62 -55 109 -68 126 -37
266 -1 337 84 59 72 63 96 67 439 l3 312 -49 0 -50 0 -4 -302 c-4 -325 -8
-349 -61 -406 -69 -75 -201 -77 -273 -6 -58 58 -64 100 -64 426 l0 288 -56 0
-56 0 4 -302z"/>
<path d="M3110 3005 l0 -415 50 0 50 0 0 353 1 352 47 -90 c26 -49 114 -208
196 -352 l149 -263 73 0 74 0 0 415 0 415 -56 0 -55 0 3 -350 c2 -193 2 -350
1 -350 0 0 -15 28 -31 63 -17 34 -104 190 -195 347 l-165 285 -71 3 -71 3 0
-416z"/>
<path d="M4910 3005 l0 -415 50 0 50 0 0 415 0 415 -50 0 -50 0 0 -415z"/>
<path d="M6090 3413 c0 -4 61 -192 136 -416 l136 -408 71 3 71 3 138 404 c76
222 138 408 138 413 0 4 -24 8 -53 8 l-53 0 -113 -347 c-138 -424 -128 -396
-136 -358 -4 17 -55 181 -114 365 l-107 335 -57 3 c-31 2 -57 -1 -57 -5z"/>
<path d="M7860 3005 l0 -415 255 0 255 0 0 40 0 40 -205 0 -205 0 0 150 0 150
188 2 187 3 3 43 3 42 -190 0 -191 0 0 135 0 135 198 2 197 3 3 43 3 42 -250
0 -251 0 0 -415z"/>
<path d="M9490 3005 l0 -415 50 0 50 0 0 185 0 185 93 0 93 0 83 -185 84 -185
63 0 64 0 -95 190 c-52 104 -95 194 -95 200 0 5 5 10 10 10 20 0 86 50 102 78
30 50 40 119 27 181 -9 44 -20 65 -53 97 -61 62 -113 74 -313 74 l-163 0 0
-415z m360 307 c92 -45 92 -195 0 -244 -28 -14 -57 -18 -147 -18 l-113 0 0
140 0 140 113 0 c87 0 120 -4 147 -18z"/>
<path d="M12790 3005 l0 -415 50 0 50 0 0 415 0 415 -50 0 -50 0 0 -415z"/>
<path d="M13970 3375 l0 -45 120 0 120 0 0 -370 0 -370 50 0 50 0 2 368 3 367
123 3 122 3 0 44 0 45 -295 0 -295 0 0 -45z"/>
<path d="M15630 3005 l0 -415 255 0 255 0 0 40 0 40 -200 0 -200 0 0 155 0
155 185 0 185 0 0 40 0 40 -185 0 -185 0 0 135 0 135 195 0 195 0 0 45 0 45
-250 0 -250 0 0 -415z"/>
<path d="M1350 2225 l0 -25 7410 0 7410 0 0 25 0 25 -7410 0 -7410 0 0 -25z"/>
<path d="M11257 1786 c-105 -38 -158 -109 -158 -210 0 -66 22 -118 65 -151 17
-13 83 -47 146 -75 139 -63 168 -83 186 -126 19 -45 18 -70 -7 -120 -55 -115
-246 -109 -303 9 l-16 35 -47 -18 c-26 -10 -49 -22 -50 -27 -6 -18 54 -96 95
-123 57 -38 143 -53 227 -40 150 24 225 105 225 240 -1 96 -58 165 -178 216
-196 81 -232 111 -232 189 0 95 88 151 196 124 41 -11 85 -47 96 -80 3 -9 18
-7 56 5 l52 18 -16 30 c-25 47 -74 87 -128 103 -61 18 -158 19 -209 1z"/>
<path d="M1350 1480 c0 -247 3 -308 16 -347 44 -132 141 -198 291 -196 125 1
209 54 262 163 l26 55 3 313 3 312 -50 0 -51 0 0 -269 c0 -292 -7 -355 -46
-414 -63 -95 -232 -102 -302 -12 -46 58 -52 109 -52 412 l0 283 -50 0 -50 0 0
-300z"/>
<path d="M3100 1365 l0 -415 55 0 56 0 -3 350 c-2 193 -2 350 -1 350 2 0 12
-19 24 -42 12 -24 100 -181 196 -350 l174 -308 70 0 69 0 0 415 0 415 -50 0
-50 0 0 -347 -1 -348 -25 50 c-15 28 -103 184 -196 348 l-171 297 -73 0 -74 0
0 -415z"/>
<path d="M4890 1365 l0 -415 55 0 55 0 0 415 0 415 -55 0 -55 0 0 -415z"/>
<path d="M6072 1768 c3 -7 65 -194 139 -416 l134 -403 69 3 69 3 138 405 c76
223 138 408 139 413 0 4 -24 7 -53 7 l-53 0 -121 -365 c-115 -349 -121 -364
-130 -328 -5 21 -57 185 -114 365 l-104 328 -59 0 c-42 0 -57 -3 -54 -12z"/>
<path d="M7830 1365 l0 -415 255 0 255 0 0 45 0 45 -200 0 -200 0 0 150 0 150
185 0 185 0 0 45 0 45 -185 0 -185 0 0 135 0 135 195 0 195 0 0 40 0 40 -250
0 -250 0 0 -415z"/>
<path d="M9450 1365 l0 -415 55 0 55 0 0 190 0 191 90 -3 90 -3 87 -187 86
-188 63 0 64 0 -99 198 -99 198 45 24 c64 34 94 84 100 165 7 79 -12 137 -60
183 -55 53 -98 62 -298 62 l-179 0 0 -415z m357 316 c23 -11 49 -31 58 -45 22
-34 23 -112 2 -153 -27 -52 -67 -66 -194 -71 l-113 -5 0 147 0 146 103 0 c78
0 112 -5 144 -19z"/>
<path d="M12740 1365 l0 -415 50 0 50 0 0 415 0 415 -50 0 -50 0 0 -415z"/>
<path d="M13910 1735 l0 -45 120 0 120 0 0 -370 0 -370 55 0 55 0 0 370 0 370
120 0 120 0 0 45 0 45 -295 0 -295 0 0 -45z"/>
<path d="M15500 1775 c0 -4 65 -115 145 -248 l145 -242 0 -168 0 -167 50 0 50
0 0 169 0 169 135 226 c74 125 140 236 145 246 10 19 7 20 -49 20 l-59 0 -58
-102 c-32 -57 -82 -144 -110 -195 l-51 -92 -109 192 -110 192 -62 3 c-34 2
-62 0 -62 -3z"/>
</g>
</svg>
